<?xml version="1.0" encoding="UTF-8"?>
<svg xmlns="http://www.w3.org/2000/svg" xmlns:xlink="http://www.w3.org/1999/xlink" width="648pt" height="374pt" viewBox="0 0 648 374">
<defs>
<g>
<g id="glyph-0-0">
<path d="M 7.53125 -5.984375 L 12.703125 -11.65625 L 10.875 -11.65625 L 6.90625 -7.109375 L 4.90625 -11.65625 L 3.109375 -11.65625 L 5.78125 -5.984375 L 0.359375 0 L 2.1875 0 L 6.421875 -4.859375 L 8.5625 0 L 10.40625 0 Z M 7.53125 -5.984375 "/>
</g>
<g id="glyph-0-1">
<path d="M 7.171875 -4.578125 L 13.0625 -11.65625 L 11.28125 -11.65625 L 6.65625 -5.953125 L 4.484375 -11.65625 L 2.6875 -11.65625 L 5.65625 -4.578125 L 4.6875 0 L 6.1875 0 Z M 7.171875 -4.578125 "/>
</g>
<g id="glyph-1-0">
<path d="M 2.046875 -3.71875 L 5.953125 -3.71875 L 5.953125 -4.640625 L 2.046875 -4.640625 L 2.046875 -7.25 L 6.484375 -7.25 L 6.484375 -8.171875 L 1.015625 -8.171875 L 1.015625 0 L 2.046875 0 Z M 2.046875 -3.71875 "/>
</g>
<g id="glyph-1-1">
<path d="M 5.25 0 L 7.546875 -6.84375 L 7.546875 0 L 8.53125 0 L 8.53125 -8.171875 L 7.078125 -8.171875 L 4.703125 -1.046875 L 2.28125 -8.171875 L 0.84375 -8.171875 L 0.84375 0 L 1.828125 0 L 1.828125 -6.84375 L 4.140625 0 Z M 5.25 0 "/>
</g>
<g id="glyph-2-0">
<path d="M 4.5 -2.078125 L 5.21875 0 L 6.203125 0 L 3.765625 -6.921875 L 2.625 -6.921875 L 0.15625 0 L 1.109375 0 L 1.828125 -2.078125 Z M 4.25 -2.828125 L 2.046875 -2.828125 L 3.1875 -5.96875 Z M 4.25 -2.828125 "/>
</g>
<g id="glyph-2-1">
<path d="M 4.46875 -3.3125 C 4.4375 -3.796875 4.328125 -4.109375 4.140625 -4.375 C 3.796875 -4.84375 3.203125 -5.125 2.515625 -5.125 C 1.15625 -5.125 0.296875 -4.0625 0.296875 -2.40625 C 0.296875 -0.796875 1.15625 0.21875 2.5 0.21875 C 3.6875 0.21875 4.4375 -0.5 4.53125 -1.703125 L 3.734375 -1.703125 C 3.59375 -0.90625 3.1875 -0.515625 2.515625 -0.515625 C 1.640625 -0.515625 1.125 -1.21875 1.125 -2.40625 C 1.125 -3.640625 1.640625 -4.390625 2.5 -4.390625 C 3.15625 -4.390625 3.578125 -4 3.671875 -3.3125 Z M 4.46875 -3.3125 "/>
</g>
<g id="glyph-2-2">
<path d="M 2.40625 -4.984375 L 1.59375 -4.984375 L 1.59375 -6.34375 L 0.8125 -6.34375 L 0.8125 -4.984375 L 0.140625 -4.984375 L 0.140625 -4.328125 L 0.8125 -4.328125 L 0.8125 -0.5625 C 0.8125 -0.0625 1.15625 0.21875 1.765625 0.21875 C 1.96875 0.21875 2.140625 0.203125 2.40625 0.15625 L 2.40625 -0.515625 C 2.296875 -0.484375 2.1875 -0.46875 2.03125 -0.46875 C 1.6875 -0.46875 1.59375 -0.5625 1.59375 -0.921875 L 1.59375 -4.328125 L 2.40625 -4.328125 Z M 2.40625 -4.984375 "/>
</g>
<g id="glyph-2-3">
<path d="M 2.578125 -5.125 C 1.171875 -5.125 0.34375 -4.125 0.34375 -2.453125 C 0.34375 -0.765625 1.171875 0.21875 2.59375 0.21875 C 4 0.21875 4.84375 -0.78125 4.84375 -2.40625 C 4.84375 -4.140625 4.03125 -5.125 2.578125 -5.125 Z M 2.59375 -4.390625 C 3.484375 -4.390625 4.015625 -3.65625 4.015625 -2.421875 C 4.015625 -1.25 3.46875 -0.515625 2.59375 -0.515625 C 1.703125 -0.515625 1.171875 -1.25 1.171875 -2.453125 C 1.171875 -3.65625 1.703125 -4.390625 2.59375 -4.390625 Z M 2.59375 -4.390625 "/>
</g>
<g id="glyph-2-4">
<path d="M 0.65625 -4.984375 L 0.65625 0 L 1.453125 0 L 1.453125 -2.578125 C 1.46875 -3.78125 1.953125 -4.3125 3.046875 -4.28125 L 3.046875 -5.09375 C 2.921875 -5.109375 2.84375 -5.125 2.75 -5.125 C 2.234375 -5.125 1.84375 -4.8125 1.390625 -4.078125 L 1.390625 -4.984375 Z M 0.65625 -4.984375 "/>
</g>
<g id="glyph-2-5">
</g>
<g id="glyph-2-6">
<path d="M 0.515625 2.078125 L 1.3125 2.078125 L 1.3125 -0.515625 C 1.734375 -0.015625 2.1875 0.21875 2.84375 0.21875 C 4.125 0.21875 4.96875 -0.8125 4.96875 -2.40625 C 4.96875 -4.078125 4.15625 -5.125 2.828125 -5.125 C 2.15625 -5.125 1.609375 -4.8125 1.25 -4.234375 L 1.25 -4.984375 L 0.515625 -4.984375 Z M 2.703125 -4.375 C 3.578125 -4.375 4.140625 -3.609375 4.140625 -2.421875 C 4.140625 -1.296875 3.5625 -0.515625 2.703125 -0.515625 C 1.859375 -0.515625 1.3125 -1.28125 1.3125 -2.453125 C 1.3125 -3.625 1.859375 -4.375 2.703125 -4.375 Z M 2.703125 -4.375 "/>
</g>
<g id="glyph-2-7">
<path d="M 4.875 -2.21875 C 4.875 -2.984375 4.8125 -3.4375 4.671875 -3.8125 C 4.34375 -4.625 3.59375 -5.125 2.65625 -5.125 C 1.265625 -5.125 0.375 -4.0625 0.375 -2.421875 C 0.375 -0.78125 1.234375 0.21875 2.640625 0.21875 C 3.78125 0.21875 4.5625 -0.421875 4.765625 -1.515625 L 3.96875 -1.515625 C 3.75 -0.859375 3.3125 -0.515625 2.671875 -0.515625 C 2.171875 -0.515625 1.734375 -0.734375 1.46875 -1.15625 C 1.28125 -1.4375 1.21875 -1.734375 1.203125 -2.21875 Z M 1.21875 -2.875 C 1.296875 -3.796875 1.859375 -4.390625 2.65625 -4.390625 C 3.453125 -4.390625 4.015625 -3.765625 4.015625 -2.875 Z M 1.21875 -2.875 "/>
</g>
<g id="glyph-2-8">
<path d="M 4.703125 -6.921875 L 3.90625 -6.921875 L 3.90625 -4.34375 C 3.578125 -4.859375 3.046875 -5.125 2.390625 -5.125 C 1.09375 -5.125 0.25 -4.078125 0.25 -2.5 C 0.25 -0.8125 1.0625 0.21875 2.40625 0.21875 C 3.09375 0.21875 3.578125 -0.03125 4 -0.65625 L 4 0 L 4.703125 0 Z M 2.515625 -4.375 C 3.375 -4.375 3.90625 -3.625 3.90625 -2.4375 C 3.90625 -1.28125 3.359375 -0.515625 2.53125 -0.515625 C 1.65625 -0.515625 1.078125 -1.296875 1.078125 -2.453125 C 1.078125 -3.609375 1.65625 -4.375 2.515625 -4.375 Z M 2.515625 -4.375 "/>
</g>
<g id="glyph-2-9">
<path d="M 1.421875 -4.984375 L 0.640625 -4.984375 L 0.640625 0 L 1.421875 0 Z M 1.421875 -6.921875 L 0.625 -6.921875 L 0.625 -5.921875 L 1.421875 -5.921875 Z M 1.421875 -6.921875 "/>
</g>
<g id="glyph-2-10">
<path d="M 1.75 -2.9375 L 3.921875 -2.9375 C 4.46875 -2.9375 4.890625 -3.09375 5.265625 -3.421875 C 5.6875 -3.8125 5.859375 -4.25 5.859375 -4.890625 C 5.859375 -6.1875 5.09375 -6.921875 3.71875 -6.921875 L 0.859375 -6.921875 L 0.859375 0 L 1.75 0 Z M 1.75 -3.71875 L 1.75 -6.140625 L 3.59375 -6.140625 C 4.4375 -6.140625 4.9375 -5.6875 4.9375 -4.9375 C 4.9375 -4.171875 4.4375 -3.71875 3.59375 -3.71875 Z M 1.75 -3.71875 "/>
</g>
<g id="glyph-2-11">
<path d="M 5.078125 -0.46875 C 5 -0.453125 4.953125 -0.453125 4.90625 -0.453125 C 4.640625 -0.453125 4.484375 -0.59375 4.484375 -0.84375 L 4.484375 -3.765625 C 4.484375 -4.640625 3.84375 -5.125 2.609375 -5.125 C 1.875 -5.125 1.296875 -4.90625 0.953125 -4.546875 C 0.734375 -4.28125 0.640625 -4 0.625 -3.5 L 1.421875 -3.5 C 1.484375 -4.109375 1.84375 -4.390625 2.578125 -4.390625 C 3.3125 -4.390625 3.703125 -4.125 3.703125 -3.640625 L 3.703125 -3.4375 C 3.6875 -3.09375 3.515625 -2.96875 2.875 -2.890625 C 1.75 -2.75 1.578125 -2.703125 1.265625 -2.578125 C 0.6875 -2.34375 0.40625 -1.90625 0.40625 -1.25 C 0.40625 -0.34375 1.03125 0.21875 2.03125 0.21875 C 2.65625 0.21875 3.15625 0 3.71875 -0.515625 C 3.78125 0 4.03125 0.21875 4.546875 0.21875 C 4.71875 0.21875 4.8125 0.203125 5.078125 0.140625 Z M 3.703125 -1.5625 C 3.703125 -1.296875 3.625 -1.140625 3.375 -0.921875 C 3.0625 -0.625 2.671875 -0.46875 2.203125 -0.46875 C 1.59375 -0.46875 1.21875 -0.765625 1.21875 -1.265625 C 1.21875 -1.796875 1.5625 -2.0625 2.421875 -2.1875 C 3.265625 -2.296875 3.421875 -2.34375 3.703125 -2.453125 Z M 3.703125 -1.5625 "/>
</g>
<g id="glyph-2-12">
<path d="M 0.671875 -4.984375 L 0.671875 0 L 1.46875 0 L 1.46875 -2.75 C 1.46875 -3.765625 2 -4.421875 2.8125 -4.421875 C 3.4375 -4.421875 3.84375 -4.046875 3.84375 -3.453125 L 3.84375 0 L 4.625 0 L 4.625 -3.765625 C 4.625 -4.59375 4.015625 -5.125 3.046875 -5.125 C 2.3125 -5.125 1.828125 -4.828125 1.390625 -4.140625 L 1.390625 -4.984375 Z M 0.671875 -4.984375 "/>
</g>
<g id="glyph-2-13">
<path d="M 3.703125 -7.046875 C 1.703125 -7.046875 0.359375 -5.578125 0.359375 -3.40625 C 0.359375 -1.234375 1.703125 0.21875 3.703125 0.21875 C 4.546875 0.21875 5.296875 -0.03125 5.859375 -0.515625 C 6.609375 -1.15625 7.046875 -2.21875 7.046875 -3.359375 C 7.046875 -5.59375 5.734375 -7.046875 3.703125 -7.046875 Z M 3.703125 -6.265625 C 5.203125 -6.265625 6.171875 -5.125 6.171875 -3.375 C 6.171875 -1.703125 5.171875 -0.5625 3.703125 -0.5625 C 2.21875 -0.5625 1.25 -1.703125 1.25 -3.40625 C 1.25 -5.125 2.21875 -6.265625 3.703125 -6.265625 Z M 3.703125 -6.265625 "/>
</g>
<g id="glyph-2-14">
<path d="M 4.578125 0 L 4.578125 -4.984375 L 3.796875 -4.984375 L 3.796875 -2.15625 C 3.796875 -1.140625 3.265625 -0.46875 2.4375 -0.46875 C 1.8125 -0.46875 1.40625 -0.859375 1.40625 -1.453125 L 1.40625 -4.984375 L 0.625 -4.984375 L 0.625 -1.140625 C 0.625 -0.3125 1.234375 0.21875 2.203125 0.21875 C 2.9375 0.21875 3.40625 -0.03125 3.859375 -0.6875 L 3.859375 0 Z M 4.578125 0 "/>
</g>
<g id="glyph-2-15">
<path d="M 0.671875 -4.984375 L 0.671875 0 L 1.46875 0 L 1.46875 -3.125 C 1.46875 -3.84375 1.984375 -4.421875 2.625 -4.421875 C 3.21875 -4.421875 3.546875 -4.0625 3.546875 -3.421875 L 3.546875 0 L 4.34375 0 L 4.34375 -3.125 C 4.34375 -3.84375 4.875 -4.421875 5.515625 -4.421875 C 6.09375 -4.421875 6.4375 -4.0625 6.4375 -3.421875 L 6.4375 0 L 7.234375 0 L 7.234375 -3.734375 C 7.234375 -4.625 6.71875 -5.125 5.796875 -5.125 C 5.125 -5.125 4.734375 -4.921875 4.265625 -4.359375 C 3.96875 -4.890625 3.578125 -5.125 2.921875 -5.125 C 2.265625 -5.125 1.8125 -4.875 1.390625 -4.28125 L 1.390625 -4.984375 Z M 0.671875 -4.984375 "/>
</g>
<g id="glyph-3-0">
<path d="M 5.1875 -4.5625 C 3.828125 -4.5625 3.21875 -4.75 3.03125 -5.28125 C 2.984375 -5.375 2.96875 -5.484375 2.96875 -5.59375 C 2.96875 -6.328125 3.796875 -6.9375 4.796875 -6.9375 C 5.359375 -6.9375 5.875 -6.71875 6.125 -6.390625 C 6.265625 -6.1875 6.328125 -5.984375 6.359375 -5.53125 L 7.640625 -5.53125 C 7.609375 -6.71875 7.1875 -7.40625 6.265625 -7.796875 C 5.828125 -8 5.359375 -8.078125 4.859375 -8.078125 C 3.109375 -8.078125 1.6875 -6.953125 1.6875 -5.59375 C 1.6875 -5.03125 1.9375 -4.609375 2.578125 -4.140625 C 1.6875 -3.90625 1.15625 -3.484375 0.84375 -2.765625 C 0.703125 -2.46875 0.640625 -2.171875 0.640625 -1.859375 C 0.640625 -1.015625 1.125 -0.296875 1.890625 0.046875 C 2.359375 0.234375 2.875 0.34375 3.421875 0.34375 C 4.5 0.34375 5.484375 -0.015625 6.203125 -0.671875 C 6.765625 -1.171875 7.046875 -1.671875 7.328125 -2.515625 L 5.9375 -2.515625 C 5.5625 -1.40625 4.71875 -0.8125 3.546875 -0.8125 C 2.515625 -0.8125 1.953125 -1.234375 1.953125 -2.015625 C 1.953125 -2.921875 2.90625 -3.53125 4.375 -3.53125 L 4.65625 -3.53125 C 4.6875 -3.53125 4.828125 -3.53125 4.984375 -3.515625 Z M 5.1875 -4.5625 "/>
</g>
<g id="glyph-4-0">
<path d="M 1.921875 -3.484375 L 5.578125 -3.484375 L 5.578125 -4.34375 L 1.921875 -4.34375 L 1.921875 -6.796875 L 6.078125 -6.796875 L 6.078125 -7.65625 L 0.9375 -7.65625 L 0.9375 0 L 1.921875 0 Z M 1.921875 -3.484375 "/>
</g>
<g id="glyph-4-1">
<path d="M 4.90625 0 L 7.0625 -6.421875 L 7.0625 0 L 7.984375 0 L 7.984375 -7.65625 L 6.640625 -7.65625 L 4.40625 -0.984375 L 2.140625 -7.65625 L 0.78125 -7.65625 L 0.78125 0 L 1.71875 0 L 1.71875 -6.421875 L 3.890625 0 Z M 4.90625 0 "/>
</g>
<g id="glyph-4-2">
<path d="M 6.265625 -5.40625 C 6.265625 -5.9375 6.21875 -6.078125 6.0625 -6.4375 C 5.640625 -7.3125 4.75 -7.78125 3.453125 -7.78125 C 1.78125 -7.78125 0.734375 -6.921875 0.734375 -5.53125 C 0.734375 -4.59375 1.234375 -4.015625 2.234375 -3.75 L 4.140625 -3.25 C 5.109375 -3 5.546875 -2.609375 5.546875 -2 C 5.546875 -1.59375 5.328125 -1.171875 5 -0.9375 C 4.6875 -0.71875 4.203125 -0.625 3.59375 -0.625 C 2.75 -0.625 2.1875 -0.8125 1.828125 -1.265625 C 1.546875 -1.59375 1.421875 -1.96875 1.421875 -2.4375 L 0.5 -2.4375 C 0.515625 -1.734375 0.65625 -1.265625 0.953125 -0.84375 C 1.484375 -0.125 2.359375 0.234375 3.53125 0.234375 C 4.4375 0.234375 5.1875 0.03125 5.6875 -0.34375 C 6.1875 -0.75 6.515625 -1.4375 6.515625 -2.09375 C 6.515625 -3.046875 5.9375 -3.734375 4.890625 -4.015625 L 2.96875 -4.53125 C 2.046875 -4.78125 1.71875 -5.078125 1.71875 -5.671875 C 1.71875 -6.453125 2.390625 -6.96875 3.421875 -6.96875 C 4.640625 -6.96875 5.328125 -6.421875 5.328125 -5.40625 Z M 6.265625 -5.40625 "/>
</g>
<g id="glyph-4-3">
<path d="M 0.9375 0 L 3.890625 0 C 5.8125 0 7 -1.453125 7 -3.828125 C 7 -6.203125 5.828125 -7.65625 3.890625 -7.65625 L 0.9375 -7.65625 Z M 1.90625 -0.859375 L 1.90625 -6.796875 L 3.71875 -6.796875 C 5.234375 -6.796875 6.03125 -5.78125 6.03125 -3.828125 C 6.03125 -1.875 5.234375 -0.859375 3.71875 -0.859375 Z M 1.90625 -0.859375 "/>
</g>
<g id="glyph-5-0">
<path d="M 2.71875 -9.484375 L 0.703125 0 L 1.671875 0 L 1.890625 -1.015625 C 2.3125 -0.078125 2.859375 0.296875 3.828125 0.296875 C 4.6875 0.296875 5.609375 -0.09375 6.203125 -0.71875 C 7.078125 -1.640625 7.640625 -3.125 7.640625 -4.453125 C 7.640625 -5.5 7.109375 -6.40625 6.296875 -6.796875 C 6 -6.9375 5.6875 -7 5.34375 -7 C 4.8125 -7 4.234375 -6.84375 3.84375 -6.609375 C 3.625 -6.484375 3.453125 -6.328125 3.0625 -5.90625 L 3.8125 -9.484375 Z M 4.984375 -6 C 5.609375 -6 6.078125 -5.71875 6.3125 -5.203125 C 6.4375 -4.90625 6.5 -4.59375 6.5 -4.21875 C 6.5 -2.78125 5.75 -1.359375 4.734375 -0.890625 C 4.453125 -0.75 4.1875 -0.703125 3.84375 -0.703125 C 3.25 -0.703125 2.78125 -0.984375 2.578125 -1.515625 C 2.453125 -1.78125 2.40625 -2.078125 2.40625 -2.375 C 2.40625 -3.890625 3.109375 -5.265625 4.125 -5.8125 C 4.375 -5.9375 4.640625 -6 4.984375 -6 Z M 4.984375 -6 "/>
</g>
<g id="glyph-6-0">
<path d="M 2.5 -6.578125 C 1.90625 -6.578125 1.359375 -6.296875 1.015625 -5.859375 C 0.59375 -5.28125 0.390625 -4.40625 0.390625 -3.1875 C 0.390625 -0.96875 1.125 0.203125 2.5 0.203125 C 3.859375 0.203125 4.609375 -0.96875 4.609375 -3.125 C 4.609375 -4.40625 4.40625 -5.25 3.984375 -5.859375 C 3.640625 -6.3125 3.109375 -6.578125 2.5 -6.578125 Z M 2.5 -5.859375 C 3.359375 -5.859375 3.796875 -4.984375 3.796875 -3.203125 C 3.796875 -1.328125 3.375 -0.453125 2.484375 -0.453125 C 1.640625 -0.453125 1.203125 -1.359375 1.203125 -3.171875 C 1.203125 -4.984375 1.640625 -5.859375 2.5 -5.859375 Z M 2.5 -5.859375 "/>
</g>
<g id="glyph-6-1">
<path d="M 0.796875 -0.953125 L 0.796875 0 L 1.34375 0 L 1.34375 0.15625 C 1.34375 0.796875 1.21875 0.96875 0.796875 0.984375 L 0.796875 1.34375 C 1.390625 1.359375 1.75 0.921875 1.75 0.140625 L 1.75 -0.953125 Z M 0.796875 -0.953125 "/>
</g>
<g id="glyph-6-2">
<path d="M 1.671875 -3.015625 L 4.828125 -3.015625 L 4.828125 -3.765625 L 1.671875 -3.765625 L 1.671875 -5.890625 L 5.265625 -5.890625 L 5.265625 -6.625 L 0.8125 -6.625 L 0.8125 0 L 1.671875 0 Z M 1.671875 -3.015625 "/>
</g>
<g id="glyph-6-3">
<path d="M 4.25 0 L 6.125 -5.5625 L 6.125 0 L 6.921875 0 L 6.921875 -6.625 L 5.75 -6.625 L 3.8125 -0.859375 L 1.859375 -6.625 L 0.6875 -6.625 L 0.6875 0 L 1.484375 0 L 1.484375 -5.5625 L 3.359375 0 Z M 4.25 0 "/>
</g>
<g id="glyph-7-0">
<path d="M 7.734375 -0.71875 C 7.609375 -0.6875 7.546875 -0.6875 7.484375 -0.6875 C 7.203125 -0.6875 7.015625 -0.78125 6.96875 -0.953125 C 6.953125 -1 6.953125 -1.03125 6.953125 -1.09375 C 6.953125 -1.140625 6.953125 -1.1875 6.96875 -1.234375 L 7.875 -5.453125 C 7.953125 -5.828125 7.953125 -5.828125 7.953125 -5.96875 C 7.953125 -6.65625 7.375 -7.234375 6.53125 -7.4375 C 6.21875 -7.5 5.859375 -7.546875 5.515625 -7.546875 C 3.5625 -7.546875 2.375 -6.71875 2.109375 -5.171875 L 3.296875 -5.171875 C 3.421875 -5.5625 3.515625 -5.75 3.703125 -5.953125 C 4.015625 -6.265625 4.609375 -6.46875 5.203125 -6.46875 C 5.84375 -6.46875 6.375 -6.265625 6.59375 -5.90625 C 6.65625 -5.8125 6.6875 -5.703125 6.6875 -5.578125 C 6.6875 -5.515625 6.671875 -5.421875 6.65625 -5.3125 L 6.625 -5.046875 C 6.53125 -4.515625 6.21875 -4.3125 5.203125 -4.234375 C 3.8125 -4.109375 3.1875 -4 2.6875 -3.8125 C 1.78125 -3.453125 1.1875 -2.84375 0.984375 -2.03125 C 0.9375 -1.84375 0.90625 -1.65625 0.90625 -1.46875 C 0.90625 -0.671875 1.296875 -0.0625 1.984375 0.171875 C 2.265625 0.265625 2.59375 0.328125 2.90625 0.328125 C 3.4375 0.328125 3.984375 0.21875 4.515625 0.046875 C 4.9375 -0.109375 5.171875 -0.25 5.734375 -0.75 L 5.734375 -0.609375 C 5.734375 -0.203125 5.953125 0.125 6.28125 0.234375 C 6.4375 0.296875 6.625 0.328125 6.796875 0.328125 C 6.96875 0.328125 7.015625 0.328125 7.34375 0.234375 C 7.390625 0.21875 7.46875 0.203125 7.546875 0.203125 Z M 6.03125 -2.296875 C 5.859375 -1.421875 4.625 -0.6875 3.390625 -0.6875 C 2.890625 -0.6875 2.53125 -0.8125 2.34375 -1.03125 C 2.21875 -1.1875 2.140625 -1.390625 2.140625 -1.609375 C 2.140625 -2.078125 2.40625 -2.53125 2.828125 -2.78125 C 3.15625 -3 3.5625 -3.109375 4.265625 -3.203125 C 5.6875 -3.40625 5.703125 -3.40625 6.3125 -3.609375 Z M 6.03125 -2.296875 "/>
</g>
<g id="glyph-7-1">
<path d="M 0.09375 2.984375 L 1.28125 2.984375 L 2.109375 -0.953125 C 2.4375 -0.265625 2.78125 0.0625 3.375 0.21875 C 3.609375 0.296875 3.84375 0.328125 4.109375 0.328125 C 5.203125 0.328125 6.265625 -0.1875 6.96875 -1.046875 C 7.734375 -1.984375 8.203125 -3.4375 8.203125 -4.8125 C 8.203125 -6.5 7.265625 -7.546875 5.765625 -7.546875 C 4.671875 -7.546875 3.5625 -6.9375 3.171875 -6.15625 L 3.4375 -7.34375 L 2.296875 -7.34375 Z M 5.3125 -6.46875 C 5.984375 -6.46875 6.515625 -6.15625 6.765625 -5.59375 C 6.90625 -5.28125 6.96875 -4.9375 6.96875 -4.53125 C 6.96875 -3.921875 6.8125 -3.21875 6.546875 -2.578125 C 6.203125 -1.765625 5.734375 -1.234375 5.15625 -0.953125 C 4.859375 -0.8125 4.5625 -0.75 4.234375 -0.75 C 3.1875 -0.75 2.5625 -1.453125 2.5625 -2.578125 C 2.5625 -4.171875 3.359375 -5.765625 4.40625 -6.265625 C 4.6875 -6.40625 4.96875 -6.46875 5.3125 -6.46875 Z M 5.3125 -6.46875 "/>
</g>
<g id="glyph-8-0">
<path d="M 1.796875 -3.25 L 5.203125 -3.25 L 5.203125 -4.0625 L 1.796875 -4.0625 L 1.796875 -6.34375 L 5.671875 -6.34375 L 5.671875 -7.140625 L 0.875 -7.140625 L 0.875 0 L 1.796875 0 Z M 1.796875 -3.25 "/>
</g>
<g id="glyph-8-1">
<path d="M 4.578125 0 L 6.59375 -5.984375 L 6.59375 0 L 7.453125 0 L 7.453125 -7.140625 L 6.1875 -7.140625 L 4.109375 -0.921875 L 2 -7.140625 L 0.734375 -7.140625 L 0.734375 0 L 1.59375 0 L 1.59375 -5.984375 L 3.625 0 Z M 4.578125 0 "/>
</g>
<g id="glyph-9-0">
<path d="M 1.109375 -4.765625 L 7.6875 -4.765625 L 7.6875 -3.90625 L 1.109375 -3.90625 Z M 1.109375 -2.671875 L 7.6875 -2.671875 L 7.6875 -1.8125 L 1.109375 -1.8125 Z M 1.109375 -2.671875 "/>
</g>
<g id="glyph-10-0">
<path d="M 5.015625 -5.5 C 4.6875 -5.625 4.4375 -5.65625 4.109375 -5.65625 C 3.25 -5.65625 2.4375 -5.265625 1.90625 -4.59375 C 1.375 -3.921875 1.03125 -2.859375 1.03125 -1.90625 C 1.03125 -1.078125 1.390625 -0.390625 1.96875 -0.046875 C 2.3125 0.140625 2.71875 0.234375 3.15625 0.234375 C 4.015625 0.234375 4.8125 -0.140625 5.359375 -0.8125 C 5.859375 -1.453125 6.21875 -2.5625 6.21875 -3.4375 C 6.21875 -3.953125 6.078125 -4.359375 5.75 -4.71875 L 7 -4.71875 L 7.15625 -5.5 Z M 4.09375 -4.84375 C 4.625 -4.84375 5.046875 -4.578125 5.203125 -4.140625 C 5.28125 -3.953125 5.3125 -3.75 5.3125 -3.5 C 5.3125 -2.296875 4.75 -1.15625 3.984375 -0.75 C 3.734375 -0.625 3.46875 -0.5625 3.171875 -0.5625 C 2.65625 -0.5625 2.25 -0.828125 2.078125 -1.265625 C 2 -1.484375 1.96875 -1.703125 1.96875 -1.9375 C 1.96875 -2.421875 2.078125 -2.96875 2.28125 -3.453125 C 2.515625 -4.03125 2.859375 -4.421875 3.3125 -4.65625 C 3.5625 -4.78125 3.796875 -4.84375 4.09375 -4.84375 Z M 4.09375 -4.84375 "/>
</g>
<g id="glyph-11-0">
<path d="M 1.34375 -2.4375 L 3.90625 -2.4375 L 3.90625 -3.046875 L 1.34375 -3.046875 L 1.34375 -4.75 L 4.25 -4.75 L 4.25 -5.359375 L 0.65625 -5.359375 L 0.65625 0 L 1.34375 0 Z M 1.34375 -2.4375 "/>
</g>
<g id="glyph-11-1">
<path d="M 3.4375 0 L 4.9375 -4.484375 L 4.9375 0 L 5.59375 0 L 5.59375 -5.359375 L 4.640625 -5.359375 L 3.078125 -0.6875 L 1.5 -5.359375 L 0.546875 -5.359375 L 0.546875 0 L 1.203125 0 L 1.203125 -4.484375 L 2.71875 0 Z M 3.4375 0 "/>
</g>
<g id="glyph-12-0">
<path d="M 0.140625 2.390625 L 1.0625 2.390625 L 1.703125 -0.609375 C 1.90625 -0.25 2.09375 -0.0625 2.421875 0.0625 C 2.703125 0.1875 3.03125 0.25 3.359375 0.25 C 4.28125 0.25 5.078125 -0.15625 5.625 -0.890625 C 6.203125 -1.65625 6.53125 -2.65625 6.53125 -3.625 C 6.53125 -4.515625 6.1875 -5.234375 5.5625 -5.609375 C 5.203125 -5.828125 4.78125 -5.9375 4.3125 -5.9375 C 3.5625 -5.9375 2.828125 -5.625 2.28125 -5.09375 C 1.734375 -4.546875 1.5 -4 1.21875 -2.671875 Z M 4.296875 -5.078125 C 4.84375 -5.078125 5.296875 -4.78125 5.453125 -4.328125 C 5.515625 -4.109375 5.5625 -3.921875 5.5625 -3.65625 C 5.5625 -2.890625 5.3125 -2.0625 4.90625 -1.46875 C 4.546875 -0.953125 3.9375 -0.609375 3.328125 -0.609375 C 2.84375 -0.609375 2.4375 -0.859375 2.25 -1.265625 C 2.140625 -1.546875 2.09375 -1.75 2.09375 -2.125 C 2.09375 -2.515625 2.21875 -3.125 2.390625 -3.59375 C 2.65625 -4.21875 2.953125 -4.59375 3.46875 -4.875 C 3.734375 -5.015625 3.984375 -5.078125 4.296875 -5.078125 Z M 4.296875 -5.078125 "/>
</g>
<g id="glyph-13-0">
<path d="M 1.40625 -2.5625 L 4.09375 -2.5625 L 4.09375 -3.1875 L 1.40625 -3.1875 L 1.40625 -4.984375 L 4.453125 -4.984375 L 4.453125 -5.609375 L 0.6875 -5.609375 L 0.6875 0 L 1.40625 0 Z M 1.40625 -2.5625 "/>
</g>
<g id="glyph-13-1">
<path d="M 3.609375 0 L 5.1875 -4.703125 L 5.1875 0 L 5.859375 0 L 5.859375 -5.609375 L 4.875 -5.609375 L 3.234375 -0.71875 L 1.578125 -5.609375 L 0.578125 -5.609375 L 0.578125 0 L 1.25 0 L 1.25 -4.703125 L 2.84375 0 Z M 3.609375 0 "/>
</g>
<g id="glyph-14-0">
<path d="M 2.46875 -3.453125 L 5.96875 -3.453125 L 5.96875 -4.828125 L 2.46875 -4.828125 L 2.46875 -6.640625 L 6.453125 -6.640625 L 6.453125 -8.015625 L 0.8125 -8.015625 L 0.8125 0 L 2.46875 0 Z M 2.46875 -3.453125 "/>
</g>
<g id="glyph-14-1">
<path d="M 5.765625 -2.484375 C 5.78125 -2.625 5.78125 -2.671875 5.78125 -2.75 C 5.78125 -3.34375 5.6875 -3.890625 5.546875 -4.3125 C 5.140625 -5.390625 4.1875 -6.03125 2.984375 -6.03125 C 1.28125 -6.03125 0.234375 -4.8125 0.234375 -2.8125 C 0.234375 -0.90625 1.28125 0.25 2.953125 0.25 C 4.296875 0.25 5.375 -0.5 5.703125 -1.671875 L 4.1875 -1.671875 C 4 -1.203125 3.578125 -0.921875 3.015625 -0.921875 C 2.578125 -0.921875 2.21875 -1.109375 2 -1.4375 C 1.859375 -1.65625 1.796875 -1.921875 1.78125 -2.484375 Z M 1.796875 -3.515625 C 1.90625 -4.421875 2.28125 -4.859375 2.96875 -4.859375 C 3.671875 -4.859375 4.09375 -4.390625 4.171875 -3.515625 Z M 1.796875 -3.515625 "/>
</g>
<g id="glyph-14-2">
<path d="M 0.65625 -5.9375 L 0.65625 0 L 2.203125 0 L 2.203125 -3.5625 C 2.203125 -4.296875 2.59375 -4.734375 3.25 -4.734375 C 3.765625 -4.734375 4.09375 -4.4375 4.09375 -3.953125 L 4.09375 0 L 5.625 0 L 5.625 -3.5625 C 5.625 -4.296875 6.03125 -4.734375 6.6875 -4.734375 C 7.203125 -4.734375 7.53125 -4.4375 7.53125 -3.953125 L 7.53125 0 L 9.0625 0 L 9.0625 -4.203125 C 9.0625 -5.359375 8.359375 -6.03125 7.171875 -6.03125 C 6.40625 -6.03125 5.890625 -5.78125 5.4375 -5.15625 C 5.140625 -5.71875 4.546875 -6.03125 3.8125 -6.03125 C 3.140625 -6.03125 2.6875 -5.8125 2.1875 -5.203125 L 2.1875 -5.9375 Z M 0.65625 -5.9375 "/>
</g>
<g id="glyph-14-3">
<path d="M 5.765625 -0.1875 C 5.5 -0.4375 5.40625 -0.609375 5.40625 -0.90625 L 5.40625 -4.21875 C 5.40625 -5.421875 4.59375 -6.03125 2.984375 -6.03125 C 1.375 -6.03125 0.53125 -5.359375 0.4375 -3.984375 L 1.921875 -3.984375 C 2 -4.59375 2.25 -4.796875 3.015625 -4.796875 C 3.609375 -4.796875 3.90625 -4.59375 3.90625 -4.203125 C 3.90625 -4 3.8125 -3.84375 3.640625 -3.734375 C 3.4375 -3.625 3.4375 -3.625 2.671875 -3.515625 L 2.0625 -3.40625 C 0.875 -3.203125 0.3125 -2.59375 0.3125 -1.53125 C 0.3125 -0.46875 1.015625 0.25 2.109375 0.25 C 2.765625 0.25 3.359375 -0.015625 3.921875 -0.59375 C 3.921875 -0.28125 3.953125 -0.171875 4.09375 0 L 5.765625 0 Z M 3.90625 -2.390625 C 3.90625 -1.5 3.46875 -0.984375 2.6875 -0.984375 C 2.171875 -0.984375 1.84375 -1.265625 1.84375 -1.703125 C 1.84375 -2.171875 2.09375 -2.390625 2.734375 -2.515625 L 3.25 -2.625 C 3.65625 -2.6875 3.734375 -2.71875 3.90625 -2.8125 Z M 3.90625 -2.390625 "/>
</g>
<g id="glyph-14-4">
<path d="M 2.28125 -8.015625 L 0.734375 -8.015625 L 0.734375 0 L 2.28125 0 Z M 2.28125 -8.015625 "/>
</g>
<g id="glyph-14-5">
</g>
<g id="glyph-14-6">
<path d="M 3.3125 -6.03125 C 1.5 -6.03125 0.390625 -4.84375 0.390625 -2.890625 C 0.390625 -0.9375 1.5 0.25 3.328125 0.25 C 5.140625 0.25 6.265625 -0.9375 6.265625 -2.84375 C 6.265625 -4.859375 5.171875 -6.03125 3.3125 -6.03125 Z M 3.328125 -4.796875 C 4.171875 -4.796875 4.71875 -4.03125 4.71875 -2.875 C 4.71875 -1.765625 4.140625 -0.984375 3.328125 -0.984375 C 2.484375 -0.984375 1.921875 -1.75 1.921875 -2.890625 C 1.921875 -4.03125 2.484375 -4.796875 3.328125 -4.796875 Z M 3.328125 -4.796875 "/>
</g>
<g id="glyph-14-7">
<path d="M 5.953125 0 L 5.953125 -5.9375 L 4.40625 -5.9375 L 4.40625 -2.21875 C 4.40625 -1.515625 3.921875 -1.0625 3.171875 -1.0625 C 2.515625 -1.0625 2.171875 -1.40625 2.171875 -2.125 L 2.171875 -5.9375 L 0.640625 -5.9375 L 0.640625 -1.796875 C 0.640625 -0.484375 1.359375 0.25 2.625 0.25 C 3.4375 0.25 3.96875 -0.03125 4.40625 -0.703125 L 4.40625 0 Z M 5.953125 0 "/>
</g>
<g id="glyph-14-8">
<path d="M 3.3125 -5.8125 L 2.453125 -5.8125 L 2.453125 -7.40625 L 0.90625 -7.40625 L 0.90625 -5.8125 L 0.15625 -5.8125 L 0.15625 -4.796875 L 0.90625 -4.796875 L 0.90625 -1.140625 C 0.90625 -0.203125 1.40625 0.25 2.421875 0.25 C 2.765625 0.25 3.03125 0.21875 3.3125 0.125 L 3.3125 -0.953125 C 3.15625 -0.921875 3.078125 -0.90625 2.953125 -0.90625 C 2.546875 -0.90625 2.453125 -1.03125 2.453125 -1.5625 L 2.453125 -4.796875 L 3.3125 -4.796875 Z M 3.3125 -5.8125 "/>
</g>
<g id="glyph-14-9">
<path d="M 5.734375 -3.71875 C 5.625 -5.171875 4.671875 -6.03125 3.171875 -6.03125 C 1.390625 -6.03125 0.375 -4.875 0.375 -2.84375 C 0.375 -0.890625 1.390625 0.25 3.15625 0.25 C 4.59375 0.25 5.59375 -0.640625 5.734375 -2.0625 L 4.265625 -2.0625 C 4.078125 -1.28125 3.765625 -0.984375 3.15625 -0.984375 C 2.375 -0.984375 1.90625 -1.6875 1.90625 -2.84375 C 1.90625 -3.421875 2.03125 -3.9375 2.21875 -4.296875 C 2.390625 -4.625 2.734375 -4.796875 3.171875 -4.796875 C 3.796875 -4.796875 4.09375 -4.5 4.265625 -3.71875 Z M 5.734375 -3.71875 "/>
</g>
<g id="glyph-14-10">
<path d="M 0.65625 -8.015625 L 0.65625 0 L 2.1875 0 L 2.1875 -0.609375 C 2.5625 -0.015625 3.078125 0.25 3.828125 0.25 C 5.25 0.25 6.328125 -1.09375 6.328125 -2.890625 C 6.328125 -3.703125 6.078125 -4.515625 5.6875 -5.078125 C 5.28125 -5.671875 4.546875 -6.03125 3.828125 -6.03125 C 3.078125 -6.03125 2.5625 -5.765625 2.1875 -5.171875 L 2.1875 -8.015625 Z M 3.484375 -4.75 C 4.25 -4.75 4.78125 -3.984375 4.78125 -2.875 C 4.78125 -1.796875 4.25 -1.03125 3.484375 -1.03125 C 2.703125 -1.03125 2.1875 -1.765625 2.1875 -2.921875 C 2.1875 -4 2.71875 -4.75 3.484375 -4.75 Z M 3.484375 -4.75 "/>
</g>
<g id="glyph-14-11">
<path d="M 0.6875 -5.9375 L 0.6875 0 L 2.234375 0 L 2.234375 -3.15625 C 2.234375 -4.0625 2.6875 -4.515625 3.59375 -4.515625 C 3.75 -4.515625 3.859375 -4.5 4.0625 -4.46875 L 4.0625 -6.03125 C 3.984375 -6.03125 3.953125 -6.03125 3.890625 -6.03125 C 3.171875 -6.03125 2.578125 -5.578125 2.234375 -4.78125 L 2.234375 -5.9375 Z M 0.6875 -5.9375 "/>
</g>
<g id="glyph-14-12">
<path d="M 2.375 -6.25 L 3.8125 0 L 5.46875 0 L 6.890625 -6.25 L 6.890625 0 L 8.53125 0 L 8.53125 -8.015625 L 6.046875 -8.015625 L 4.640625 -1.640625 L 3.1875 -8.015625 L 0.71875 -8.015625 L 0.71875 0 L 2.375 0 Z M 2.375 -6.25 "/>
</g>
<g id="glyph-15-0">
<path d="M 5.21875 -2.40625 L 6.03125 0 L 7.1875 0 L 4.359375 -8.015625 L 3.046875 -8.015625 L 0.1875 0 L 1.28125 0 L 2.125 -2.40625 Z M 4.921875 -3.265625 L 2.375 -3.265625 L 3.703125 -6.921875 Z M 4.921875 -3.265625 "/>
</g>
<g id="glyph-15-1">
<path d="M 5.1875 -3.828125 C 5.140625 -4.390625 5.015625 -4.75 4.796875 -5.078125 C 4.40625 -5.609375 3.703125 -5.921875 2.90625 -5.921875 C 1.34375 -5.921875 0.34375 -4.703125 0.34375 -2.78125 C 0.34375 -0.921875 1.328125 0.25 2.890625 0.25 C 4.265625 0.25 5.140625 -0.578125 5.25 -1.984375 L 4.328125 -1.984375 C 4.171875 -1.0625 3.703125 -0.59375 2.921875 -0.59375 C 1.90625 -0.59375 1.296875 -1.421875 1.296875 -2.78125 C 1.296875 -4.21875 1.890625 -5.078125 2.890625 -5.078125 C 3.65625 -5.078125 4.140625 -4.625 4.25 -3.828125 Z M 5.1875 -3.828125 "/>
</g>
<g id="glyph-15-2">
<path d="M 2.796875 -5.765625 L 1.84375 -5.765625 L 1.84375 -7.34375 L 0.9375 -7.34375 L 0.9375 -5.765625 L 0.15625 -5.765625 L 0.15625 -5.015625 L 0.9375 -5.015625 L 0.9375 -0.65625 C 0.9375 -0.0625 1.328125 0.25 2.046875 0.25 C 2.28125 0.25 2.484375 0.234375 2.796875 0.171875 L 2.796875 -0.59375 C 2.65625 -0.5625 2.546875 -0.546875 2.359375 -0.546875 C 1.953125 -0.546875 1.84375 -0.65625 1.84375 -1.0625 L 1.84375 -5.015625 L 2.796875 -5.015625 Z M 2.796875 -5.765625 "/>
</g>
<g id="glyph-15-3">
<path d="M 2.984375 -5.921875 C 1.359375 -5.921875 0.390625 -4.78125 0.390625 -2.84375 C 0.390625 -0.890625 1.359375 0.25 3 0.25 C 4.625 0.25 5.609375 -0.90625 5.609375 -2.796875 C 5.609375 -4.796875 4.65625 -5.921875 2.984375 -5.921875 Z M 3 -5.078125 C 4.03125 -5.078125 4.65625 -4.234375 4.65625 -2.8125 C 4.65625 -1.4375 4.015625 -0.59375 3 -0.59375 C 1.984375 -0.59375 1.359375 -1.4375 1.359375 -2.84375 C 1.359375 -4.234375 1.984375 -5.078125 3 -5.078125 Z M 3 -5.078125 "/>
</g>
<g id="glyph-15-4">
<path d="M 0.765625 -5.765625 L 0.765625 0 L 1.6875 0 L 1.6875 -2.984375 C 1.6875 -4.375 2.265625 -5 3.53125 -4.96875 L 3.53125 -5.890625 C 3.375 -5.921875 3.28125 -5.921875 3.171875 -5.921875 C 2.578125 -5.921875 2.140625 -5.578125 1.609375 -4.71875 L 1.609375 -5.765625 Z M 0.765625 -5.765625 "/>
</g>
<g id="glyph-15-5">
</g>
<g id="glyph-15-6">
<path d="M 5.640625 -2.578125 C 5.640625 -3.453125 5.578125 -3.984375 5.40625 -4.40625 C 5.03125 -5.359375 4.15625 -5.921875 3.078125 -5.921875 C 1.46875 -5.921875 0.4375 -4.703125 0.4375 -2.8125 C 0.4375 -0.90625 1.4375 0.25 3.0625 0.25 C 4.375 0.25 5.296875 -0.5 5.515625 -1.75 L 4.59375 -1.75 C 4.34375 -0.984375 3.828125 -0.59375 3.09375 -0.59375 C 2.515625 -0.59375 2.015625 -0.859375 1.703125 -1.34375 C 1.484375 -1.671875 1.40625 -2 1.390625 -2.578125 Z M 1.421875 -3.328125 C 1.5 -4.390625 2.140625 -5.078125 3.0625 -5.078125 C 4 -5.078125 4.65625 -4.359375 4.65625 -3.328125 Z M 1.421875 -3.328125 "/>
</g>
<g id="glyph-15-7">
<path d="M 2.859375 -5.765625 L 1.90625 -5.765625 L 1.90625 -6.671875 C 1.90625 -7.046875 2.109375 -7.25 2.546875 -7.25 C 2.625 -7.25 2.65625 -7.25 2.859375 -7.234375 L 2.859375 -8 C 2.65625 -8.046875 2.53125 -8.046875 2.34375 -8.046875 C 1.5 -8.046875 0.984375 -7.5625 0.984375 -6.75 L 0.984375 -5.765625 L 0.21875 -5.765625 L 0.21875 -5.015625 L 0.984375 -5.015625 L 0.984375 0 L 1.90625 0 L 1.90625 -5.015625 L 2.859375 -5.015625 Z M 5.8125 -5.765625 L 4.859375 -5.765625 L 4.859375 -6.671875 C 4.859375 -7.046875 5.078125 -7.25 5.5 -7.25 C 5.578125 -7.25 5.609375 -7.25 5.8125 -7.234375 L 5.8125 -8 C 5.609375 -8.046875 5.484375 -8.046875 5.296875 -8.046875 C 4.453125 -8.046875 3.953125 -7.5625 3.953125 -6.75 L 3.953125 -5.765625 L 3.171875 -5.765625 L 3.171875 -5.015625 L 3.953125 -5.015625 L 3.953125 0 L 4.859375 0 L 4.859375 -5.015625 L 5.8125 -5.015625 Z M 5.8125 -5.765625 "/>
</g>
<g id="glyph-15-8">
<path d="M 2.03125 -3.40625 L 4.546875 -3.40625 C 5.171875 -3.40625 5.671875 -3.59375 6.09375 -3.96875 C 6.578125 -4.40625 6.78125 -4.921875 6.78125 -5.671875 C 6.78125 -7.171875 5.890625 -8.015625 4.3125 -8.015625 L 1 -8.015625 L 1 0 L 2.03125 0 Z M 2.03125 -4.296875 L 2.03125 -7.109375 L 4.15625 -7.109375 C 5.140625 -7.109375 5.71875 -6.59375 5.71875 -5.703125 C 5.71875 -4.828125 5.140625 -4.296875 4.15625 -4.296875 Z M 2.03125 -4.296875 "/>
</g>
<g id="glyph-15-9">
<path d="M 5.890625 -0.53125 C 5.78125 -0.515625 5.734375 -0.515625 5.6875 -0.515625 C 5.375 -0.515625 5.1875 -0.6875 5.1875 -0.96875 L 5.1875 -4.359375 C 5.1875 -5.375 4.4375 -5.921875 3.03125 -5.921875 C 2.171875 -5.921875 1.5 -5.6875 1.109375 -5.265625 C 0.84375 -4.96875 0.734375 -4.625 0.71875 -4.0625 L 1.640625 -4.0625 C 1.71875 -4.765625 2.140625 -5.078125 2.984375 -5.078125 C 3.828125 -5.078125 4.28125 -4.78125 4.28125 -4.21875 L 4.28125 -3.984375 C 4.265625 -3.59375 4.0625 -3.4375 3.328125 -3.34375 C 2.03125 -3.171875 1.828125 -3.140625 1.46875 -2.984375 C 0.796875 -2.703125 0.46875 -2.203125 0.46875 -1.453125 C 0.46875 -0.40625 1.1875 0.25 2.359375 0.25 C 3.078125 0.25 3.65625 0 4.3125 -0.59375 C 4.375 0 4.65625 0.25 5.265625 0.25 C 5.453125 0.25 5.578125 0.234375 5.890625 0.15625 Z M 4.28125 -1.8125 C 4.28125 -1.5 4.1875 -1.3125 3.921875 -1.0625 C 3.546875 -0.71875 3.09375 -0.546875 2.546875 -0.546875 C 1.84375 -0.546875 1.421875 -0.890625 1.421875 -1.46875 C 1.421875 -2.078125 1.8125 -2.390625 2.8125 -2.53125 C 3.78125 -2.65625 3.96875 -2.703125 4.28125 -2.84375 Z M 4.28125 -1.8125 "/>
</g>
<g id="glyph-15-10">
<path d="M 0.765625 -5.765625 L 0.765625 0 L 1.6875 0 L 1.6875 -3.171875 C 1.6875 -4.359375 2.3125 -5.125 3.25 -5.125 C 3.984375 -5.125 4.4375 -4.6875 4.4375 -4 L 4.4375 0 L 5.359375 0 L 5.359375 -4.359375 C 5.359375 -5.3125 4.640625 -5.921875 3.53125 -5.921875 C 2.671875 -5.921875 2.125 -5.59375 1.609375 -4.796875 L 1.609375 -5.765625 Z M 0.765625 -5.765625 "/>
</g>
</g>
</defs>
<rect x="-64.8" y="-37.4" width="777.6" height="448.8" fill="rgb(100%, 100%, 100%)" fill-opacity="1"/>
<path fill-rule="nonzero" fill="rgb(97.254902%, 98.039216%, 98.823529%)" fill-opacity="1" stroke-width="1.35" stroke-linecap="round" stroke-linejoin="round" stroke="rgb(14.901961%, 19.607843%, 21.960784%)" stroke-opacity="1" stroke-miterlimit="10" d="M 17.148438 108.460938 L 177.25 108.460938 L 177.082031 108.457031 L 177.757812 108.429688 L 178.417969 108.292969 L 179.046875 108.054688 L 179.628906 107.71875 L 180.152344 107.292969 L 180.601562 106.789062 L 180.960938 106.21875 L 181.222656 105.597656 L 181.386719 104.941406 L 181.441406 104.269531 L 181.441406 52.808594 L 181.386719 52.136719 L 181.222656 51.480469 L 180.960938 50.863281 L 180.601562 50.292969 L 180.152344 49.789062 L 179.628906 49.363281 L 179.046875 49.023438 L 178.417969 48.785156 L 177.757812 48.652344 L 177.25 48.621094 L 17.148438 48.621094 L 17.652344 48.652344 L 16.980469 48.625 L 16.3125 48.703125 L 15.664062 48.890625 L 15.054688 49.179688 L 14.5 49.5625 L 14.011719 50.03125 L 13.609375 50.570312 L 13.296875 51.167969 L 13.082031 51.804688 L 12.972656 52.472656 L 12.960938 52.808594 L 12.960938 104.269531 L 12.972656 103.933594 L 12.972656 104.609375 L 13.082031 105.273438 L 13.296875 105.914062 L 13.609375 106.511719 L 14.011719 107.050781 L 14.5 107.515625 L 15.054688 107.898438 L 15.664062 108.1875 L 16.3125 108.375 L 16.980469 108.457031 Z M 17.148438 108.460938 "/>
<g fill="rgb(14.901961%, 19.607843%, 21.960784%)" fill-opacity="1">
<use xlink:href="#glyph-0-0" x="87.300781" y="72.490234"/>
</g>
<g fill="rgb(14.901961%, 19.607843%, 21.960784%)" fill-opacity="1">
<use xlink:href="#glyph-1-0" x="100.101562" y="76.453125"/>
</g>
<g fill="rgb(39.215686%, 45.490196%, 54.509804%)" fill-opacity="1">
<use xlink:href="#glyph-2-0" x="66.699219" y="95.054688"/>
<use xlink:href="#glyph-2-1" x="72.699219" y="95.054688"/>
<use xlink:href="#glyph-2-2" x="77.699219" y="95.054688"/>
<use xlink:href="#glyph-2-3" x="80.699219" y="95.054688"/>
<use xlink:href="#glyph-2-4" x="85.699219" y="95.054688"/>
<use xlink:href="#glyph-2-5" x="88.699219" y="95.054688"/>
<use xlink:href="#glyph-2-6" x="91.699219" y="95.054688"/>
<use xlink:href="#glyph-2-4" x="96.699219" y="95.054688"/>
<use xlink:href="#glyph-2-7" x="99.699219" y="95.054688"/>
<use xlink:href="#glyph-2-8" x="104.699219" y="95.054688"/>
<use xlink:href="#glyph-2-9" x="109.699219" y="95.054688"/>
<use xlink:href="#glyph-2-1" x="111.699219" y="95.054688"/>
<use xlink:href="#glyph-2-2" x="116.699219" y="95.054688"/>
<use xlink:href="#glyph-2-3" x="119.699219" y="95.054688"/>
<use xlink:href="#glyph-2-4" x="124.699219" y="95.054688"/>
</g>
<path fill-rule="nonzero" fill="rgb(97.254902%, 98.039216%, 98.823529%)" fill-opacity="1" stroke-width="1.35" stroke-linecap="round" stroke-linejoin="round" stroke="rgb(14.901961%, 19.607843%, 21.960784%)" stroke-opacity="1" stroke-miterlimit="10" d="M 17.148438 179.519531 L 177.25 179.519531 L 177.082031 179.515625 L 177.757812 179.488281 L 178.417969 179.355469 L 179.046875 179.117188 L 179.628906 178.777344 L 180.152344 178.351562 L 180.601562 177.847656 L 180.960938 177.277344 L 181.222656 176.65625 L 181.386719 176.003906 L 181.441406 175.332031 L 181.441406 123.867188 L 181.386719 123.195312 L 181.222656 122.542969 L 180.960938 121.921875 L 180.601562 121.351562 L 180.152344 120.847656 L 179.628906 120.421875 L 179.046875 120.085938 L 178.417969 119.84375 L 177.757812 119.710938 L 177.25 119.679688 L 17.148438 119.679688 L 17.652344 119.710938 L 16.980469 119.683594 L 16.3125 119.765625 L 15.664062 119.953125 L 15.054688 120.242188 L 14.5 120.625 L 14.011719 121.089844 L 13.609375 121.628906 L 13.296875 122.226562 L 13.082031 122.867188 L 12.972656 123.53125 L 12.960938 123.867188 L 12.960938 175.332031 L 12.972656 174.996094 L 12.972656 175.667969 L 13.082031 176.332031 L 13.296875 176.972656 L 13.609375 177.570312 L 14.011719 178.109375 L 14.5 178.574219 L 15.054688 178.957031 L 15.664062 179.246094 L 16.3125 179.433594 L 16.980469 179.515625 Z M 17.148438 179.519531 "/>
<g fill="rgb(14.901961%, 19.607843%, 21.960784%)" fill-opacity="1">
<use xlink:href="#glyph-0-0" x="86.300781" y="143.548828"/>
</g>
<g fill="rgb(14.901961%, 19.607843%, 21.960784%)" fill-opacity="1">
<use xlink:href="#glyph-1-1" x="99.101562" y="147.515625"/>
</g>
<g fill="rgb(39.215686%, 45.490196%, 54.509804%)" fill-opacity="1">
<use xlink:href="#glyph-2-10" x="62.699219" y="166.117188"/>
<use xlink:href="#glyph-2-11" x="68.699219" y="166.117188"/>
<use xlink:href="#glyph-2-4" x="73.699219" y="166.117188"/>
<use xlink:href="#glyph-2-2" x="76.699219" y="166.117188"/>
<use xlink:href="#glyph-2-12" x="79.699219" y="166.117188"/>
<use xlink:href="#glyph-2-7" x="84.699219" y="166.117188"/>
<use xlink:href="#glyph-2-4" x="89.699219" y="166.117188"/>
<use xlink:href="#glyph-2-5" x="92.699219" y="166.117188"/>
<use xlink:href="#glyph-2-6" x="95.699219" y="166.117188"/>
<use xlink:href="#glyph-2-4" x="100.699219" y="166.117188"/>
<use xlink:href="#glyph-2-7" x="103.699219" y="166.117188"/>
<use xlink:href="#glyph-2-8" x="108.699219" y="166.117188"/>
<use xlink:href="#glyph-2-9" x="113.699219" y="166.117188"/>
<use xlink:href="#glyph-2-1" x="115.699219" y="166.117188"/>
<use xlink:href="#glyph-2-2" x="120.699219" y="166.117188"/>
<use xlink:href="#glyph-2-3" x="123.699219" y="166.117188"/>
<use xlink:href="#glyph-2-4" x="128.699219" y="166.117188"/>
</g>
<path fill-rule="nonzero" fill="rgb(97.254902%, 98.039216%, 98.823529%)" fill-opacity="1" stroke-width="1.35" stroke-linecap="round" stroke-linejoin="round" stroke="rgb(14.901961%, 19.607843%, 21.960784%)" stroke-opacity="1" stroke-miterlimit="10" d="M 17.148438 254.320312 L 177.25 254.320312 L 177.082031 254.316406 L 177.757812 254.289062 L 178.417969 254.15625 L 179.046875 253.914062 L 179.628906 253.578125 L 180.152344 253.152344 L 180.601562 252.648438 L 180.960938 252.078125 L 181.222656 251.457031 L 181.386719 250.804688 L 181.441406 250.132812 L 181.441406 198.667969 L 181.386719 197.996094 L 181.222656 197.34375 L 180.960938 196.722656 L 180.601562 196.152344 L 180.152344 195.648438 L 179.628906 195.222656 L 179.046875 194.882812 L 178.417969 194.644531 L 177.757812 194.511719 L 177.25 194.480469 L 17.148438 194.480469 L 17.652344 194.511719 L 16.980469 194.484375 L 16.3125 194.566406 L 15.664062 194.753906 L 15.054688 195.042969 L 14.5 195.425781 L 14.011719 195.890625 L 13.609375 196.429688 L 13.296875 197.027344 L 13.082031 197.667969 L 12.972656 198.332031 L 12.960938 198.667969 L 12.960938 250.132812 L 12.972656 249.792969 L 12.972656 250.46875 L 13.082031 251.132812 L 13.296875 251.773438 L 13.609375 252.371094 L 14.011719 252.910156 L 14.5 253.375 L 15.054688 253.757812 L 15.664062 254.046875 L 16.3125 254.234375 L 16.980469 254.316406 Z M 17.148438 254.320312 "/>
<g fill="rgb(14.901961%, 19.607843%, 21.960784%)" fill-opacity="1">
<use xlink:href="#glyph-0-0" x="86.300781" y="218.349609"/>
</g>
<g fill="rgb(14.901961%, 19.607843%, 21.960784%)" fill-opacity="1">
<use xlink:href="#glyph-1-1" x="99.101562" y="222.3125"/>
</g>
<g fill="rgb(39.215686%, 45.490196%, 54.509804%)" fill-opacity="1">
<use xlink:href="#glyph-2-0" x="66.699219" y="240.914062"/>
<use xlink:href="#glyph-2-1" x="72.699219" y="240.914062"/>
<use xlink:href="#glyph-2-2" x="77.699219" y="240.914062"/>
<use xlink:href="#glyph-2-3" x="80.699219" y="240.914062"/>
<use xlink:href="#glyph-2-4" x="85.699219" y="240.914062"/>
<use xlink:href="#glyph-2-5" x="88.699219" y="240.914062"/>
<use xlink:href="#glyph-2-6" x="91.699219" y="240.914062"/>
<use xlink:href="#glyph-2-4" x="96.699219" y="240.914062"/>
<use xlink:href="#glyph-2-7" x="99.699219" y="240.914062"/>
<use xlink:href="#glyph-2-8" x="104.699219" y="240.914062"/>
<use xlink:href="#glyph-2-9" x="109.699219" y="240.914062"/>
<use xlink:href="#glyph-2-1" x="111.699219" y="240.914062"/>
<use xlink:href="#glyph-2-2" x="116.699219" y="240.914062"/>
<use xlink:href="#glyph-2-3" x="119.699219" y="240.914062"/>
<use xlink:href="#glyph-2-4" x="124.699219" y="240.914062"/>
</g>
<path fill-rule="nonzero" fill="rgb(97.254902%, 98.039216%, 98.823529%)" fill-opacity="1" stroke-width="1.35" stroke-linecap="round" stroke-linejoin="round" stroke="rgb(14.901961%, 19.607843%, 21.960784%)" stroke-opacity="1" stroke-miterlimit="10" d="M 17.148438 325.378906 L 177.25 325.378906 L 177.082031 325.375 L 177.757812 325.347656 L 178.417969 325.214844 L 179.046875 324.976562 L 179.628906 324.636719 L 180.152344 324.210938 L 180.601562 323.707031 L 180.960938 323.136719 L 181.222656 322.519531 L 181.386719 321.863281 L 181.441406 321.191406 L 181.441406 269.730469 L 181.386719 269.058594 L 181.222656 268.402344 L 180.960938 267.78125 L 180.601562 267.210938 L 180.152344 266.707031 L 179.628906 266.28125 L 179.046875 265.945312 L 178.417969 265.707031 L 177.757812 265.570312 L 177.25 265.539062 L 17.148438 265.539062 L 17.652344 265.570312 L 16.980469 265.542969 L 16.3125 265.625 L 15.664062 265.8125 L 15.054688 266.101562 L 14.5 266.484375 L 14.011719 266.949219 L 13.609375 267.488281 L 13.296875 268.085938 L 13.082031 268.726562 L 12.972656 269.390625 L 12.960938 269.730469 L 12.960938 321.191406 L 12.972656 320.855469 L 12.972656 321.527344 L 13.082031 322.195312 L 13.296875 322.832031 L 13.609375 323.429688 L 14.011719 323.96875 L 14.5 324.4375 L 15.054688 324.820312 L 15.664062 325.109375 L 16.3125 325.296875 L 16.980469 325.375 Z M 17.148438 325.378906 "/>
<g fill="rgb(14.901961%, 19.607843%, 21.960784%)" fill-opacity="1">
<use xlink:href="#glyph-0-0" x="87.300781" y="289.412109"/>
</g>
<g fill="rgb(14.901961%, 19.607843%, 21.960784%)" fill-opacity="1">
<use xlink:href="#glyph-1-0" x="100.101562" y="293.375"/>
</g>
<g fill="rgb(39.215686%, 45.490196%, 54.509804%)" fill-opacity="1">
<use xlink:href="#glyph-2-10" x="62.699219" y="311.976562"/>
<use xlink:href="#glyph-2-11" x="68.699219" y="311.976562"/>
<use xlink:href="#glyph-2-4" x="73.699219" y="311.976562"/>
<use xlink:href="#glyph-2-2" x="76.699219" y="311.976562"/>
<use xlink:href="#glyph-2-12" x="79.699219" y="311.976562"/>
<use xlink:href="#glyph-2-7" x="84.699219" y="311.976562"/>
<use xlink:href="#glyph-2-4" x="89.699219" y="311.976562"/>
<use xlink:href="#glyph-2-5" x="92.699219" y="311.976562"/>
<use xlink:href="#glyph-2-6" x="95.699219" y="311.976562"/>
<use xlink:href="#glyph-2-4" x="100.699219" y="311.976562"/>
<use xlink:href="#glyph-2-7" x="103.699219" y="311.976562"/>
<use xlink:href="#glyph-2-8" x="108.699219" y="311.976562"/>
<use xlink:href="#glyph-2-9" x="113.699219" y="311.976562"/>
<use xlink:href="#glyph-2-1" x="115.699219" y="311.976562"/>
<use xlink:href="#glyph-2-2" x="120.699219" y="311.976562"/>
<use xlink:href="#glyph-2-3" x="123.699219" y="311.976562"/>
<use xlink:href="#glyph-2-4" x="128.699219" y="311.976562"/>
</g>
<path fill-rule="nonzero" fill="rgb(97.254902%, 98.039216%, 98.823529%)" fill-opacity="1" stroke-width="1.35" stroke-linecap="round" stroke-linejoin="round" stroke="rgb(14.901961%, 19.607843%, 21.960784%)" stroke-opacity="1" stroke-miterlimit="10" d="M 354.109375 143.988281 L 501.25 143.988281 L 501.082031 143.988281 L 501.757812 143.960938 L 502.417969 143.824219 L 503.046875 143.585938 L 503.628906 143.25 L 504.152344 142.820312 L 504.601562 142.316406 L 504.960938 141.746094 L 505.222656 141.128906 L 505.386719 140.472656 L 505.441406 139.800781 L 505.441406 88.339844 L 505.386719 87.667969 L 505.222656 87.011719 L 504.960938 86.390625 L 504.601562 85.824219 L 504.152344 85.316406 L 503.628906 84.890625 L 503.046875 84.554688 L 502.417969 84.316406 L 501.757812 84.179688 L 501.25 84.148438 L 354.109375 84.148438 L 354.613281 84.179688 L 353.941406 84.152344 L 353.269531 84.234375 L 352.625 84.421875 L 352.015625 84.710938 L 351.460938 85.09375 L 350.972656 85.5625 L 350.570312 86.101562 L 350.253906 86.695312 L 350.042969 87.335938 L 349.933594 88 L 349.921875 88.339844 L 349.921875 139.800781 L 349.933594 139.464844 L 349.933594 140.136719 L 350.042969 140.804688 L 350.253906 141.441406 L 350.570312 142.039062 L 350.972656 142.578125 L 351.460938 143.046875 L 352.015625 143.429688 L 352.625 143.71875 L 353.269531 143.90625 L 353.941406 143.988281 Z M 354.109375 143.988281 "/>
<g fill="rgb(14.901961%, 19.607843%, 21.960784%)" fill-opacity="1">
<use xlink:href="#glyph-0-1" x="417.78125" y="108.021484"/>
</g>
<g fill="rgb(14.901961%, 19.607843%, 21.960784%)" fill-opacity="1">
<use xlink:href="#glyph-1-0" x="430.578125" y="111.984375"/>
</g>
<g fill="rgb(39.215686%, 45.490196%, 54.509804%)" fill-opacity="1">
<use xlink:href="#glyph-2-13" x="408.679688" y="130.585938"/>
<use xlink:href="#glyph-2-14" x="415.679688" y="130.585938"/>
<use xlink:href="#glyph-2-2" x="420.679688" y="130.585938"/>
<use xlink:href="#glyph-2-1" x="423.679688" y="130.585938"/>
<use xlink:href="#glyph-2-3" x="428.679688" y="130.585938"/>
<use xlink:href="#glyph-2-15" x="433.679688" y="130.585938"/>
<use xlink:href="#glyph-2-7" x="441.679688" y="130.585938"/>
</g>
<path fill-rule="nonzero" fill="rgb(97.254902%, 98.039216%, 98.823529%)" fill-opacity="1" stroke-width="1.35" stroke-linecap="round" stroke-linejoin="round" stroke="rgb(14.901961%, 19.607843%, 21.960784%)" stroke-opacity="1" stroke-miterlimit="10" d="M 354.109375 289.851562 L 501.25 289.851562 L 501.082031 289.847656 L 501.757812 289.820312 L 502.417969 289.683594 L 503.046875 289.445312 L 503.628906 289.109375 L 504.152344 288.683594 L 504.601562 288.175781 L 504.960938 287.609375 L 505.222656 286.988281 L 505.386719 286.332031 L 505.441406 285.660156 L 505.441406 234.199219 L 505.386719 233.527344 L 505.222656 232.871094 L 504.960938 232.253906 L 504.601562 231.683594 L 504.152344 231.179688 L 503.628906 230.75 L 503.046875 230.414062 L 502.417969 230.175781 L 501.757812 230.039062 L 501.25 230.011719 L 354.109375 230.011719 L 354.613281 230.039062 L 353.941406 230.011719 L 353.269531 230.09375 L 352.625 230.28125 L 352.015625 230.570312 L 351.460938 230.953125 L 350.972656 231.421875 L 350.570312 231.960938 L 350.253906 232.558594 L 350.042969 233.195312 L 349.933594 233.863281 L 349.921875 234.199219 L 349.921875 285.660156 L 349.933594 285.324219 L 349.933594 286 L 350.042969 286.664062 L 350.253906 287.304688 L 350.570312 287.898438 L 350.972656 288.4375 L 351.460938 288.90625 L 352.015625 289.289062 L 352.625 289.578125 L 353.269531 289.765625 L 353.941406 289.847656 Z M 354.109375 289.851562 "/>
<g fill="rgb(14.901961%, 19.607843%, 21.960784%)" fill-opacity="1">
<use xlink:href="#glyph-0-1" x="416.78125" y="253.880859"/>
</g>
<g fill="rgb(14.901961%, 19.607843%, 21.960784%)" fill-opacity="1">
<use xlink:href="#glyph-1-1" x="429.578125" y="257.84375"/>
</g>
<g fill="rgb(39.215686%, 45.490196%, 54.509804%)" fill-opacity="1">
<use xlink:href="#glyph-2-13" x="408.679688" y="276.445312"/>
<use xlink:href="#glyph-2-14" x="415.679688" y="276.445312"/>
<use xlink:href="#glyph-2-2" x="420.679688" y="276.445312"/>
<use xlink:href="#glyph-2-1" x="423.679688" y="276.445312"/>
<use xlink:href="#glyph-2-3" x="428.679688" y="276.445312"/>
<use xlink:href="#glyph-2-15" x="433.679688" y="276.445312"/>
<use xlink:href="#glyph-2-7" x="441.679688" y="276.445312"/>
</g>
<path fill-rule="nonzero" fill="rgb(100%, 100%, 100%)" fill-opacity="1" stroke-width="1.35" stroke-linecap="round" stroke-linejoin="round" stroke="rgb(14.901961%, 19.607843%, 21.960784%)" stroke-opacity="1" stroke-miterlimit="10" d="M 607.257812 114.070312 C 607.257812 123.777344 599.386719 131.648438 589.679688 131.648438 C 579.972656 131.648438 572.101562 123.777344 572.101562 114.070312 C 572.101562 104.363281 579.972656 96.492188 589.679688 96.492188 C 599.386719 96.492188 607.257812 104.363281 607.257812 114.070312 "/>
<g fill="rgb(14.901961%, 19.607843%, 21.960784%)" fill-opacity="1">
<use xlink:href="#glyph-3-0" x="582.503906" y="116.46875"/>
</g>
<g fill="rgb(14.901961%, 19.607843%, 21.960784%)" fill-opacity="1">
<use xlink:href="#glyph-4-0" x="590.855469" y="119.826172"/>
</g>
<path fill-rule="nonzero" fill="rgb(100%, 100%, 100%)" fill-opacity="1" stroke-width="1.35" stroke-linecap="round" stroke-linejoin="round" stroke="rgb(14.901961%, 19.607843%, 21.960784%)" stroke-opacity="1" stroke-miterlimit="10" d="M 607.257812 259.929688 C 607.257812 269.636719 599.386719 277.507812 589.679688 277.507812 C 579.972656 277.507812 572.101562 269.636719 572.101562 259.929688 C 572.101562 250.222656 579.972656 242.351562 589.679688 242.351562 C 599.386719 242.351562 607.257812 250.222656 607.257812 259.929688 "/>
<g fill="rgb(14.901961%, 19.607843%, 21.960784%)" fill-opacity="1">
<use xlink:href="#glyph-3-0" x="581.003906" y="262.328125"/>
</g>
<g fill="rgb(14.901961%, 19.607843%, 21.960784%)" fill-opacity="1">
<use xlink:href="#glyph-4-1" x="589.355469" y="265.685547"/>
</g>
<path fill-rule="nonzero" fill="rgb(100%, 100%, 100%)" fill-opacity="1" stroke-width="0.75" stroke-linecap="round" stroke-linejoin="round" stroke="rgb(39.215686%, 45.490196%, 54.509804%)" stroke-opacity="1" stroke-miterlimit="10" d="M 398.96875 84.148438 L 456.390625 84.148438 L 456.375 84.148438 L 456.445312 84.148438 L 456.515625 84.132812 L 456.582031 84.105469 L 456.644531 84.070312 L 456.703125 84.023438 L 456.75 83.972656 L 456.789062 83.910156 L 456.816406 83.84375 L 456.835938 83.773438 L 456.839844 83.703125 L 456.839844 62.160156 L 456.835938 62.085938 L 456.816406 62.015625 L 456.789062 61.949219 L 456.75 61.890625 L 456.703125 61.835938 L 456.644531 61.789062 L 456.582031 61.753906 L 456.515625 61.726562 L 456.445312 61.714844 L 456.390625 61.710938 L 398.96875 61.710938 L 399.023438 61.714844 L 398.949219 61.710938 L 398.878906 61.71875 L 398.808594 61.738281 L 398.746094 61.769531 L 398.683594 61.8125 L 398.632812 61.859375 L 398.589844 61.917969 L 398.554688 61.984375 L 398.53125 62.050781 L 398.519531 62.121094 L 398.519531 83.703125 L 398.519531 83.664062 L 398.519531 83.738281 L 398.53125 83.808594 L 398.554688 83.878906 L 398.589844 83.941406 L 398.632812 84 L 398.683594 84.050781 L 398.746094 84.089844 L 398.808594 84.121094 L 398.878906 84.140625 L 398.949219 84.148438 Z M 398.96875 84.148438 "/>
<g fill="rgb(39.215686%, 45.490196%, 54.509804%)" fill-opacity="1">
<use xlink:href="#glyph-5-0" x="416.429688" y="75.129883"/>
</g>
<g fill="rgb(39.215686%, 45.490196%, 54.509804%)" fill-opacity="1">
<use xlink:href="#glyph-6-0" x="424.929688" y="78.0625"/>
</g>
<g fill="rgb(39.215686%, 45.490196%, 54.509804%)" fill-opacity="1">
<use xlink:href="#glyph-6-1" x="429.929688" y="78.0625"/>
</g>
<g fill="rgb(39.215686%, 45.490196%, 54.509804%)" fill-opacity="1">
<use xlink:href="#glyph-6-2" x="432.929688" y="78.0625"/>
</g>
<path fill-rule="nonzero" fill="rgb(100%, 100%, 100%)" fill-opacity="1" stroke-width="0.75" stroke-linecap="round" stroke-linejoin="round" stroke="rgb(39.215686%, 45.490196%, 54.509804%)" stroke-opacity="1" stroke-miterlimit="10" d="M 398.96875 312.289062 L 456.390625 312.289062 L 456.375 312.289062 L 456.445312 312.285156 L 456.515625 312.273438 L 456.582031 312.246094 L 456.644531 312.210938 L 456.703125 312.164062 L 456.75 312.109375 L 456.789062 312.050781 L 456.816406 311.984375 L 456.835938 311.914062 L 456.839844 311.839844 L 456.839844 290.296875 L 456.835938 290.226562 L 456.816406 290.15625 L 456.789062 290.089844 L 456.75 290.027344 L 456.703125 289.976562 L 456.644531 289.929688 L 456.582031 289.894531 L 456.515625 289.867188 L 456.445312 289.851562 L 398.96875 289.851562 L 399.023438 289.851562 L 398.949219 289.851562 L 398.878906 289.859375 L 398.808594 289.878906 L 398.746094 289.910156 L 398.683594 289.949219 L 398.632812 290 L 398.589844 290.058594 L 398.554688 290.121094 L 398.53125 290.191406 L 398.519531 290.261719 L 398.519531 311.839844 L 398.519531 311.804688 L 398.519531 311.878906 L 398.53125 311.949219 L 398.554688 312.015625 L 398.589844 312.082031 L 398.632812 312.140625 L 398.683594 312.1875 L 398.746094 312.230469 L 398.808594 312.261719 L 398.878906 312.28125 L 398.949219 312.289062 Z M 398.96875 312.289062 "/>
<g fill="rgb(39.215686%, 45.490196%, 54.509804%)" fill-opacity="1">
<use xlink:href="#glyph-5-0" x="415.429688" y="303.270508"/>
</g>
<g fill="rgb(39.215686%, 45.490196%, 54.509804%)" fill-opacity="1">
<use xlink:href="#glyph-6-0" x="423.929688" y="306.203125"/>
</g>
<g fill="rgb(39.215686%, 45.490196%, 54.509804%)" fill-opacity="1">
<use xlink:href="#glyph-6-1" x="428.929688" y="306.203125"/>
</g>
<g fill="rgb(39.215686%, 45.490196%, 54.509804%)" fill-opacity="1">
<use xlink:href="#glyph-6-3" x="431.929688" y="306.203125"/>
</g>
<path fill="none" stroke-width="1.65" stroke-linecap="round" stroke-linejoin="round" stroke="rgb(9.019608%, 41.176471%, 66.666667%)" stroke-opacity="1" stroke-miterlimit="10" d="M 181.441406 78.539062 L 349.921875 106.589844 "/>
<path fill-rule="nonzero" fill="rgb(9.019608%, 41.176471%, 66.666667%)" fill-opacity="1" stroke-width="1.65" stroke-linecap="round" stroke-linejoin="round" stroke="rgb(9.019608%, 41.176471%, 66.666667%)" stroke-opacity="1" stroke-miterlimit="10" d="M 339.679688 110.027344 L 349.921875 106.589844 L 341.347656 100.023438 Z M 339.679688 110.027344 "/>
<path fill="none" stroke-width="1.65" stroke-linecap="round" stroke-linejoin="round" stroke="rgb(48.235294%, 24.705882%, 63.137255%)" stroke-opacity="1" stroke-miterlimit="10" d="M 181.441406 149.601562 L 349.921875 121.550781 "/>
<path fill-rule="nonzero" fill="rgb(48.235294%, 24.705882%, 63.137255%)" fill-opacity="1" stroke-width="1.65" stroke-linecap="round" stroke-linejoin="round" stroke="rgb(48.235294%, 24.705882%, 63.137255%)" stroke-opacity="1" stroke-miterlimit="10" d="M 341.347656 128.117188 L 349.921875 121.550781 L 339.679688 118.113281 Z M 341.347656 128.117188 "/>
<path fill="none" stroke-width="1.65" stroke-linecap="round" stroke-linejoin="round" stroke="rgb(9.019608%, 41.176471%, 66.666667%)" stroke-opacity="1" stroke-miterlimit="10" d="M 181.441406 224.398438 L 349.921875 252.449219 "/>
<path fill-rule="nonzero" fill="rgb(9.019608%, 41.176471%, 66.666667%)" fill-opacity="1" stroke-width="1.65" stroke-linecap="round" stroke-linejoin="round" stroke="rgb(9.019608%, 41.176471%, 66.666667%)" stroke-opacity="1" stroke-miterlimit="10" d="M 339.679688 255.886719 L 349.921875 252.449219 L 341.347656 245.882812 Z M 339.679688 255.886719 "/>
<path fill="none" stroke-width="1.65" stroke-linecap="round" stroke-linejoin="round" stroke="rgb(48.235294%, 24.705882%, 63.137255%)" stroke-opacity="1" stroke-miterlimit="10" d="M 181.441406 295.460938 L 349.921875 267.410156 "/>
<path fill-rule="nonzero" fill="rgb(48.235294%, 24.705882%, 63.137255%)" fill-opacity="1" stroke-width="1.65" stroke-linecap="round" stroke-linejoin="round" stroke="rgb(48.235294%, 24.705882%, 63.137255%)" stroke-opacity="1" stroke-miterlimit="10" d="M 341.347656 273.976562 L 349.921875 267.410156 L 339.679688 263.972656 Z M 341.347656 273.976562 "/>
<path fill-rule="nonzero" fill="rgb(100%, 100%, 100%)" fill-opacity="1" d="M 248.367188 100.476562 L 270.035156 100.476562 L 270.023438 100.476562 L 270.070312 100.476562 L 270.121094 100.464844 L 270.167969 100.449219 L 270.210938 100.421875 L 270.25 100.390625 L 270.28125 100.355469 L 270.308594 100.3125 L 270.328125 100.265625 L 270.339844 100.21875 L 270.34375 100.167969 L 270.34375 85.335938 L 270.339844 85.285156 L 270.328125 85.238281 L 270.308594 85.191406 L 270.28125 85.148438 L 270.25 85.113281 L 270.210938 85.082031 L 270.167969 85.054688 L 270.121094 85.039062 L 270.070312 85.027344 L 248.367188 85.027344 L 248.402344 85.027344 L 248.351562 85.027344 L 248.304688 85.03125 L 248.257812 85.046875 L 248.210938 85.066406 L 248.171875 85.09375 L 248.132812 85.128906 L 248.105469 85.167969 L 248.082031 85.214844 L 248.066406 85.261719 L 248.058594 85.308594 L 248.058594 100.167969 L 248.058594 100.144531 L 248.058594 100.195312 L 248.066406 100.242188 L 248.082031 100.289062 L 248.105469 100.335938 L 248.132812 100.375 L 248.171875 100.410156 L 248.210938 100.4375 L 248.257812 100.457031 L 248.304688 100.472656 L 248.351562 100.476562 Z M 248.367188 100.476562 "/>
<g fill="rgb(9.019608%, 41.176471%, 66.666667%)" fill-opacity="1">
<use xlink:href="#glyph-7-0" x="251.601562" y="94.751953"/>
</g>
<g fill="rgb(9.019608%, 41.176471%, 66.666667%)" fill-opacity="1">
<use xlink:href="#glyph-8-0" x="260.800781" y="97.496094"/>
</g>
<path fill-rule="nonzero" fill="rgb(100%, 100%, 100%)" fill-opacity="1" d="M 248.367188 143.113281 L 270.035156 143.113281 L 270.023438 143.113281 L 270.070312 143.113281 L 270.121094 143.101562 L 270.167969 143.085938 L 270.210938 143.058594 L 270.25 143.027344 L 270.28125 142.992188 L 270.308594 142.949219 L 270.328125 142.902344 L 270.339844 142.855469 L 270.34375 142.804688 L 270.34375 127.972656 L 270.339844 127.921875 L 270.328125 127.875 L 270.308594 127.828125 L 270.28125 127.785156 L 270.25 127.75 L 270.210938 127.714844 L 270.167969 127.691406 L 270.121094 127.675781 L 270.070312 127.664062 L 270.035156 127.660156 L 248.367188 127.660156 L 248.402344 127.664062 L 248.351562 127.664062 L 248.304688 127.667969 L 248.257812 127.683594 L 248.210938 127.703125 L 248.171875 127.730469 L 248.132812 127.765625 L 248.105469 127.804688 L 248.082031 127.851562 L 248.066406 127.898438 L 248.058594 127.945312 L 248.058594 142.804688 L 248.058594 142.78125 L 248.058594 142.828125 L 248.066406 142.878906 L 248.082031 142.925781 L 248.105469 142.96875 L 248.132812 143.011719 L 248.210938 143.074219 L 248.257812 143.09375 L 248.304688 143.109375 L 248.351562 143.113281 Z M 248.367188 143.113281 "/>
<g fill="rgb(48.235294%, 24.705882%, 63.137255%)" fill-opacity="1">
<use xlink:href="#glyph-7-1" x="251.601562" y="137.388672"/>
</g>
<g fill="rgb(48.235294%, 24.705882%, 63.137255%)" fill-opacity="1">
<use xlink:href="#glyph-8-0" x="260.800781" y="140.132812"/>
</g>
<path fill-rule="nonzero" fill="rgb(100%, 100%, 100%)" fill-opacity="1" d="M 247.367188 246.339844 L 271.035156 246.339844 L 271.023438 246.335938 L 271.070312 246.335938 L 271.121094 246.324219 L 271.167969 246.308594 L 271.210938 246.285156 L 271.25 246.25 L 271.28125 246.214844 L 271.308594 246.171875 L 271.328125 246.125 L 271.339844 246.078125 L 271.34375 246.027344 L 271.34375 231.195312 L 271.339844 231.144531 L 271.328125 231.097656 L 271.308594 231.050781 L 271.28125 231.007812 L 271.25 230.972656 L 271.210938 230.941406 L 271.167969 230.914062 L 271.121094 230.898438 L 271.070312 230.886719 L 247.367188 230.886719 L 247.402344 230.886719 L 247.351562 230.886719 L 247.304688 230.890625 L 247.257812 230.90625 L 247.210938 230.925781 L 247.132812 230.988281 L 247.105469 231.03125 L 247.082031 231.074219 L 247.066406 231.121094 L 247.058594 231.171875 L 247.058594 246.027344 L 247.058594 246.003906 L 247.058594 246.054688 L 247.066406 246.101562 L 247.082031 246.148438 L 247.105469 246.195312 L 247.132812 246.234375 L 247.171875 246.269531 L 247.210938 246.296875 L 247.257812 246.316406 L 247.304688 246.332031 L 247.351562 246.335938 Z M 247.367188 246.339844 "/>
<g fill="rgb(9.019608%, 41.176471%, 66.666667%)" fill-opacity="1">
<use xlink:href="#glyph-7-0" x="250.601562" y="240.611328"/>
</g>
<g fill="rgb(9.019608%, 41.176471%, 66.666667%)" fill-opacity="1">
<use xlink:href="#glyph-8-1" x="259.800781" y="243.355469"/>
</g>
<path fill-rule="nonzero" fill="rgb(100%, 100%, 100%)" fill-opacity="1" d="M 247.367188 288.972656 L 271.035156 288.972656 L 271.023438 288.972656 L 271.070312 288.972656 L 271.121094 288.960938 L 271.167969 288.945312 L 271.210938 288.917969 L 271.25 288.886719 L 271.28125 288.851562 L 271.308594 288.808594 L 271.328125 288.761719 L 271.339844 288.714844 L 271.34375 288.664062 L 271.34375 273.832031 L 271.339844 273.78125 L 271.328125 273.734375 L 271.308594 273.6875 L 271.28125 273.644531 L 271.25 273.609375 L 271.210938 273.578125 L 271.167969 273.550781 L 271.121094 273.535156 L 271.070312 273.523438 L 247.367188 273.523438 L 247.402344 273.523438 L 247.351562 273.523438 L 247.304688 273.527344 L 247.257812 273.542969 L 247.210938 273.5625 L 247.171875 273.589844 L 247.132812 273.625 L 247.105469 273.664062 L 247.082031 273.710938 L 247.066406 273.757812 L 247.058594 273.804688 L 247.058594 288.664062 L 247.058594 288.640625 L 247.058594 288.691406 L 247.066406 288.738281 L 247.082031 288.785156 L 247.105469 288.832031 L 247.132812 288.871094 L 247.171875 288.90625 L 247.210938 288.933594 L 247.257812 288.953125 L 247.304688 288.96875 L 247.351562 288.972656 Z M 247.367188 288.972656 "/>
<g fill="rgb(48.235294%, 24.705882%, 63.137255%)" fill-opacity="1">
<use xlink:href="#glyph-7-1" x="250.601562" y="283.248047"/>
</g>
<g fill="rgb(48.235294%, 24.705882%, 63.137255%)" fill-opacity="1">
<use xlink:href="#glyph-8-1" x="259.800781" y="285.992188"/>
</g>
<path fill="none" stroke-width="1.65" stroke-linecap="round" stroke-linejoin="round" stroke="rgb(39.215686%, 45.490196%, 54.509804%)" stroke-opacity="1" stroke-miterlimit="10" d="M 557.28125 114.070312 L 505.441406 114.070312 "/>
<path fill-rule="nonzero" fill="rgb(39.215686%, 45.490196%, 54.509804%)" fill-opacity="1" stroke-width="1.65" stroke-linecap="round" stroke-linejoin="round" stroke="rgb(39.215686%, 45.490196%, 54.509804%)" stroke-opacity="1" stroke-miterlimit="10" d="M 514.976562 109 L 505.441406 114.070312 L 514.976562 119.140625 Z M 514.976562 109 "/>
<path fill="none" stroke-width="1.65" stroke-linecap="round" stroke-linejoin="round" stroke="rgb(39.215686%, 45.490196%, 54.509804%)" stroke-opacity="1" stroke-miterlimit="10" d="M 557.28125 259.929688 L 505.441406 259.929688 "/>
<path fill-rule="nonzero" fill="rgb(39.215686%, 45.490196%, 54.509804%)" fill-opacity="1" stroke-width="1.65" stroke-linecap="round" stroke-linejoin="round" stroke="rgb(39.215686%, 45.490196%, 54.509804%)" stroke-opacity="1" stroke-miterlimit="10" d="M 514.976562 254.859375 L 505.441406 259.929688 L 514.976562 265 Z M 514.976562 254.859375 "/>
<path fill="none" stroke-width="1.35" stroke-linecap="round" stroke-linejoin="round" stroke="rgb(39.215686%, 45.490196%, 54.509804%)" stroke-opacity="1" stroke-miterlimit="10" d="M 616.246094 129.03125 L 616.351562 129.257812 L 616.886719 130.40625 L 617.738281 132.234375 L 618.570312 134.035156 L 619.296875 135.640625 L 619.949219 137.140625 L 620.082031 137.453125 L 620.691406 138.9375 L 621.25 140.34375 L 621.738281 141.621094 L 622.214844 142.882812 L 622.722656 144.277344 L 623.25 145.78125 L 623.359375 146.101562 L 623.863281 147.625 L 624.316406 149.070312 L 624.710938 150.378906 L 625.09375 151.671875 L 625.503906 153.097656 L 625.917969 154.636719 L 626.003906 154.964844 L 626.394531 156.523438 L 626.742188 157.996094 L 627.042969 159.332031 L 627.332031 160.648438 L 627.632812 162.097656 L 627.9375 163.664062 L 628 163.996094 L 628.277344 165.578125 L 628.515625 167.074219 L 628.71875 168.425781 L 628.910156 169.761719 L 629.109375 171.230469 L 629.296875 172.8125 L 629.335938 173.148438 L 629.496094 174.746094 L 629.628906 176.253906 L 629.730469 177.621094 L 629.828125 178.964844 L 629.917969 180.445312 L 629.992188 182.039062 L 630.003906 182.375 L 630.050781 183.980469 L 630.074219 185.492188 L 630.078125 186.863281 L 630.074219 188.210938 L 630.058594 189.691406 L 630.015625 191.289062 L 630.003906 191.625 L 629.933594 193.230469 L 629.847656 194.742188 L 629.75 196.105469 L 629.652344 197.449219 L 629.527344 198.925781 L 629.371094 200.515625 L 629.335938 200.851562 L 629.148438 202.445312 L 628.953125 203.945312 L 628.757812 205.300781 L 628.5625 206.632812 L 628.332031 208.097656 L 628.058594 209.671875 L 628 210.003906 L 627.699219 211.582031 L 627.390625 213.0625 L 627.101562 214.402344 L 626.808594 215.714844 L 626.472656 217.160156 L 626.089844 218.710938 L 626.003906 219.035156 L 625.589844 220.585938 L 625.175781 222.042969 L 624.789062 223.355469 L 624.402344 224.648438 L 623.960938 226.0625 L 623.46875 227.578125 L 623.359375 227.898438 L 622.832031 229.417969 L 622.316406 230.839844 L 621.835938 232.121094 L 621.355469 233.378906 L 620.816406 234.761719 L 620.210938 236.238281 L 620.082031 236.546875 L 619.4375 238.042969 L 618.730469 239.613281 L 617.917969 241.371094 L 617.050781 243.242188 L 616.425781 244.589844 L 616.25 244.96875 L 616.246094 244.96875 "/>
<path fill-rule="nonzero" fill="rgb(39.215686%, 45.490196%, 54.509804%)" fill-opacity="1" stroke-width="1.35" stroke-linecap="round" stroke-linejoin="round" stroke="rgb(39.215686%, 45.490196%, 54.509804%)" stroke-opacity="1" stroke-miterlimit="10" d="M 621.835938 133.570312 L 616.246094 129.03125 L 616.113281 136.230469 Z M 621.835938 133.570312 "/>
<path fill-rule="nonzero" fill="rgb(39.215686%, 45.490196%, 54.509804%)" fill-opacity="1" stroke-width="1.35" stroke-linecap="round" stroke-linejoin="round" stroke="rgb(39.215686%, 45.490196%, 54.509804%)" stroke-opacity="1" stroke-miterlimit="10" d="M 616.113281 237.769531 L 616.246094 244.96875 L 621.835938 240.429688 Z M 616.113281 237.769531 "/>
<path fill-rule="nonzero" fill="rgb(100%, 100%, 100%)" fill-opacity="1" d="M 567.101562 85.355469 L 612.261719 85.355469 L 612.25 85.355469 L 612.285156 85.355469 L 612.316406 85.347656 L 612.347656 85.335938 L 612.375 85.320312 L 612.402344 85.300781 L 612.421875 85.277344 L 612.441406 85.246094 L 612.453125 85.21875 L 612.460938 85.1875 L 612.464844 85.152344 L 612.464844 71.925781 L 612.460938 71.894531 L 612.453125 71.863281 L 612.441406 71.832031 L 612.421875 71.804688 L 612.402344 71.78125 L 612.375 71.757812 L 612.347656 71.742188 L 612.316406 71.730469 L 612.285156 71.722656 L 567.101562 71.722656 L 567.125 71.722656 L 567.089844 71.722656 L 567.058594 71.726562 L 567.027344 71.734375 L 566.996094 71.75 L 566.96875 71.769531 L 566.945312 71.792969 L 566.925781 71.816406 L 566.910156 71.847656 L 566.894531 71.910156 L 566.894531 85.152344 L 566.894531 85.136719 L 566.894531 85.167969 L 566.902344 85.203125 L 566.910156 85.234375 L 566.925781 85.261719 L 566.945312 85.289062 L 566.96875 85.3125 L 566.996094 85.328125 L 567.027344 85.34375 L 567.058594 85.351562 L 567.089844 85.355469 Z M 567.101562 85.355469 "/>
<g fill="rgb(39.215686%, 45.490196%, 54.509804%)" fill-opacity="1">
<use xlink:href="#glyph-4-2" x="569.730469" y="80.794922"/>
</g>
<g fill="rgb(39.215686%, 45.490196%, 54.509804%)" fill-opacity="1">
<use xlink:href="#glyph-4-3" x="576.730469" y="80.794922"/>
</g>
<g fill="rgb(39.215686%, 45.490196%, 54.509804%)" fill-opacity="1">
<use xlink:href="#glyph-9-0" x="587.230469" y="80.886719"/>
</g>
<g fill="rgb(39.215686%, 45.490196%, 54.509804%)" fill-opacity="1">
<use xlink:href="#glyph-10-0" x="598.730469" y="80.59082"/>
</g>
<g fill="rgb(39.215686%, 45.490196%, 54.509804%)" fill-opacity="1">
<use xlink:href="#glyph-11-0" x="605.628906" y="83.298828"/>
</g>
<path fill-rule="nonzero" fill="rgb(100%, 100%, 100%)" fill-opacity="1" d="M 566.101562 302.277344 L 613.261719 302.277344 L 613.25 302.277344 L 613.285156 302.277344 L 613.316406 302.269531 L 613.347656 302.257812 L 613.375 302.242188 L 613.402344 302.21875 L 613.421875 302.195312 L 613.441406 302.167969 L 613.453125 302.136719 L 613.460938 302.105469 L 613.464844 302.074219 L 613.464844 288.847656 L 613.460938 288.8125 L 613.453125 288.78125 L 613.441406 288.753906 L 613.421875 288.722656 L 613.402344 288.699219 L 613.375 288.679688 L 613.347656 288.664062 L 613.316406 288.652344 L 613.285156 288.644531 L 566.101562 288.644531 L 566.125 288.644531 L 566.089844 288.644531 L 566.058594 288.648438 L 566.027344 288.65625 L 565.996094 288.671875 L 565.96875 288.6875 L 565.945312 288.710938 L 565.925781 288.738281 L 565.910156 288.765625 L 565.902344 288.796875 L 565.894531 288.832031 L 565.894531 302.074219 L 565.894531 302.054688 L 565.894531 302.089844 L 565.910156 302.152344 L 565.925781 302.183594 L 565.945312 302.207031 L 565.96875 302.230469 L 565.996094 302.25 L 566.027344 302.265625 L 566.058594 302.273438 L 566.089844 302.277344 Z M 566.101562 302.277344 "/>
<g fill="rgb(39.215686%, 45.490196%, 54.509804%)" fill-opacity="1">
<use xlink:href="#glyph-4-2" x="568.730469" y="297.712891"/>
</g>
<g fill="rgb(39.215686%, 45.490196%, 54.509804%)" fill-opacity="1">
<use xlink:href="#glyph-4-3" x="575.730469" y="297.712891"/>
</g>
<g fill="rgb(39.215686%, 45.490196%, 54.509804%)" fill-opacity="1">
<use xlink:href="#glyph-9-0" x="586.230469" y="297.804688"/>
</g>
<g fill="rgb(39.215686%, 45.490196%, 54.509804%)" fill-opacity="1">
<use xlink:href="#glyph-10-0" x="597.730469" y="297.508789"/>
</g>
<g fill="rgb(39.215686%, 45.490196%, 54.509804%)" fill-opacity="1">
<use xlink:href="#glyph-11-1" x="604.628906" y="300.216797"/>
</g>
<path fill-rule="nonzero" fill="rgb(100%, 100%, 100%)" fill-opacity="1" d="M 607.234375 192.917969 L 630.445312 192.917969 L 630.441406 192.917969 L 630.46875 192.917969 L 630.496094 192.910156 L 630.523438 192.898438 L 630.546875 192.886719 L 630.570312 192.867188 L 630.589844 192.847656 L 630.605469 192.824219 L 630.617188 192.796875 L 630.621094 192.769531 L 630.625 192.738281 L 630.625 181.261719 L 630.621094 181.230469 L 630.617188 181.203125 L 630.605469 181.175781 L 630.589844 181.152344 L 630.570312 181.132812 L 630.546875 181.113281 L 630.523438 181.101562 L 630.496094 181.089844 L 630.46875 181.082031 L 607.234375 181.082031 L 607.253906 181.082031 L 607.226562 181.082031 L 607.199219 181.085938 L 607.171875 181.09375 L 607.144531 181.105469 L 607.121094 181.121094 L 607.101562 181.140625 L 607.082031 181.164062 L 607.058594 181.21875 L 607.054688 181.246094 L 607.054688 192.738281 L 607.054688 192.726562 L 607.054688 192.753906 L 607.058594 192.78125 L 607.082031 192.835938 L 607.101562 192.859375 L 607.121094 192.878906 L 607.144531 192.894531 L 607.171875 192.90625 L 607.199219 192.914062 L 607.226562 192.917969 Z M 607.234375 192.917969 "/>
<g fill="rgb(39.215686%, 45.490196%, 54.509804%)" fill-opacity="1">
<use xlink:href="#glyph-12-0" x="609.890625" y="188.400391"/>
</g>
<g fill="rgb(39.215686%, 45.490196%, 54.509804%)" fill-opacity="1">
<use xlink:href="#glyph-13-0" x="616.789062" y="190.213867"/>
</g>
<g fill="rgb(39.215686%, 45.490196%, 54.509804%)" fill-opacity="1">
<use xlink:href="#glyph-13-1" x="621.789062" y="190.213867"/>
</g>
<g fill="rgb(39.215686%, 45.490196%, 54.509804%)" fill-opacity="1">
<use xlink:href="#glyph-14-0" x="257" y="33.44043"/>
<use xlink:href="#glyph-14-1" x="264" y="33.44043"/>
<use xlink:href="#glyph-14-2" x="270" y="33.44043"/>
<use xlink:href="#glyph-14-3" x="280" y="33.44043"/>
<use xlink:href="#glyph-14-4" x="286" y="33.44043"/>
<use xlink:href="#glyph-14-1" x="289" y="33.44043"/>
<use xlink:href="#glyph-14-5" x="295" y="33.44043"/>
<use xlink:href="#glyph-14-6" x="298" y="33.44043"/>
<use xlink:href="#glyph-14-7" x="305" y="33.44043"/>
<use xlink:href="#glyph-14-8" x="312" y="33.44043"/>
<use xlink:href="#glyph-14-9" x="316" y="33.44043"/>
<use xlink:href="#glyph-14-6" x="322" y="33.44043"/>
<use xlink:href="#glyph-14-2" x="329" y="33.44043"/>
<use xlink:href="#glyph-14-1" x="339" y="33.44043"/>
<use xlink:href="#glyph-14-5" x="345" y="33.44043"/>
<use xlink:href="#glyph-14-2" x="348" y="33.44043"/>
<use xlink:href="#glyph-14-1" x="358" y="33.44043"/>
<use xlink:href="#glyph-14-2" x="364" y="33.44043"/>
<use xlink:href="#glyph-14-10" x="374" y="33.44043"/>
<use xlink:href="#glyph-14-1" x="381" y="33.44043"/>
<use xlink:href="#glyph-14-11" x="387" y="33.44043"/>
</g>
<g fill="rgb(39.215686%, 45.490196%, 54.509804%)" fill-opacity="1">
<use xlink:href="#glyph-14-12" x="264" y="341.987305"/>
<use xlink:href="#glyph-14-3" x="273" y="341.987305"/>
<use xlink:href="#glyph-14-4" x="279" y="341.987305"/>
<use xlink:href="#glyph-14-1" x="282" y="341.987305"/>
<use xlink:href="#glyph-14-5" x="288" y="341.987305"/>
<use xlink:href="#glyph-14-6" x="291" y="341.987305"/>
<use xlink:href="#glyph-14-7" x="298" y="341.987305"/>
<use xlink:href="#glyph-14-8" x="305" y="341.987305"/>
<use xlink:href="#glyph-14-9" x="309" y="341.987305"/>
<use xlink:href="#glyph-14-6" x="315" y="341.987305"/>
<use xlink:href="#glyph-14-2" x="322" y="341.987305"/>
<use xlink:href="#glyph-14-1" x="332" y="341.987305"/>
<use xlink:href="#glyph-14-5" x="338" y="341.987305"/>
<use xlink:href="#glyph-14-2" x="341" y="341.987305"/>
<use xlink:href="#glyph-14-1" x="351" y="341.987305"/>
<use xlink:href="#glyph-14-2" x="357" y="341.987305"/>
<use xlink:href="#glyph-14-10" x="367" y="341.987305"/>
<use xlink:href="#glyph-14-1" x="374" y="341.987305"/>
<use xlink:href="#glyph-14-11" x="380" y="341.987305"/>
</g>
<path fill="none" stroke-width="0.9" stroke-linecap="round" stroke-linejoin="round" stroke="rgb(39.215686%, 45.490196%, 54.509804%)" stroke-opacity="1" stroke-dasharray="3.6 3.6" stroke-miterlimit="10" d="M 25.921875 187 L 557.28125 187 "/>
<path fill="none" stroke-width="1.875" stroke-linecap="round" stroke-linejoin="round" stroke="rgb(9.019608%, 41.176471%, 66.666667%)" stroke-opacity="1" stroke-miterlimit="10" d="M 110.160156 366.519531 L 149.039062 366.519531 "/>
<g fill="rgb(14.901961%, 19.607843%, 21.960784%)" fill-opacity="1">
<use xlink:href="#glyph-15-0" x="163.160156" y="370.038086"/>
<use xlink:href="#glyph-15-1" x="170.160156" y="370.038086"/>
<use xlink:href="#glyph-15-2" x="176.160156" y="370.038086"/>
<use xlink:href="#glyph-15-3" x="179.160156" y="370.038086"/>
<use xlink:href="#glyph-15-4" x="185.160156" y="370.038086"/>
<use xlink:href="#glyph-15-5" x="189.160156" y="370.038086"/>
<use xlink:href="#glyph-15-6" x="192.160156" y="370.038086"/>
<use xlink:href="#glyph-15-7" x="198.160156" y="370.038086"/>
<use xlink:href="#glyph-15-6" x="204.160156" y="370.038086"/>
<use xlink:href="#glyph-15-1" x="210.160156" y="370.038086"/>
<use xlink:href="#glyph-15-2" x="216.160156" y="370.038086"/>
</g>
<path fill="none" stroke-width="1.875" stroke-linecap="round" stroke-linejoin="round" stroke="rgb(48.235294%, 24.705882%, 63.137255%)" stroke-opacity="1" stroke-miterlimit="10" d="M 285.121094 366.519531 L 324 366.519531 "/>
<g fill="rgb(14.901961%, 19.607843%, 21.960784%)" fill-opacity="1">
<use xlink:href="#glyph-15-8" x="339.601562" y="370.038086"/>
<use xlink:href="#glyph-15-9" x="346.601562" y="370.038086"/>
<use xlink:href="#glyph-15-4" x="352.601562" y="370.038086"/>
<use xlink:href="#glyph-15-2" x="356.601562" y="370.038086"/>
<use xlink:href="#glyph-15-10" x="359.601562" y="370.038086"/>
<use xlink:href="#glyph-15-6" x="365.601562" y="370.038086"/>
<use xlink:href="#glyph-15-4" x="371.601562" y="370.038086"/>
<use xlink:href="#glyph-15-5" x="375.601562" y="370.038086"/>
<use xlink:href="#glyph-15-6" x="378.601562" y="370.038086"/>
<use xlink:href="#glyph-15-7" x="384.601562" y="370.038086"/>
<use xlink:href="#glyph-15-6" x="390.601562" y="370.038086"/>
<use xlink:href="#glyph-15-1" x="396.601562" y="370.038086"/>
<use xlink:href="#glyph-15-2" x="402.601562" y="370.038086"/>
</g>
</svg>
