<?xml version="1.0" encoding="UTF-8"?>
<svg xmlns="http://www.w3.org/2000/svg" xmlns:xlink="http://www.w3.org/1999/xlink" width="648pt" height="345pt" viewBox="0 0 648 345">
<defs>
<g>
<g id="glyph-0-0">
<path d="M 9.421875 -7.484375 L 15.875 -14.578125 L 13.59375 -14.578125 L 8.640625 -8.875 L 6.140625 -14.578125 L 3.875 -14.578125 L 7.21875 -7.484375 L 0.4375 0 L 2.734375 0 L 8.015625 -6.078125 L 10.703125 0 L 13 0 Z M 9.421875 -7.484375 "/>
</g>
<g id="glyph-0-1">
<path d="M 8.953125 -5.71875 L 16.3125 -14.578125 L 14.09375 -14.578125 L 8.3125 -7.4375 L 5.59375 -14.578125 L 3.359375 -14.578125 L 7.078125 -5.71875 L 5.859375 0 L 7.734375 0 Z M 8.953125 -5.71875 "/>
</g>
<g id="glyph-1-0">
<path d="M 2.5625 -4.640625 L 7.4375 -4.640625 L 7.4375 -5.796875 L 2.5625 -5.796875 L 2.5625 -9.0625 L 8.109375 -9.0625 L 8.109375 -10.203125 L 1.265625 -10.203125 L 1.265625 0 L 2.5625 0 Z M 2.5625 -4.640625 "/>
</g>
<g id="glyph-1-1">
<path d="M 6.546875 0 L 9.421875 -8.546875 L 9.421875 0 L 10.65625 0 L 10.65625 -10.203125 L 8.84375 -10.203125 L 5.875 -1.3125 L 2.859375 -10.203125 L 1.046875 -10.203125 L 1.046875 0 L 2.28125 0 L 2.28125 -8.546875 L 5.1875 0 Z M 6.546875 0 "/>
</g>
<g id="glyph-2-0">
<path d="M 2.921875 -10.203125 L 0.75 0 L 1.8125 0 L 2.046875 -1.09375 C 2.484375 -0.078125 3.078125 0.328125 4.109375 0.328125 C 5.046875 0.328125 6.046875 -0.09375 6.671875 -0.765625 C 7.609375 -1.765625 8.234375 -3.359375 8.234375 -4.796875 C 8.234375 -5.921875 7.65625 -6.90625 6.78125 -7.328125 C 6.453125 -7.46875 6.125 -7.546875 5.75 -7.546875 C 5.1875 -7.546875 4.5625 -7.375 4.140625 -7.125 C 3.90625 -6.984375 3.71875 -6.8125 3.296875 -6.359375 L 4.109375 -10.203125 Z M 5.359375 -6.46875 C 6.03125 -6.46875 6.53125 -6.15625 6.796875 -5.59375 C 6.9375 -5.28125 7 -4.9375 7 -4.53125 C 7 -3 6.1875 -1.46875 5.09375 -0.953125 C 4.796875 -0.8125 4.515625 -0.75 4.140625 -0.75 C 3.5 -0.75 3 -1.0625 2.765625 -1.625 C 2.640625 -1.921875 2.59375 -2.234375 2.59375 -2.5625 C 2.59375 -4.1875 3.34375 -5.671875 4.4375 -6.265625 C 4.71875 -6.390625 5 -6.46875 5.359375 -6.46875 Z M 5.359375 -6.46875 "/>
</g>
<g id="glyph-2-1">
<path d="M 6.671875 -7.34375 C 6.265625 -7.484375 5.921875 -7.546875 5.484375 -7.546875 C 4.34375 -7.546875 3.25 -7.03125 2.546875 -6.125 C 1.828125 -5.234375 1.375 -3.8125 1.375 -2.546875 C 1.375 -1.4375 1.84375 -0.515625 2.625 -0.0625 C 3.078125 0.1875 3.625 0.328125 4.203125 0.328125 C 5.359375 0.328125 6.40625 -0.1875 7.140625 -1.09375 C 7.8125 -1.9375 8.296875 -3.421875 8.296875 -4.578125 C 8.296875 -5.28125 8.109375 -5.8125 7.65625 -6.296875 L 9.328125 -6.296875 L 9.546875 -7.34375 Z M 5.453125 -6.46875 C 6.15625 -6.46875 6.734375 -6.109375 6.9375 -5.53125 C 7.046875 -5.265625 7.078125 -5 7.078125 -4.65625 C 7.078125 -3.0625 6.34375 -1.546875 5.3125 -1.015625 C 4.96875 -0.84375 4.625 -0.75 4.234375 -0.75 C 3.546875 -0.75 3 -1.109375 2.765625 -1.6875 C 2.671875 -1.96875 2.625 -2.265625 2.625 -2.578125 C 2.625 -3.234375 2.765625 -3.953125 3.03125 -4.609375 C 3.359375 -5.375 3.8125 -5.890625 4.40625 -6.21875 C 4.75 -6.390625 5.0625 -6.46875 5.453125 -6.46875 Z M 5.453125 -6.46875 "/>
</g>
<g id="glyph-2-2">
<path d="M 0.1875 3.046875 L 1.359375 3.046875 L 2.171875 -0.765625 C 2.421875 -0.328125 2.671875 -0.078125 3.078125 0.078125 C 3.4375 0.234375 3.84375 0.328125 4.265625 0.328125 C 5.453125 0.328125 6.453125 -0.203125 7.171875 -1.140625 C 7.890625 -2.09375 8.3125 -3.375 8.3125 -4.625 C 8.3125 -5.75 7.875 -6.65625 7.078125 -7.140625 C 6.625 -7.421875 6.078125 -7.5625 5.484375 -7.5625 C 4.53125 -7.5625 3.59375 -7.171875 2.90625 -6.484375 C 2.21875 -5.78125 1.921875 -5.09375 1.546875 -3.40625 Z M 5.46875 -6.46875 C 6.171875 -6.46875 6.734375 -6.09375 6.9375 -5.5 C 7.03125 -5.234375 7.0625 -4.984375 7.0625 -4.640625 C 7.0625 -3.6875 6.765625 -2.625 6.25 -1.875 C 5.78125 -1.203125 5.015625 -0.765625 4.234375 -0.765625 C 3.625 -0.765625 3.109375 -1.09375 2.875 -1.609375 C 2.71875 -1.953125 2.65625 -2.21875 2.65625 -2.703125 C 2.65625 -3.203125 2.828125 -3.96875 3.046875 -4.5625 C 3.375 -5.375 3.765625 -5.859375 4.40625 -6.203125 C 4.75 -6.390625 5.0625 -6.46875 5.46875 -6.46875 Z M 5.46875 -6.46875 "/>
</g>
<g id="glyph-3-0">
<path d="M 2.6875 -7.078125 C 2.046875 -7.078125 1.453125 -6.796875 1.09375 -6.3125 C 0.640625 -5.6875 0.421875 -4.734375 0.421875 -3.421875 C 0.421875 -1.03125 1.203125 0.21875 2.6875 0.21875 C 4.15625 0.21875 4.96875 -1.03125 4.96875 -3.375 C 4.96875 -4.734375 4.75 -5.65625 4.296875 -6.3125 C 3.921875 -6.796875 3.34375 -7.078125 2.6875 -7.078125 Z M 2.6875 -6.3125 C 3.625 -6.3125 4.078125 -5.375 4.078125 -3.453125 C 4.078125 -1.4375 3.640625 -0.484375 2.671875 -0.484375 C 1.765625 -0.484375 1.296875 -1.46875 1.296875 -3.421875 C 1.296875 -5.375 1.765625 -6.3125 2.6875 -6.3125 Z M 2.6875 -6.3125 "/>
</g>
<g id="glyph-3-1">
<path d="M 0.859375 -1.015625 L 0.859375 0 L 1.4375 0 L 1.4375 0.171875 C 1.4375 0.859375 1.3125 1.046875 0.859375 1.0625 L 0.859375 1.4375 C 1.5 1.453125 1.875 0.984375 1.875 0.15625 L 1.875 -1.015625 Z M 0.859375 -1.015625 "/>
</g>
<g id="glyph-3-2">
<path d="M 1.796875 -3.25 L 5.203125 -3.25 L 5.203125 -4.0625 L 1.796875 -4.0625 L 1.796875 -6.34375 L 5.671875 -6.34375 L 5.671875 -7.140625 L 0.875 -7.140625 L 0.875 0 L 1.796875 0 Z M 1.796875 -3.25 "/>
</g>
<g id="glyph-3-3">
<path d="M 4.578125 0 L 6.59375 -5.984375 L 6.59375 0 L 7.453125 0 L 7.453125 -7.140625 L 6.1875 -7.140625 L 4.109375 -0.921875 L 2 -7.140625 L 0.734375 -7.140625 L 0.734375 0 L 1.59375 0 L 1.59375 -5.984375 L 3.625 0 Z M 4.578125 0 "/>
</g>
<g id="glyph-4-0">
<path d="M 5.875 -5.171875 C 4.328125 -5.171875 3.65625 -5.390625 3.4375 -5.984375 C 3.390625 -6.09375 3.359375 -6.21875 3.359375 -6.34375 C 3.359375 -7.171875 4.296875 -7.859375 5.4375 -7.859375 C 6.0625 -7.859375 6.65625 -7.609375 6.9375 -7.234375 C 7.109375 -7.015625 7.171875 -6.78125 7.203125 -6.265625 L 8.65625 -6.265625 C 8.625 -7.609375 8.140625 -8.390625 7.109375 -8.84375 C 6.609375 -9.0625 6.0625 -9.15625 5.515625 -9.15625 C 3.515625 -9.15625 1.90625 -7.890625 1.90625 -6.34375 C 1.90625 -5.6875 2.1875 -5.21875 2.921875 -4.6875 C 1.921875 -4.421875 1.3125 -3.9375 0.953125 -3.125 C 0.796875 -2.8125 0.734375 -2.46875 0.734375 -2.109375 C 0.734375 -1.15625 1.28125 -0.34375 2.140625 0.046875 C 2.671875 0.265625 3.265625 0.390625 3.875 0.390625 C 5.09375 0.390625 6.21875 -0.015625 7.03125 -0.765625 C 7.671875 -1.328125 7.984375 -1.890625 8.3125 -2.859375 L 6.734375 -2.859375 C 6.3125 -1.59375 5.359375 -0.921875 4.015625 -0.921875 C 2.859375 -0.921875 2.203125 -1.390625 2.203125 -2.28125 C 2.203125 -3.3125 3.296875 -4 4.96875 -4 L 5.265625 -4 C 5.328125 -4 5.46875 -4 5.640625 -3.984375 Z M 5.875 -5.171875 "/>
</g>
<g id="glyph-5-0">
<path d="M 2.171875 -3.953125 L 6.328125 -3.953125 L 6.328125 -4.921875 L 2.171875 -4.921875 L 2.171875 -7.703125 L 6.890625 -7.703125 L 6.890625 -8.671875 L 1.078125 -8.671875 L 1.078125 0 L 2.171875 0 Z M 2.171875 -3.953125 "/>
</g>
<g id="glyph-5-1">
<path d="M 5.578125 0 L 8.015625 -7.28125 L 8.015625 0 L 9.0625 0 L 9.0625 -8.671875 L 7.53125 -8.671875 L 5 -1.125 L 2.421875 -8.671875 L 0.890625 -8.671875 L 0.890625 0 L 1.9375 0 L 1.9375 -7.28125 L 4.40625 0 Z M 5.578125 0 "/>
</g>
<g id="glyph-6-0">
<path d="M 8.28125 -0.765625 C 8.140625 -0.734375 8.078125 -0.734375 8.03125 -0.734375 C 7.703125 -0.734375 7.515625 -0.84375 7.46875 -1.015625 C 7.453125 -1.0625 7.453125 -1.109375 7.453125 -1.171875 C 7.453125 -1.21875 7.453125 -1.28125 7.46875 -1.3125 L 8.4375 -5.828125 C 8.515625 -6.234375 8.515625 -6.234375 8.515625 -6.390625 C 8.515625 -7.125 7.90625 -7.75 7 -7.96875 C 6.65625 -8.046875 6.28125 -8.078125 5.90625 -8.078125 C 3.8125 -8.078125 2.546875 -7.203125 2.265625 -5.53125 L 3.53125 -5.53125 C 3.65625 -5.953125 3.765625 -6.171875 3.96875 -6.375 C 4.3125 -6.71875 4.9375 -6.9375 5.578125 -6.9375 C 6.25 -6.9375 6.828125 -6.703125 7.0625 -6.328125 C 7.140625 -6.21875 7.171875 -6.109375 7.171875 -5.96875 C 7.171875 -5.90625 7.15625 -5.8125 7.140625 -5.6875 L 7.09375 -5.421875 C 6.984375 -4.828125 6.65625 -4.625 5.578125 -4.53125 C 4.078125 -4.390625 3.421875 -4.296875 2.875 -4.078125 C 1.90625 -3.703125 1.28125 -3.046875 1.046875 -2.171875 C 1 -1.984375 0.96875 -1.765625 0.96875 -1.578125 C 0.96875 -0.71875 1.390625 -0.078125 2.125 0.1875 C 2.4375 0.28125 2.78125 0.34375 3.125 0.34375 C 3.671875 0.34375 4.28125 0.234375 4.828125 0.046875 C 5.296875 -0.125 5.53125 -0.265625 6.15625 -0.8125 L 6.15625 -0.640625 C 6.15625 -0.203125 6.375 0.140625 6.734375 0.25 C 6.90625 0.3125 7.09375 0.34375 7.296875 0.34375 C 7.46875 0.34375 7.515625 0.34375 7.875 0.25 C 7.921875 0.234375 8 0.21875 8.078125 0.203125 Z M 6.46875 -2.453125 C 6.265625 -1.53125 4.953125 -0.734375 3.625 -0.734375 C 3.109375 -0.734375 2.71875 -0.875 2.5 -1.109375 C 2.375 -1.28125 2.296875 -1.484375 2.296875 -1.71875 C 2.296875 -2.21875 2.578125 -2.71875 3.03125 -2.984375 C 3.390625 -3.203125 3.828125 -3.328125 4.578125 -3.4375 C 6.09375 -3.640625 6.109375 -3.640625 6.765625 -3.875 Z M 6.46875 -2.453125 "/>
</g>
<g id="glyph-6-1">
<path d="M 0.109375 3.1875 L 1.359375 3.1875 L 2.265625 -1.015625 C 2.609375 -0.28125 2.984375 0.078125 3.609375 0.234375 C 3.875 0.3125 4.125 0.34375 4.40625 0.34375 C 5.578125 0.34375 6.703125 -0.1875 7.46875 -1.125 C 8.28125 -2.125 8.796875 -3.671875 8.796875 -5.15625 C 8.796875 -6.953125 7.78125 -8.078125 6.1875 -8.078125 C 5.015625 -8.078125 3.8125 -7.4375 3.40625 -6.59375 L 3.671875 -7.859375 L 2.453125 -7.859375 Z M 5.6875 -6.9375 C 6.421875 -6.9375 6.96875 -6.59375 7.25 -6 C 7.390625 -5.65625 7.46875 -5.296875 7.46875 -4.859375 C 7.46875 -4.203125 7.3125 -3.453125 7.015625 -2.765625 C 6.640625 -1.890625 6.15625 -1.3125 5.515625 -1.015625 C 5.203125 -0.875 4.890625 -0.8125 4.53125 -0.8125 C 3.421875 -0.8125 2.75 -1.5625 2.75 -2.765625 C 2.75 -4.46875 3.59375 -6.1875 4.71875 -6.71875 C 5.03125 -6.875 5.328125 -6.9375 5.6875 -6.9375 Z M 5.6875 -6.9375 "/>
</g>
<g id="glyph-7-0">
<path d="M 1.921875 -3.484375 L 5.578125 -3.484375 L 5.578125 -4.34375 L 1.921875 -4.34375 L 1.921875 -6.796875 L 6.078125 -6.796875 L 6.078125 -7.65625 L 0.9375 -7.65625 L 0.9375 0 L 1.921875 0 Z M 1.921875 -3.484375 "/>
</g>
<g id="glyph-7-1">
<path d="M 4.90625 0 L 7.0625 -6.421875 L 7.0625 0 L 7.984375 0 L 7.984375 -7.65625 L 6.640625 -7.65625 L 4.40625 -0.984375 L 2.140625 -7.65625 L 0.78125 -7.65625 L 0.78125 0 L 1.71875 0 L 1.71875 -6.421875 L 3.890625 0 Z M 4.90625 0 "/>
</g>
<g id="glyph-8-0">
<path d="M 3.390625 -2.984375 C 2.5 -2.984375 2.109375 -3.109375 1.984375 -3.453125 C 1.953125 -3.5 1.9375 -3.578125 1.9375 -3.65625 C 1.9375 -4.140625 2.484375 -4.53125 3.140625 -4.53125 C 3.5 -4.53125 3.84375 -4.390625 4 -4.171875 C 4.09375 -4.046875 4.140625 -3.90625 4.15625 -3.609375 L 4.984375 -3.609375 C 4.96875 -4.390625 4.6875 -4.84375 4.09375 -5.09375 C 3.8125 -5.21875 3.5 -5.28125 3.171875 -5.28125 C 2.03125 -5.28125 1.09375 -4.546875 1.09375 -3.65625 C 1.09375 -3.28125 1.265625 -3 1.6875 -2.703125 C 1.109375 -2.546875 0.75 -2.265625 0.546875 -1.796875 C 0.453125 -1.609375 0.421875 -1.421875 0.421875 -1.21875 C 0.421875 -0.671875 0.734375 -0.203125 1.234375 0.03125 C 1.53125 0.15625 1.875 0.21875 2.234375 0.21875 C 2.9375 0.21875 3.578125 -0.015625 4.0625 -0.4375 C 4.421875 -0.765625 4.609375 -1.09375 4.796875 -1.640625 L 3.875 -1.640625 C 3.640625 -0.921875 3.09375 -0.53125 2.3125 -0.53125 C 1.640625 -0.53125 1.28125 -0.796875 1.28125 -1.3125 C 1.28125 -1.90625 1.90625 -2.296875 2.859375 -2.296875 L 3.03125 -2.296875 C 3.0625 -2.296875 3.15625 -2.296875 3.25 -2.296875 Z M 3.390625 -2.984375 "/>
</g>
<g id="glyph-9-0">
<path d="M 1.28125 -2.328125 L 3.71875 -2.328125 L 3.71875 -2.890625 L 1.28125 -2.890625 L 1.28125 -4.53125 L 4.046875 -4.53125 L 4.046875 -5.109375 L 0.625 -5.109375 L 0.625 0 L 1.28125 0 Z M 1.28125 -2.328125 "/>
</g>
<g id="glyph-9-1">
<path d="M 3.28125 0 L 4.71875 -4.28125 L 4.71875 0 L 5.328125 0 L 5.328125 -5.109375 L 4.421875 -5.109375 L 2.9375 -0.65625 L 1.421875 -5.109375 L 0.53125 -5.109375 L 0.53125 0 L 1.140625 0 L 1.140625 -4.28125 L 2.59375 0 Z M 3.28125 0 "/>
</g>
<g id="glyph-10-0">
<path d="M 5.6875 -2.625 L 6.59375 0 L 7.84375 0 L 4.765625 -8.75 L 3.328125 -8.75 L 0.203125 0 L 1.390625 0 L 2.3125 -2.625 Z M 5.375 -3.5625 L 2.59375 -3.5625 L 4.03125 -7.546875 Z M 5.375 -3.5625 "/>
</g>
<g id="glyph-10-1">
<path d="M 5.65625 -4.171875 C 5.609375 -4.78125 5.46875 -5.1875 5.234375 -5.53125 C 4.796875 -6.125 4.046875 -6.46875 3.171875 -6.46875 C 1.46875 -6.46875 0.375 -5.125 0.375 -3.03125 C 0.375 -1.015625 1.453125 0.28125 3.15625 0.28125 C 4.65625 0.28125 5.609375 -0.625 5.71875 -2.15625 L 4.71875 -2.15625 C 4.546875 -1.15625 4.03125 -0.640625 3.1875 -0.640625 C 2.078125 -0.640625 1.421875 -1.546875 1.421875 -3.03125 C 1.421875 -4.609375 2.0625 -5.546875 3.15625 -5.546875 C 4 -5.546875 4.53125 -5.046875 4.640625 -4.171875 Z M 5.65625 -4.171875 "/>
</g>
<g id="glyph-10-2">
<path d="M 3.046875 -6.28125 L 2.015625 -6.28125 L 2.015625 -8.015625 L 1.015625 -8.015625 L 1.015625 -6.28125 L 0.171875 -6.28125 L 0.171875 -5.46875 L 1.015625 -5.46875 L 1.015625 -0.71875 C 1.015625 -0.078125 1.453125 0.28125 2.234375 0.28125 C 2.5 0.28125 2.71875 0.25 3.046875 0.1875 L 3.046875 -0.640625 C 2.90625 -0.609375 2.765625 -0.59375 2.5625 -0.59375 C 2.140625 -0.59375 2.015625 -0.71875 2.015625 -1.15625 L 2.015625 -5.46875 L 3.046875 -5.46875 Z M 3.046875 -6.28125 "/>
</g>
<g id="glyph-10-3">
<path d="M 3.265625 -6.46875 C 1.484375 -6.46875 0.4375 -5.203125 0.4375 -3.09375 C 0.4375 -0.96875 1.484375 0.28125 3.28125 0.28125 C 5.046875 0.28125 6.125 -0.984375 6.125 -3.046875 C 6.125 -5.234375 5.09375 -6.46875 3.265625 -6.46875 Z M 3.28125 -5.546875 C 4.40625 -5.546875 5.078125 -4.625 5.078125 -3.0625 C 5.078125 -1.578125 4.375 -0.640625 3.28125 -0.640625 C 2.15625 -0.640625 1.46875 -1.578125 1.46875 -3.09375 C 1.46875 -4.625 2.15625 -5.546875 3.28125 -5.546875 Z M 3.28125 -5.546875 "/>
</g>
<g id="glyph-10-4">
<path d="M 0.828125 -6.28125 L 0.828125 0 L 1.84375 0 L 1.84375 -3.265625 C 1.84375 -4.78125 2.46875 -5.453125 3.859375 -5.40625 L 3.859375 -6.4375 C 3.6875 -6.453125 3.59375 -6.46875 3.46875 -6.46875 C 2.8125 -6.46875 2.328125 -6.078125 1.75 -5.140625 L 1.75 -6.28125 Z M 0.828125 -6.28125 "/>
</g>
<g id="glyph-10-5">
</g>
<g id="glyph-10-6">
<path d="M 6.15625 -2.8125 C 6.15625 -3.765625 6.078125 -4.34375 5.90625 -4.8125 C 5.5 -5.84375 4.53125 -6.46875 3.359375 -6.46875 C 1.609375 -6.46875 0.484375 -5.140625 0.484375 -3.0625 C 0.484375 -0.984375 1.5625 0.28125 3.34375 0.28125 C 4.78125 0.28125 5.765625 -0.546875 6.03125 -1.90625 L 5.015625 -1.90625 C 4.734375 -1.078125 4.171875 -0.640625 3.375 -0.640625 C 2.734375 -0.640625 2.203125 -0.9375 1.859375 -1.46875 C 1.625 -1.828125 1.53125 -2.1875 1.53125 -2.8125 Z M 1.546875 -3.625 C 1.625 -4.78125 2.34375 -5.546875 3.34375 -5.546875 C 4.375 -5.546875 5.078125 -4.75 5.078125 -3.625 Z M 1.546875 -3.625 "/>
</g>
<g id="glyph-10-7">
<path d="M 3.125 -6.28125 L 2.078125 -6.28125 L 2.078125 -7.265625 C 2.078125 -7.6875 2.296875 -7.90625 2.765625 -7.90625 C 2.859375 -7.90625 2.890625 -7.90625 3.125 -7.890625 L 3.125 -8.71875 C 2.890625 -8.765625 2.765625 -8.78125 2.5625 -8.78125 C 1.625 -8.78125 1.078125 -8.25 1.078125 -7.359375 L 1.078125 -6.28125 L 0.234375 -6.28125 L 0.234375 -5.46875 L 1.078125 -5.46875 L 1.078125 0 L 2.078125 0 L 2.078125 -5.46875 L 3.125 -5.46875 Z M 6.34375 -6.28125 L 5.296875 -6.28125 L 5.296875 -7.265625 C 5.296875 -7.6875 5.53125 -7.90625 6 -7.90625 C 6.078125 -7.90625 6.125 -7.90625 6.34375 -7.890625 L 6.34375 -8.71875 C 6.125 -8.765625 5.984375 -8.78125 5.78125 -8.78125 C 4.859375 -8.78125 4.3125 -8.25 4.3125 -7.359375 L 4.3125 -6.28125 L 3.46875 -6.28125 L 3.46875 -5.46875 L 4.3125 -5.46875 L 4.3125 0 L 5.296875 0 L 5.296875 -5.46875 L 6.34375 -5.46875 Z M 6.34375 -6.28125 "/>
</g>
<g id="glyph-10-8">
<path d="M 2.203125 -3.703125 L 4.953125 -3.703125 C 5.640625 -3.703125 6.1875 -3.90625 6.640625 -4.328125 C 7.171875 -4.8125 7.40625 -5.375 7.40625 -6.1875 C 7.40625 -7.828125 6.4375 -8.75 4.703125 -8.75 L 1.09375 -8.75 L 1.09375 0 L 2.203125 0 Z M 2.203125 -4.6875 L 2.203125 -7.765625 L 4.53125 -7.765625 C 5.609375 -7.765625 6.234375 -7.1875 6.234375 -6.234375 C 6.234375 -5.265625 5.609375 -4.6875 4.53125 -4.6875 Z M 2.203125 -4.6875 "/>
</g>
<g id="glyph-10-9">
<path d="M 6.421875 -0.59375 C 6.3125 -0.5625 6.265625 -0.5625 6.203125 -0.5625 C 5.859375 -0.5625 5.65625 -0.75 5.65625 -1.0625 L 5.65625 -4.75 C 5.65625 -5.875 4.84375 -6.46875 3.296875 -6.46875 C 2.375 -6.46875 1.640625 -6.203125 1.21875 -5.734375 C 0.921875 -5.40625 0.796875 -5.046875 0.78125 -4.421875 L 1.78125 -4.421875 C 1.875 -5.203125 2.328125 -5.546875 3.265625 -5.546875 C 4.171875 -5.546875 4.671875 -5.203125 4.671875 -4.609375 L 4.671875 -4.34375 C 4.65625 -3.90625 4.4375 -3.75 3.625 -3.640625 C 2.203125 -3.46875 1.984375 -3.421875 1.609375 -3.265625 C 0.875 -2.953125 0.5 -2.40625 0.5 -1.578125 C 0.5 -0.4375 1.296875 0.28125 2.5625 0.28125 C 3.359375 0.28125 4 0 4.703125 -0.640625 C 4.78125 0 5.09375 0.28125 5.734375 0.28125 C 5.953125 0.28125 6.078125 0.25 6.421875 0.171875 Z M 4.671875 -1.984375 C 4.671875 -1.640625 4.578125 -1.4375 4.265625 -1.15625 C 3.859375 -0.796875 3.375 -0.59375 2.78125 -0.59375 C 2 -0.59375 1.546875 -0.96875 1.546875 -1.609375 C 1.546875 -2.265625 1.984375 -2.609375 3.0625 -2.765625 C 4.125 -2.90625 4.328125 -2.953125 4.671875 -3.109375 Z M 4.671875 -1.984375 "/>
</g>
<g id="glyph-10-10">
<path d="M 0.84375 -6.28125 L 0.84375 0 L 1.84375 0 L 1.84375 -3.46875 C 1.84375 -4.75 2.515625 -5.59375 3.546875 -5.59375 C 4.34375 -5.59375 4.84375 -5.109375 4.84375 -4.359375 L 4.84375 0 L 5.84375 0 L 5.84375 -4.75 C 5.84375 -5.796875 5.0625 -6.46875 3.859375 -6.46875 C 2.921875 -6.46875 2.3125 -6.109375 1.765625 -5.234375 L 1.765625 -6.28125 Z M 0.84375 -6.28125 "/>
</g>
</g>
</defs>
<rect x="-64.8" y="-34.5" width="777.6" height="414" fill="rgb(100%, 100%, 100%)" fill-opacity="1"/>
<path fill-rule="nonzero" fill="rgb(97.254902%, 98.039216%, 98.823529%)" fill-opacity="1" stroke-width="1.35" stroke-linecap="round" stroke-linejoin="round" stroke="rgb(14.901961%, 19.607843%, 21.960784%)" stroke-opacity="1" stroke-miterlimit="10" d="M 35.992188 134.550781 L 184.328125 134.550781 L 184.054688 134.542969 L 185.152344 134.5 L 186.230469 134.28125 L 187.257812 133.890625 L 188.210938 133.339844 L 189.0625 132.644531 L 189.789062 131.824219 L 190.378906 130.894531 L 190.808594 129.882812 L 191.070312 128.816406 L 191.160156 127.71875 L 191.160156 65.480469 L 191.070312 64.386719 L 190.808594 63.316406 L 190.378906 62.304688 L 189.789062 61.378906 L 189.0625 60.554688 L 188.210938 59.859375 L 187.257812 59.308594 L 186.230469 58.917969 L 185.152344 58.699219 L 184.328125 58.648438 L 35.992188 58.648438 L 36.8125 58.699219 L 35.714844 58.65625 L 34.625 58.789062 L 33.570312 59.09375 L 32.574219 59.566406 L 31.671875 60.191406 L 30.878906 60.953125 L 30.21875 61.828125 L 29.707031 62.804688 L 29.359375 63.847656 L 29.183594 64.929688 L 29.160156 65.480469 L 29.160156 127.71875 L 29.183594 127.167969 L 29.183594 128.269531 L 29.359375 129.355469 L 29.707031 130.398438 L 30.21875 131.371094 L 30.878906 132.25 L 31.671875 133.011719 L 32.574219 133.636719 L 33.570312 134.105469 L 34.625 134.410156 L 35.714844 134.542969 Z M 35.992188 134.550781 "/>
<g fill="rgb(14.901961%, 19.607843%, 21.960784%)" fill-opacity="1">
<use xlink:href="#glyph-0-0" x="98.035156" y="101.800781"/>
</g>
<g fill="rgb(14.901961%, 19.607843%, 21.960784%)" fill-opacity="1">
<use xlink:href="#glyph-1-0" x="113.285156" y="105.604492"/>
</g>
<path fill-rule="nonzero" fill="rgb(97.254902%, 98.039216%, 98.823529%)" fill-opacity="1" stroke-width="1.35" stroke-linecap="round" stroke-linejoin="round" stroke="rgb(14.901961%, 19.607843%, 21.960784%)" stroke-opacity="1" stroke-miterlimit="10" d="M 35.992188 286.351562 L 184.328125 286.351562 L 184.054688 286.34375 L 185.152344 286.300781 L 186.230469 286.082031 L 187.257812 285.691406 L 188.210938 285.140625 L 189.0625 284.445312 L 189.789062 283.621094 L 190.378906 282.695312 L 190.808594 281.683594 L 191.070312 280.613281 L 191.160156 279.519531 L 191.160156 217.28125 L 191.070312 216.183594 L 190.808594 215.117188 L 190.378906 214.105469 L 189.789062 213.175781 L 189.0625 212.355469 L 188.210938 211.660156 L 187.257812 211.109375 L 186.230469 210.71875 L 185.152344 210.5 L 184.328125 210.449219 L 35.992188 210.449219 L 36.8125 210.5 L 35.714844 210.457031 L 34.625 210.589844 L 33.570312 210.894531 L 32.574219 211.363281 L 31.671875 211.988281 L 30.878906 212.75 L 30.21875 213.628906 L 29.707031 214.601562 L 29.359375 215.644531 L 29.183594 216.730469 L 29.160156 217.28125 L 29.160156 279.519531 L 29.183594 278.96875 L 29.183594 280.070312 L 29.359375 281.152344 L 29.707031 282.195312 L 30.21875 283.171875 L 30.878906 284.046875 L 31.671875 284.808594 L 32.574219 285.433594 L 33.570312 285.90625 L 34.625 286.210938 L 35.714844 286.34375 Z M 35.992188 286.351562 "/>
<g fill="rgb(14.901961%, 19.607843%, 21.960784%)" fill-opacity="1">
<use xlink:href="#glyph-0-0" x="96.535156" y="253.601562"/>
</g>
<g fill="rgb(14.901961%, 19.607843%, 21.960784%)" fill-opacity="1">
<use xlink:href="#glyph-1-1" x="111.785156" y="257.405273"/>
</g>
<path fill-rule="nonzero" fill="rgb(97.254902%, 98.039216%, 98.823529%)" fill-opacity="1" stroke-width="1.35" stroke-linecap="round" stroke-linejoin="round" stroke="rgb(14.901961%, 19.607843%, 21.960784%)" stroke-opacity="1" stroke-miterlimit="10" d="M 340.550781 134.550781 L 488.890625 134.550781 L 488.613281 134.542969 L 489.710938 134.5 L 490.789062 134.28125 L 491.816406 133.890625 L 492.769531 133.339844 L 493.621094 132.644531 L 494.351562 131.824219 L 494.9375 130.894531 L 495.367188 129.882812 L 495.632812 128.816406 L 495.71875 127.71875 L 495.71875 65.480469 L 495.632812 64.386719 L 495.367188 63.316406 L 494.9375 62.304688 L 494.351562 61.378906 L 493.621094 60.554688 L 492.769531 59.859375 L 491.816406 59.308594 L 490.789062 58.917969 L 489.710938 58.699219 L 488.890625 58.648438 L 340.550781 58.648438 L 341.375 58.699219 L 340.277344 58.65625 L 339.183594 58.789062 L 338.128906 59.09375 L 337.136719 59.566406 L 336.230469 60.191406 L 335.4375 60.953125 L 334.777344 61.828125 L 334.265625 62.804688 L 333.917969 63.847656 L 333.742188 64.929688 L 333.71875 65.480469 L 333.71875 127.71875 L 333.742188 127.167969 L 333.742188 128.269531 L 333.917969 129.355469 L 334.265625 130.398438 L 334.777344 131.371094 L 335.4375 132.25 L 336.230469 133.011719 L 337.136719 133.636719 L 338.128906 134.105469 L 339.183594 134.410156 L 340.277344 134.542969 Z M 340.550781 134.550781 "/>
<g fill="rgb(14.901961%, 19.607843%, 21.960784%)" fill-opacity="1">
<use xlink:href="#glyph-0-1" x="402.59375" y="101.800781"/>
</g>
<g fill="rgb(14.901961%, 19.607843%, 21.960784%)" fill-opacity="1">
<use xlink:href="#glyph-1-0" x="417.84375" y="105.604492"/>
</g>
<path fill-rule="nonzero" fill="rgb(97.254902%, 98.039216%, 98.823529%)" fill-opacity="1" stroke-width="1.35" stroke-linecap="round" stroke-linejoin="round" stroke="rgb(14.901961%, 19.607843%, 21.960784%)" stroke-opacity="1" stroke-miterlimit="10" d="M 340.550781 286.351562 L 488.890625 286.351562 L 488.613281 286.34375 L 489.710938 286.300781 L 490.789062 286.082031 L 491.816406 285.691406 L 492.769531 285.140625 L 493.621094 284.445312 L 494.351562 283.621094 L 494.9375 282.695312 L 495.367188 281.683594 L 495.632812 280.613281 L 495.71875 279.519531 L 495.71875 217.28125 L 495.632812 216.183594 L 495.367188 215.117188 L 494.9375 214.105469 L 494.351562 213.175781 L 493.621094 212.355469 L 492.769531 211.660156 L 491.816406 211.109375 L 490.789062 210.71875 L 489.710938 210.5 L 488.890625 210.449219 L 340.550781 210.449219 L 341.375 210.5 L 340.277344 210.457031 L 339.183594 210.589844 L 338.128906 210.894531 L 337.136719 211.363281 L 336.230469 211.988281 L 335.4375 212.75 L 334.777344 213.628906 L 334.265625 214.601562 L 333.917969 215.644531 L 333.742188 216.730469 L 333.71875 217.28125 L 333.71875 279.519531 L 333.742188 278.96875 L 333.742188 280.070312 L 333.917969 281.152344 L 334.265625 282.195312 L 334.777344 283.171875 L 335.4375 284.046875 L 336.230469 284.808594 L 337.136719 285.433594 L 338.128906 285.90625 L 339.183594 286.210938 L 340.277344 286.34375 Z M 340.550781 286.351562 "/>
<g fill="rgb(14.901961%, 19.607843%, 21.960784%)" fill-opacity="1">
<use xlink:href="#glyph-0-1" x="401.09375" y="253.601562"/>
</g>
<g fill="rgb(14.901961%, 19.607843%, 21.960784%)" fill-opacity="1">
<use xlink:href="#glyph-1-1" x="416.34375" y="257.405273"/>
</g>
<path fill-rule="nonzero" fill="rgb(100%, 100%, 100%)" fill-opacity="1" stroke-width="0.75" stroke-linecap="round" stroke-linejoin="round" stroke="rgb(39.215686%, 45.490196%, 54.509804%)" stroke-opacity="1" stroke-miterlimit="10" d="M 386.007812 59.511719 L 443.429688 59.511719 L 443.414062 59.511719 L 443.484375 59.507812 L 443.554688 59.496094 L 443.625 59.46875 L 443.6875 59.433594 L 443.742188 59.386719 L 443.789062 59.332031 L 443.828125 59.273438 L 443.855469 59.207031 L 443.875 59.136719 L 443.878906 59.0625 L 443.878906 37.535156 L 443.875 37.464844 L 443.855469 37.394531 L 443.828125 37.328125 L 443.789062 37.265625 L 443.742188 37.210938 L 443.6875 37.167969 L 443.625 37.128906 L 443.554688 37.105469 L 443.484375 37.089844 L 443.429688 37.085938 L 386.007812 37.085938 L 386.0625 37.089844 L 385.992188 37.085938 L 385.917969 37.097656 L 385.847656 37.117188 L 385.785156 37.148438 L 385.726562 37.1875 L 385.671875 37.238281 L 385.628906 37.296875 L 385.597656 37.359375 L 385.574219 37.429688 L 385.5625 37.5 L 385.558594 37.535156 L 385.558594 59.0625 L 385.5625 59.027344 L 385.5625 59.101562 L 385.574219 59.171875 L 385.597656 59.238281 L 385.628906 59.304688 L 385.671875 59.363281 L 385.726562 59.410156 L 385.785156 59.453125 L 385.847656 59.484375 L 385.917969 59.503906 L 385.992188 59.511719 Z M 386.007812 59.511719 "/>
<g fill="rgb(39.215686%, 45.490196%, 54.509804%)" fill-opacity="1">
<use xlink:href="#glyph-2-0" x="402.894531" y="50.798828"/>
</g>
<g fill="rgb(39.215686%, 45.490196%, 54.509804%)" fill-opacity="1">
<use xlink:href="#glyph-3-0" x="412.546875" y="53.542969"/>
</g>
<g fill="rgb(39.215686%, 45.490196%, 54.509804%)" fill-opacity="1">
<use xlink:href="#glyph-3-1" x="417.546875" y="53.542969"/>
</g>
<g fill="rgb(39.215686%, 45.490196%, 54.509804%)" fill-opacity="1">
<use xlink:href="#glyph-3-2" x="420.546875" y="53.542969"/>
</g>
<path fill-rule="nonzero" fill="rgb(100%, 100%, 100%)" fill-opacity="1" stroke-width="0.75" stroke-linecap="round" stroke-linejoin="round" stroke="rgb(39.215686%, 45.490196%, 54.509804%)" stroke-opacity="1" stroke-miterlimit="10" d="M 386.007812 307.914062 L 443.429688 307.914062 L 443.414062 307.914062 L 443.484375 307.910156 L 443.554688 307.894531 L 443.625 307.871094 L 443.6875 307.832031 L 443.742188 307.789062 L 443.789062 307.734375 L 443.828125 307.671875 L 443.855469 307.605469 L 443.875 307.535156 L 443.878906 307.464844 L 443.878906 285.9375 L 443.875 285.863281 L 443.855469 285.792969 L 443.828125 285.726562 L 443.789062 285.667969 L 443.742188 285.613281 L 443.6875 285.566406 L 443.625 285.53125 L 443.554688 285.503906 L 443.484375 285.492188 L 443.429688 285.488281 L 386.007812 285.488281 L 386.0625 285.492188 L 385.992188 285.488281 L 385.917969 285.496094 L 385.847656 285.515625 L 385.785156 285.546875 L 385.726562 285.589844 L 385.671875 285.636719 L 385.628906 285.695312 L 385.597656 285.761719 L 385.574219 285.828125 L 385.5625 285.898438 L 385.558594 285.9375 L 385.558594 307.464844 L 385.5625 307.429688 L 385.5625 307.5 L 385.574219 307.570312 L 385.597656 307.640625 L 385.628906 307.703125 L 385.671875 307.761719 L 385.726562 307.8125 L 385.785156 307.851562 L 385.847656 307.882812 L 385.917969 307.902344 L 385.992188 307.914062 Z M 386.007812 307.914062 "/>
<g fill="rgb(39.215686%, 45.490196%, 54.509804%)" fill-opacity="1">
<use xlink:href="#glyph-2-0" x="401.894531" y="299.201172"/>
</g>
<g fill="rgb(39.215686%, 45.490196%, 54.509804%)" fill-opacity="1">
<use xlink:href="#glyph-3-0" x="411.546875" y="301.945312"/>
</g>
<g fill="rgb(39.215686%, 45.490196%, 54.509804%)" fill-opacity="1">
<use xlink:href="#glyph-3-1" x="416.546875" y="301.945312"/>
</g>
<g fill="rgb(39.215686%, 45.490196%, 54.509804%)" fill-opacity="1">
<use xlink:href="#glyph-3-3" x="419.546875" y="301.945312"/>
</g>
<path fill-rule="nonzero" fill="rgb(100%, 100%, 100%)" fill-opacity="1" stroke-width="1.35" stroke-linecap="round" stroke-linejoin="round" stroke="rgb(14.901961%, 19.607843%, 21.960784%)" stroke-opacity="1" stroke-miterlimit="10" d="M 607.621094 96.601562 C 607.621094 106.507812 599.589844 114.539062 589.679688 114.539062 C 579.773438 114.539062 571.738281 106.507812 571.738281 96.601562 C 571.738281 86.691406 579.773438 78.660156 589.679688 78.660156 C 599.589844 78.660156 607.621094 86.691406 607.621094 96.601562 "/>
<g fill="rgb(14.901961%, 19.607843%, 21.960784%)" fill-opacity="1">
<use xlink:href="#glyph-4-0" x="581.929688" y="99.198242"/>
</g>
<g fill="rgb(14.901961%, 19.607843%, 21.960784%)" fill-opacity="1">
<use xlink:href="#glyph-5-0" x="590.429688" y="102.975586"/>
</g>
<path fill-rule="nonzero" fill="rgb(100%, 100%, 100%)" fill-opacity="1" stroke-width="1.35" stroke-linecap="round" stroke-linejoin="round" stroke="rgb(14.901961%, 19.607843%, 21.960784%)" stroke-opacity="1" stroke-miterlimit="10" d="M 607.621094 248.398438 C 607.621094 258.308594 599.589844 266.339844 589.679688 266.339844 C 579.773438 266.339844 571.738281 258.308594 571.738281 248.398438 C 571.738281 238.492188 579.773438 230.460938 589.679688 230.460938 C 599.589844 230.460938 607.621094 238.492188 607.621094 248.398438 "/>
<g fill="rgb(14.901961%, 19.607843%, 21.960784%)" fill-opacity="1">
<use xlink:href="#glyph-4-0" x="580.429688" y="250.999023"/>
</g>
<g fill="rgb(14.901961%, 19.607843%, 21.960784%)" fill-opacity="1">
<use xlink:href="#glyph-5-1" x="588.929688" y="254.776367"/>
</g>
<path fill="none" stroke-width="1.65" stroke-linecap="round" stroke-linejoin="round" stroke="rgb(9.019608%, 41.176471%, 66.666667%)" stroke-opacity="1" stroke-miterlimit="10" d="M 191.160156 96.601562 L 328.535156 96.601562 "/>
<path fill-rule="nonzero" fill="rgb(9.019608%, 41.176471%, 66.666667%)" fill-opacity="1" stroke-width="1.65" stroke-linecap="round" stroke-linejoin="round" stroke="rgb(9.019608%, 41.176471%, 66.666667%)" stroke-opacity="1" stroke-miterlimit="10" d="M 319 101.671875 L 328.535156 96.601562 L 319 91.53125 Z M 319 101.671875 "/>
<path fill="none" stroke-width="1.65" stroke-linecap="round" stroke-linejoin="round" stroke="rgb(9.019608%, 41.176471%, 66.666667%)" stroke-opacity="1" stroke-miterlimit="10" d="M 191.160156 248.398438 L 328.535156 248.398438 "/>
<path fill-rule="nonzero" fill="rgb(9.019608%, 41.176471%, 66.666667%)" fill-opacity="1" stroke-width="1.65" stroke-linecap="round" stroke-linejoin="round" stroke="rgb(9.019608%, 41.176471%, 66.666667%)" stroke-opacity="1" stroke-miterlimit="10" d="M 319 253.46875 L 328.535156 248.398438 L 319 243.328125 Z M 319 253.46875 "/>
<path fill="none" stroke-width="1.65" stroke-linecap="round" stroke-linejoin="round" stroke="rgb(48.235294%, 24.705882%, 63.137255%)" stroke-opacity="1" stroke-miterlimit="10" d="M 191.160156 96.601562 L 328.535156 227.699219 "/>
<path fill-rule="nonzero" fill="rgb(48.235294%, 24.705882%, 63.137255%)" fill-opacity="1" stroke-width="1.65" stroke-linecap="round" stroke-linejoin="round" stroke="rgb(48.235294%, 24.705882%, 63.137255%)" stroke-opacity="1" stroke-miterlimit="10" d="M 318.136719 224.785156 L 328.535156 227.699219 L 325.136719 217.449219 Z M 318.136719 224.785156 "/>
<path fill="none" stroke-width="1.65" stroke-linecap="round" stroke-linejoin="round" stroke="rgb(48.235294%, 24.705882%, 63.137255%)" stroke-opacity="1" stroke-miterlimit="10" d="M 191.160156 248.398438 L 328.535156 117.300781 "/>
<path fill-rule="nonzero" fill="rgb(48.235294%, 24.705882%, 63.137255%)" fill-opacity="1" stroke-width="1.65" stroke-linecap="round" stroke-linejoin="round" stroke="rgb(48.235294%, 24.705882%, 63.137255%)" stroke-opacity="1" stroke-miterlimit="10" d="M 325.136719 127.550781 L 328.535156 117.300781 L 318.136719 120.214844 Z M 325.136719 127.550781 "/>
<path fill-rule="nonzero" fill="rgb(100%, 100%, 100%)" fill-opacity="1" d="M 251.550781 104.824219 L 273.328125 104.824219 L 273.316406 104.824219 L 273.367188 104.824219 L 273.421875 104.8125 L 273.46875 104.792969 L 273.515625 104.769531 L 273.558594 104.734375 L 273.59375 104.695312 L 273.621094 104.648438 L 273.640625 104.601562 L 273.652344 104.550781 L 273.660156 104.496094 L 273.660156 88.703125 L 273.652344 88.648438 L 273.640625 88.597656 L 273.621094 88.550781 L 273.59375 88.503906 L 273.558594 88.464844 L 273.515625 88.433594 L 273.46875 88.40625 L 273.421875 88.386719 L 273.367188 88.375 L 251.550781 88.375 L 251.589844 88.375 L 251.539062 88.375 L 251.484375 88.378906 L 251.433594 88.394531 L 251.386719 88.417969 L 251.34375 88.449219 L 251.304688 88.484375 L 251.273438 88.527344 L 251.246094 88.574219 L 251.230469 88.625 L 251.222656 88.675781 L 251.222656 104.496094 L 251.222656 104.46875 L 251.222656 104.523438 L 251.230469 104.574219 L 251.246094 104.625 L 251.273438 104.671875 L 251.304688 104.714844 L 251.34375 104.75 L 251.386719 104.78125 L 251.433594 104.804688 L 251.484375 104.820312 L 251.539062 104.824219 Z M 251.550781 104.824219 "/>
<g fill="rgb(9.019608%, 41.176471%, 66.666667%)" fill-opacity="1">
<use xlink:href="#glyph-6-0" x="254.765625" y="99"/>
</g>
<g fill="rgb(9.019608%, 41.176471%, 66.666667%)" fill-opacity="1">
<use xlink:href="#glyph-7-0" x="264.113281" y="102.353516"/>
</g>
<path fill-rule="nonzero" fill="rgb(100%, 100%, 100%)" fill-opacity="1" d="M 250.050781 256.625 L 274.828125 256.625 L 274.816406 256.625 L 274.867188 256.625 L 274.921875 256.613281 L 274.96875 256.59375 L 275.015625 256.566406 L 275.058594 256.535156 L 275.09375 256.496094 L 275.121094 256.449219 L 275.140625 256.402344 L 275.152344 256.351562 L 275.160156 256.296875 L 275.160156 240.503906 L 275.152344 240.449219 L 275.140625 240.398438 L 275.121094 240.351562 L 275.09375 240.304688 L 275.058594 240.265625 L 275.015625 240.230469 L 274.96875 240.207031 L 274.921875 240.1875 L 274.867188 240.175781 L 250.050781 240.175781 L 250.089844 240.175781 L 250.039062 240.175781 L 249.984375 240.179688 L 249.933594 240.195312 L 249.886719 240.21875 L 249.84375 240.25 L 249.804688 240.285156 L 249.773438 240.328125 L 249.746094 240.375 L 249.730469 240.425781 L 249.722656 240.476562 L 249.722656 256.296875 L 249.722656 256.269531 L 249.722656 256.324219 L 249.730469 256.375 L 249.746094 256.425781 L 249.773438 256.472656 L 249.804688 256.515625 L 249.84375 256.550781 L 249.886719 256.582031 L 249.933594 256.605469 L 249.984375 256.621094 L 250.039062 256.625 Z M 250.050781 256.625 "/>
<g fill="rgb(9.019608%, 41.176471%, 66.666667%)" fill-opacity="1">
<use xlink:href="#glyph-6-0" x="253.265625" y="250.800781"/>
</g>
<g fill="rgb(9.019608%, 41.176471%, 66.666667%)" fill-opacity="1">
<use xlink:href="#glyph-7-1" x="262.613281" y="254.154297"/>
</g>
<path fill-rule="nonzero" fill="rgb(100%, 100%, 100%)" fill-opacity="1" d="M 233.867188 160.425781 L 258.613281 160.425781 L 258.597656 160.425781 L 258.65625 160.421875 L 258.710938 160.414062 L 258.761719 160.394531 L 258.808594 160.363281 L 258.851562 160.328125 L 258.890625 160.289062 L 258.917969 160.242188 L 258.941406 160.191406 L 258.953125 160.136719 L 258.957031 160.082031 L 258.957031 143.519531 L 258.953125 143.464844 L 258.941406 143.410156 L 258.917969 143.359375 L 258.890625 143.3125 L 258.851562 143.269531 L 258.808594 143.234375 L 258.761719 143.207031 L 258.710938 143.1875 L 258.65625 143.175781 L 233.867188 143.175781 L 233.910156 143.175781 L 233.851562 143.175781 L 233.796875 143.179688 L 233.746094 143.195312 L 233.695312 143.21875 L 233.648438 143.25 L 233.609375 143.289062 L 233.574219 143.335938 L 233.550781 143.382812 L 233.53125 143.4375 L 233.523438 143.492188 L 233.523438 160.082031 L 233.523438 160.054688 L 233.523438 160.109375 L 233.53125 160.164062 L 233.550781 160.214844 L 233.574219 160.265625 L 233.609375 160.308594 L 233.648438 160.347656 L 233.695312 160.378906 L 233.746094 160.402344 L 233.796875 160.417969 L 233.851562 160.425781 Z M 233.867188 160.425781 "/>
<g fill="rgb(48.235294%, 24.705882%, 63.137255%)" fill-opacity="1">
<use xlink:href="#glyph-6-1" x="237.066406" y="153.800781"/>
</g>
<g fill="rgb(48.235294%, 24.705882%, 63.137255%)" fill-opacity="1">
<use xlink:href="#glyph-7-1" x="246.414062" y="157.154297"/>
</g>
<path fill-rule="nonzero" fill="rgb(100%, 100%, 100%)" fill-opacity="1" d="M 235.367188 201.824219 L 257.113281 201.824219 L 257.097656 201.824219 L 257.15625 201.824219 L 257.210938 201.8125 L 257.261719 201.792969 L 257.308594 201.765625 L 257.351562 201.730469 L 257.390625 201.6875 L 257.417969 201.640625 L 257.441406 201.589844 L 257.453125 201.535156 L 257.457031 201.480469 L 257.457031 184.917969 L 257.453125 184.863281 L 257.441406 184.808594 L 257.417969 184.757812 L 257.390625 184.710938 L 257.351562 184.671875 L 257.308594 184.636719 L 257.261719 184.605469 L 257.210938 184.585938 L 257.15625 184.578125 L 257.113281 184.574219 L 235.367188 184.574219 L 235.410156 184.578125 L 235.351562 184.574219 L 235.296875 184.582031 L 235.246094 184.597656 L 235.195312 184.621094 L 235.148438 184.652344 L 235.109375 184.691406 L 235.074219 184.734375 L 235.050781 184.785156 L 235.03125 184.835938 L 235.023438 184.890625 L 235.023438 201.480469 L 235.023438 201.453125 L 235.023438 201.507812 L 235.03125 201.5625 L 235.050781 201.617188 L 235.074219 201.664062 L 235.109375 201.710938 L 235.148438 201.75 L 235.195312 201.78125 L 235.246094 201.804688 L 235.296875 201.820312 L 235.351562 201.824219 Z M 235.367188 201.824219 "/>
<g fill="rgb(48.235294%, 24.705882%, 63.137255%)" fill-opacity="1">
<use xlink:href="#glyph-6-1" x="238.566406" y="195.199219"/>
</g>
<g fill="rgb(48.235294%, 24.705882%, 63.137255%)" fill-opacity="1">
<use xlink:href="#glyph-7-0" x="247.914062" y="198.552734"/>
</g>
<path fill="none" stroke-width="1.65" stroke-linecap="round" stroke-linejoin="round" stroke="rgb(39.215686%, 45.490196%, 54.509804%)" stroke-opacity="1" stroke-miterlimit="10" d="M 554.039062 96.601562 L 502.847656 96.601562 "/>
<path fill-rule="nonzero" fill="rgb(39.215686%, 45.490196%, 54.509804%)" fill-opacity="1" stroke-width="1.65" stroke-linecap="round" stroke-linejoin="round" stroke="rgb(39.215686%, 45.490196%, 54.509804%)" stroke-opacity="1" stroke-miterlimit="10" d="M 512.382812 91.53125 L 502.847656 96.601562 L 512.382812 101.671875 Z M 512.382812 91.53125 "/>
<path fill="none" stroke-width="1.65" stroke-linecap="round" stroke-linejoin="round" stroke="rgb(39.215686%, 45.490196%, 54.509804%)" stroke-opacity="1" stroke-miterlimit="10" d="M 554.039062 248.398438 L 502.847656 248.398438 "/>
<path fill-rule="nonzero" fill="rgb(39.215686%, 45.490196%, 54.509804%)" fill-opacity="1" stroke-width="1.65" stroke-linecap="round" stroke-linejoin="round" stroke="rgb(39.215686%, 45.490196%, 54.509804%)" stroke-opacity="1" stroke-miterlimit="10" d="M 512.382812 243.328125 L 502.847656 248.398438 L 512.382812 253.46875 Z M 512.382812 243.328125 "/>
<path fill="none" stroke-width="1.35" stroke-linecap="round" stroke-linejoin="round" stroke="rgb(39.215686%, 45.490196%, 54.509804%)" stroke-opacity="1" stroke-miterlimit="10" d="M 613.65625 110.398438 L 613.757812 110.621094 L 614.289062 111.761719 L 615.15625 113.625 L 616.03125 115.515625 L 616.796875 117.203125 L 617.480469 118.761719 L 617.761719 119.421875 L 618.394531 120.960938 L 618.976562 122.421875 L 619.488281 123.753906 L 619.976562 125.050781 L 620.5 126.46875 L 621.042969 128.011719 L 621.273438 128.6875 L 621.796875 130.265625 L 622.269531 131.769531 L 622.679688 133.132812 L 623.074219 134.460938 L 623.492188 135.914062 L 623.925781 137.492188 L 624.105469 138.183594 L 624.511719 139.796875 L 624.875 141.328125 L 625.1875 142.71875 L 625.484375 144.070312 L 625.796875 145.550781 L 626.113281 147.15625 L 626.246094 147.859375 L 626.53125 149.496094 L 626.78125 151.050781 L 626.996094 152.460938 L 627.191406 153.832031 L 627.398438 155.328125 L 627.597656 156.953125 L 627.675781 157.664062 L 627.84375 159.316406 L 627.980469 160.886719 L 628.089844 162.308594 L 628.1875 163.691406 L 628.285156 165.199219 L 628.367188 166.832031 L 628.394531 167.546875 L 628.441406 169.207031 L 628.464844 170.78125 L 628.46875 172.210938 L 628.46875 173.59375 L 628.453125 175.105469 L 628.417969 176.742188 L 628.394531 177.453125 L 628.320312 179.117188 L 628.230469 180.6875 L 628.132812 182.109375 L 628.03125 183.492188 L 627.90625 185 L 627.75 186.628906 L 627.675781 187.335938 L 627.484375 188.988281 L 627.277344 190.550781 L 627.078125 191.964844 L 626.875 193.332031 L 626.644531 194.828125 L 626.371094 196.441406 L 626.246094 197.140625 L 625.933594 198.777344 L 625.617188 200.316406 L 625.3125 201.710938 L 625.011719 203.066406 L 624.671875 204.539062 L 624.285156 206.128906 L 624.105469 206.816406 L 623.679688 208.425781 L 623.25 209.941406 L 622.847656 211.308594 L 622.449219 212.636719 L 622.003906 214.078125 L 621.5 215.636719 L 621.273438 216.3125 L 620.730469 217.886719 L 620.195312 219.363281 L 619.691406 220.699219 L 619.199219 221.996094 L 618.652344 223.402344 L 618.035156 224.921875 L 617.761719 225.578125 L 617.097656 227.125 L 616.371094 228.742188 L 615.539062 230.546875 L 614.636719 232.488281 L 613.925781 234.019531 L 613.664062 234.582031 L 613.65625 234.601562 "/>
<path fill-rule="nonzero" fill="rgb(39.215686%, 45.490196%, 54.509804%)" fill-opacity="1" stroke-width="1.35" stroke-linecap="round" stroke-linejoin="round" stroke="rgb(39.215686%, 45.490196%, 54.509804%)" stroke-opacity="1" stroke-miterlimit="10" d="M 619.246094 114.9375 L 613.65625 110.398438 L 613.519531 117.597656 Z M 619.246094 114.9375 "/>
<path fill-rule="nonzero" fill="rgb(39.215686%, 45.490196%, 54.509804%)" fill-opacity="1" stroke-width="1.35" stroke-linecap="round" stroke-linejoin="round" stroke="rgb(39.215686%, 45.490196%, 54.509804%)" stroke-opacity="1" stroke-miterlimit="10" d="M 613.519531 227.402344 L 613.65625 234.601562 L 619.246094 230.0625 Z M 613.519531 227.402344 "/>
<path fill-rule="nonzero" fill="rgb(100%, 100%, 100%)" fill-opacity="1" d="M 578.042969 63.417969 L 601.316406 63.417969 L 601.308594 63.417969 L 601.347656 63.414062 L 601.386719 63.40625 L 601.421875 63.394531 L 601.457031 63.375 L 601.488281 63.347656 L 601.515625 63.320312 L 601.535156 63.285156 L 601.550781 63.25 L 601.5625 63.210938 L 601.566406 63.171875 L 601.566406 47.230469 L 601.5625 47.191406 L 601.550781 47.152344 L 601.535156 47.113281 L 601.515625 47.082031 L 601.488281 47.050781 L 601.457031 47.027344 L 601.421875 47.007812 L 601.386719 46.992188 L 601.347656 46.984375 L 578.042969 46.984375 L 578.070312 46.984375 L 578.03125 46.984375 L 577.992188 46.988281 L 577.953125 47 L 577.917969 47.015625 L 577.886719 47.039062 L 577.855469 47.066406 L 577.832031 47.097656 L 577.816406 47.132812 L 577.800781 47.171875 L 577.796875 47.210938 L 577.796875 63.171875 L 577.796875 63.152344 L 577.796875 63.191406 L 577.800781 63.230469 L 577.832031 63.300781 L 577.855469 63.335938 L 577.886719 63.363281 L 577.917969 63.382812 L 577.953125 63.402344 L 577.992188 63.414062 L 578.03125 63.417969 Z M 578.042969 63.417969 "/>
<g fill="rgb(39.215686%, 45.490196%, 54.509804%)" fill-opacity="1">
<use xlink:href="#glyph-2-1" x="580.628906" y="55.998047"/>
</g>
<g fill="rgb(39.215686%, 45.490196%, 54.509804%)" fill-opacity="1">
<use xlink:href="#glyph-8-0" x="589.828125" y="59.019531"/>
</g>
<g fill="rgb(39.215686%, 45.490196%, 54.509804%)" fill-opacity="1">
<use xlink:href="#glyph-9-0" x="594.730469" y="61.102539"/>
</g>
<path fill-rule="nonzero" fill="rgb(100%, 100%, 100%)" fill-opacity="1" d="M 577.042969 298.015625 L 602.316406 298.015625 L 602.308594 298.015625 L 602.347656 298.015625 L 602.386719 298.007812 L 602.421875 297.992188 L 602.457031 297.972656 L 602.488281 297.949219 L 602.515625 297.917969 L 602.535156 297.886719 L 602.550781 297.847656 L 602.5625 297.808594 L 602.566406 297.769531 L 602.566406 281.828125 L 602.5625 281.789062 L 602.550781 281.75 L 602.535156 281.714844 L 602.515625 281.679688 L 602.488281 281.652344 L 602.457031 281.625 L 602.421875 281.605469 L 602.386719 281.59375 L 602.347656 281.585938 L 602.316406 281.582031 L 577.042969 281.582031 L 577.070312 281.585938 L 577.03125 281.582031 L 576.992188 281.585938 L 576.953125 281.597656 L 576.917969 281.617188 L 576.886719 281.636719 L 576.855469 281.664062 L 576.832031 281.699219 L 576.800781 281.769531 L 576.796875 281.808594 L 576.796875 297.769531 L 576.796875 297.75 L 576.796875 297.789062 L 576.800781 297.828125 L 576.816406 297.867188 L 576.832031 297.902344 L 576.855469 297.933594 L 576.886719 297.960938 L 576.917969 297.984375 L 576.953125 298 L 576.992188 298.011719 L 577.03125 298.015625 Z M 577.042969 298.015625 "/>
<g fill="rgb(39.215686%, 45.490196%, 54.509804%)" fill-opacity="1">
<use xlink:href="#glyph-2-1" x="579.628906" y="290.599609"/>
</g>
<g fill="rgb(39.215686%, 45.490196%, 54.509804%)" fill-opacity="1">
<use xlink:href="#glyph-8-0" x="588.828125" y="293.621094"/>
</g>
<g fill="rgb(39.215686%, 45.490196%, 54.509804%)" fill-opacity="1">
<use xlink:href="#glyph-9-1" x="593.730469" y="295.704102"/>
</g>
<path fill-rule="nonzero" fill="rgb(100%, 100%, 100%)" fill-opacity="1" d="M 566.113281 180.71875 L 600.289062 180.71875 L 600.277344 180.71875 L 600.316406 180.714844 L 600.355469 180.707031 L 600.394531 180.695312 L 600.429688 180.671875 L 600.457031 180.648438 L 600.484375 180.617188 L 600.507812 180.585938 L 600.523438 180.550781 L 600.53125 180.511719 L 600.535156 180.472656 L 600.535156 164.527344 L 600.53125 164.488281 L 600.523438 164.449219 L 600.507812 164.414062 L 600.484375 164.382812 L 600.457031 164.351562 L 600.429688 164.328125 L 600.394531 164.304688 L 600.355469 164.292969 L 600.316406 164.285156 L 600.289062 164.28125 L 566.113281 164.28125 L 566.140625 164.285156 L 566.101562 164.28125 L 566.023438 164.296875 L 565.988281 164.316406 L 565.957031 164.339844 L 565.925781 164.367188 L 565.902344 164.398438 L 565.871094 164.46875 L 565.867188 164.507812 L 565.867188 180.472656 L 565.867188 180.449219 L 565.867188 180.492188 L 565.871094 180.53125 L 565.902344 180.601562 L 565.925781 180.632812 L 565.957031 180.660156 L 565.988281 180.683594 L 566.023438 180.703125 L 566.101562 180.71875 Z M 566.113281 180.71875 "/>
<g fill="rgb(39.215686%, 45.490196%, 54.509804%)" fill-opacity="1">
<use xlink:href="#glyph-2-2" x="568.699219" y="173.298828"/>
</g>
<g fill="rgb(39.215686%, 45.490196%, 54.509804%)" fill-opacity="1">
<use xlink:href="#glyph-8-0" x="577.898438" y="176.320312"/>
</g>
<g fill="rgb(39.215686%, 45.490196%, 54.509804%)" fill-opacity="1">
<use xlink:href="#glyph-9-0" x="582.800781" y="178.40332"/>
</g>
<g fill="rgb(39.215686%, 45.490196%, 54.509804%)" fill-opacity="1">
<use xlink:href="#glyph-8-0" x="586.800781" y="176.320312"/>
</g>
<g fill="rgb(39.215686%, 45.490196%, 54.509804%)" fill-opacity="1">
<use xlink:href="#glyph-9-1" x="591.699219" y="178.40332"/>
</g>
<path fill="none" stroke-width="1.875" stroke-linecap="round" stroke-linejoin="round" stroke="rgb(9.019608%, 41.176471%, 66.666667%)" stroke-opacity="1" stroke-miterlimit="10" d="M 110.160156 318.433594 L 149.039062 318.433594 "/>
<g fill="rgb(14.901961%, 19.607843%, 21.960784%)" fill-opacity="1">
<use xlink:href="#glyph-10-0" x="160.660156" y="322.681641"/>
<use xlink:href="#glyph-10-1" x="168.660156" y="322.681641"/>
<use xlink:href="#glyph-10-2" x="174.660156" y="322.681641"/>
<use xlink:href="#glyph-10-3" x="177.660156" y="322.681641"/>
<use xlink:href="#glyph-10-4" x="184.660156" y="322.681641"/>
<use xlink:href="#glyph-10-5" x="188.660156" y="322.681641"/>
<use xlink:href="#glyph-10-6" x="191.660156" y="322.681641"/>
<use xlink:href="#glyph-10-7" x="198.660156" y="322.681641"/>
<use xlink:href="#glyph-10-6" x="205.660156" y="322.681641"/>
<use xlink:href="#glyph-10-1" x="212.660156" y="322.681641"/>
<use xlink:href="#glyph-10-2" x="218.660156" y="322.681641"/>
</g>
<path fill="none" stroke-width="1.875" stroke-linecap="round" stroke-linejoin="round" stroke="rgb(48.235294%, 24.705882%, 63.137255%)" stroke-opacity="1" stroke-miterlimit="10" d="M 285.121094 318.433594 L 324 318.433594 "/>
<g fill="rgb(14.901961%, 19.607843%, 21.960784%)" fill-opacity="1">
<use xlink:href="#glyph-10-8" x="336.101562" y="322.681641"/>
<use xlink:href="#glyph-10-9" x="344.101562" y="322.681641"/>
<use xlink:href="#glyph-10-4" x="351.101562" y="322.681641"/>
<use xlink:href="#glyph-10-2" x="355.101562" y="322.681641"/>
<use xlink:href="#glyph-10-10" x="358.101562" y="322.681641"/>
<use xlink:href="#glyph-10-6" x="365.101562" y="322.681641"/>
<use xlink:href="#glyph-10-4" x="372.101562" y="322.681641"/>
<use xlink:href="#glyph-10-5" x="376.101562" y="322.681641"/>
<use xlink:href="#glyph-10-6" x="379.101562" y="322.681641"/>
<use xlink:href="#glyph-10-7" x="386.101562" y="322.681641"/>
<use xlink:href="#glyph-10-6" x="393.101562" y="322.681641"/>
<use xlink:href="#glyph-10-1" x="400.101562" y="322.681641"/>
<use xlink:href="#glyph-10-2" x="406.101562" y="322.681641"/>
</g>
</svg>
