<?xml version="1.0" encoding="UTF-8"?>
<svg xmlns="http://www.w3.org/2000/svg" xmlns:xlink="http://www.w3.org/1999/xlink" width="648pt" height="374pt" viewBox="0 0 648 374">
<defs>
<g>
<g id="glyph-0-0">
<path d="M 6.25 -5.984375 L 10.1875 -11.65625 L 8.421875 -11.65625 L 5.40625 -7.09375 L 2.421875 -11.65625 L 0.609375 -11.65625 L 4.484375 -5.984375 L 0.359375 0 L 2.15625 0 L 5.359375 -4.859375 L 8.546875 0 L 10.390625 0 Z M 6.25 -5.984375 "/>
</g>
<g id="glyph-0-1">
<path d="M 6.1875 -4.578125 L 10.578125 -11.65625 L 8.796875 -11.65625 L 5.46875 -5.984375 L 2.046875 -11.65625 L 0.203125 -11.65625 L 4.703125 -4.578125 L 4.703125 0 L 6.1875 0 Z M 6.1875 -4.578125 "/>
</g>
<g id="glyph-1-0">
<path d="M 1.703125 -5.6875 L 11.71875 -5.6875 L 11.71875 -4.359375 L 1.703125 -4.359375 Z M 1.703125 -5.6875 "/>
</g>
<g id="glyph-1-1">
<path d="M 1.359375 3.328125 L 1.359375 -8.75 L 2.796875 -8.75 L 2.796875 -3.3125 C 2.796875 -2.5625 2.972656 -1.992188 3.328125 -1.609375 C 3.691406 -1.222656 4.226562 -1.03125 4.9375 -1.03125 C 5.707031 -1.03125 6.285156 -1.25 6.671875 -1.6875 C 7.054688 -2.125 7.25 -2.78125 7.25 -3.65625 L 7.25 -8.75 L 8.6875 -8.75 L 8.6875 -2.015625 C 8.6875 -1.703125 8.734375 -1.472656 8.828125 -1.328125 C 8.921875 -1.179688 9.0625 -1.109375 9.25 -1.109375 C 9.300781 -1.109375 9.367188 -1.117188 9.453125 -1.140625 C 9.535156 -1.171875 9.648438 -1.21875 9.796875 -1.28125 L 9.796875 -0.125 C 9.578125 0 9.375 0.0859375 9.1875 0.140625 C 9 0.203125 8.8125 0.234375 8.625 0.234375 C 8.269531 0.234375 7.984375 0.128906 7.765625 -0.078125 C 7.554688 -0.285156 7.410156 -0.597656 7.328125 -1.015625 C 7.066406 -0.597656 6.75 -0.285156 6.375 -0.078125 C 6 0.128906 5.554688 0.234375 5.046875 0.234375 C 4.515625 0.234375 4.0625 0.128906 3.6875 -0.078125 C 3.3125 -0.285156 3.015625 -0.59375 2.796875 -1 L 2.796875 3.328125 Z M 1.359375 3.328125 "/>
</g>
<g id="glyph-2-0">
<path d="M 4.375 -4.1875 L 7.140625 -8.171875 L 5.890625 -8.171875 L 3.78125 -4.96875 L 1.6875 -8.171875 L 0.421875 -8.171875 L 3.140625 -4.1875 L 0.25 0 L 1.515625 0 L 3.75 -3.40625 L 5.984375 0 L 7.265625 0 Z M 4.375 -4.1875 "/>
</g>
<g id="glyph-2-1">
<path d="M 2.90625 -5.765625 L 2.90625 0 L 3.890625 0 L 3.890625 -8.09375 L 3.234375 -8.09375 C 2.890625 -6.859375 2.671875 -6.6875 1.140625 -6.484375 L 1.140625 -5.765625 Z M 2.90625 -5.765625 "/>
</g>
<g id="glyph-2-2">
<path d="M 5.671875 -0.96875 L 1.484375 -0.96875 C 1.59375 -1.640625 1.953125 -2.078125 2.921875 -2.671875 L 4.046875 -3.296875 C 5.15625 -3.90625 5.71875 -4.734375 5.71875 -5.734375 C 5.71875 -6.40625 5.453125 -7.03125 4.984375 -7.46875 C 4.515625 -7.890625 3.9375 -8.09375 3.1875 -8.09375 C 2.171875 -8.09375 1.421875 -7.734375 0.984375 -7.046875 C 0.703125 -6.625 0.578125 -6.109375 0.5625 -5.296875 L 1.546875 -5.296875 C 1.578125 -5.84375 1.640625 -6.171875 1.78125 -6.4375 C 2.03125 -6.9375 2.546875 -7.234375 3.140625 -7.234375 C 4.046875 -7.234375 4.71875 -6.59375 4.71875 -5.71875 C 4.71875 -5.0625 4.34375 -4.5 3.640625 -4.09375 L 2.609375 -3.5 C 0.953125 -2.546875 0.46875 -1.78125 0.375 -0.015625 L 5.671875 -0.015625 Z M 5.671875 -0.96875 "/>
</g>
<g id="glyph-3-0">
<path d="M 0.84375 0 L 3.515625 0 C 5.265625 0 6.34375 -1.3125 6.34375 -3.46875 C 6.34375 -5.609375 5.265625 -6.921875 3.515625 -6.921875 L 0.84375 -6.921875 Z M 1.734375 -0.78125 L 1.734375 -6.140625 L 3.359375 -6.140625 C 4.734375 -6.140625 5.453125 -5.21875 5.453125 -3.453125 C 5.453125 -1.703125 4.734375 -0.78125 3.359375 -0.78125 Z M 1.734375 -0.78125 "/>
</g>
<g id="glyph-3-1">
<path d="M 3.6875 -4.984375 L 2.3125 -1.109375 L 1.03125 -4.984375 L 0.1875 -4.984375 L 1.875 0.015625 L 1.5625 0.8125 C 1.4375 1.15625 1.265625 1.296875 0.9375 1.296875 C 0.796875 1.296875 0.6875 1.265625 0.515625 1.234375 L 0.515625 1.953125 C 0.671875 2.03125 0.84375 2.078125 1.046875 2.078125 C 1.296875 2.078125 1.578125 1.984375 1.78125 1.828125 C 2.03125 1.65625 2.171875 1.4375 2.328125 1.046875 L 4.546875 -4.984375 Z M 3.6875 -4.984375 "/>
</g>
<g id="glyph-3-2">
<path d="M 5.078125 -0.46875 C 5 -0.453125 4.953125 -0.453125 4.90625 -0.453125 C 4.640625 -0.453125 4.484375 -0.59375 4.484375 -0.84375 L 4.484375 -3.765625 C 4.484375 -4.640625 3.84375 -5.125 2.609375 -5.125 C 1.875 -5.125 1.296875 -4.90625 0.953125 -4.546875 C 0.734375 -4.28125 0.640625 -4 0.625 -3.5 L 1.421875 -3.5 C 1.484375 -4.109375 1.84375 -4.390625 2.578125 -4.390625 C 3.3125 -4.390625 3.703125 -4.125 3.703125 -3.640625 L 3.703125 -3.4375 C 3.6875 -3.09375 3.515625 -2.96875 2.875 -2.890625 C 1.75 -2.75 1.578125 -2.703125 1.265625 -2.578125 C 0.6875 -2.34375 0.40625 -1.90625 0.40625 -1.25 C 0.40625 -0.34375 1.03125 0.21875 2.03125 0.21875 C 2.65625 0.21875 3.15625 0 3.71875 -0.515625 C 3.78125 0 4.03125 0.21875 4.546875 0.21875 C 4.71875 0.21875 4.8125 0.203125 5.078125 0.140625 Z M 3.703125 -1.5625 C 3.703125 -1.296875 3.625 -1.140625 3.375 -0.921875 C 3.0625 -0.625 2.671875 -0.46875 2.203125 -0.46875 C 1.59375 -0.46875 1.21875 -0.765625 1.21875 -1.265625 C 1.21875 -1.796875 1.5625 -2.0625 2.421875 -2.1875 C 3.265625 -2.296875 3.421875 -2.34375 3.703125 -2.453125 Z M 3.703125 -1.5625 "/>
</g>
<g id="glyph-3-3">
<path d="M 4.703125 -6.921875 L 3.90625 -6.921875 L 3.90625 -4.34375 C 3.578125 -4.859375 3.046875 -5.125 2.390625 -5.125 C 1.09375 -5.125 0.25 -4.078125 0.25 -2.5 C 0.25 -0.8125 1.0625 0.21875 2.40625 0.21875 C 3.09375 0.21875 3.578125 -0.03125 4 -0.65625 L 4 0 L 4.703125 0 Z M 2.515625 -4.375 C 3.375 -4.375 3.90625 -3.625 3.90625 -2.4375 C 3.90625 -1.28125 3.359375 -0.515625 2.53125 -0.515625 C 1.65625 -0.515625 1.078125 -1.296875 1.078125 -2.453125 C 1.078125 -3.609375 1.65625 -4.375 2.515625 -4.375 Z M 2.515625 -4.375 "/>
</g>
<g id="glyph-3-4">
</g>
<g id="glyph-3-5">
<path d="M 0.671875 -4.984375 L 0.671875 0 L 1.46875 0 L 1.46875 -3.125 C 1.46875 -3.84375 1.984375 -4.421875 2.625 -4.421875 C 3.21875 -4.421875 3.546875 -4.0625 3.546875 -3.421875 L 3.546875 0 L 4.34375 0 L 4.34375 -3.125 C 4.34375 -3.84375 4.875 -4.421875 5.515625 -4.421875 C 6.09375 -4.421875 6.4375 -4.0625 6.4375 -3.421875 L 6.4375 0 L 7.234375 0 L 7.234375 -3.734375 C 7.234375 -4.625 6.71875 -5.125 5.796875 -5.125 C 5.125 -5.125 4.734375 -4.921875 4.265625 -4.359375 C 3.96875 -4.890625 3.578125 -5.125 2.921875 -5.125 C 2.265625 -5.125 1.8125 -4.875 1.390625 -4.28125 L 1.390625 -4.984375 Z M 0.671875 -4.984375 "/>
</g>
<g id="glyph-3-6">
<path d="M 4.875 -2.21875 C 4.875 -2.984375 4.8125 -3.4375 4.671875 -3.8125 C 4.34375 -4.625 3.59375 -5.125 2.65625 -5.125 C 1.265625 -5.125 0.375 -4.0625 0.375 -2.421875 C 0.375 -0.78125 1.234375 0.21875 2.640625 0.21875 C 3.78125 0.21875 4.5625 -0.421875 4.765625 -1.515625 L 3.96875 -1.515625 C 3.75 -0.859375 3.3125 -0.515625 2.671875 -0.515625 C 2.171875 -0.515625 1.734375 -0.734375 1.46875 -1.15625 C 1.28125 -1.4375 1.21875 -1.734375 1.203125 -2.21875 Z M 1.21875 -2.875 C 1.296875 -3.796875 1.859375 -4.390625 2.65625 -4.390625 C 3.453125 -4.390625 4.015625 -3.765625 4.015625 -2.875 Z M 1.21875 -2.875 "/>
</g>
<g id="glyph-3-7">
<path d="M 0.671875 -4.984375 L 0.671875 0 L 1.46875 0 L 1.46875 -2.75 C 1.46875 -3.765625 2 -4.421875 2.8125 -4.421875 C 3.4375 -4.421875 3.84375 -4.046875 3.84375 -3.453125 L 3.84375 0 L 4.625 0 L 4.625 -3.765625 C 4.625 -4.59375 4.015625 -5.125 3.046875 -5.125 C 2.3125 -5.125 1.828125 -4.828125 1.390625 -4.140625 L 1.390625 -4.984375 Z M 0.671875 -4.984375 "/>
</g>
<g id="glyph-3-8">
<path d="M 2.234375 -6.921875 C 1.296875 -5.6875 0.6875 -3.953125 0.6875 -2.453125 C 0.6875 -0.953125 1.296875 0.765625 2.234375 2.015625 L 2.765625 2.015625 C 1.921875 0.65625 1.46875 -0.9375 1.46875 -2.453125 C 1.46875 -3.96875 1.921875 -5.578125 2.765625 -6.921875 Z M 2.234375 -6.921875 "/>
</g>
<g id="glyph-3-9">
<path d="M 6.734375 -3.65625 L 3.84375 -3.65625 L 3.84375 -2.875 L 5.953125 -2.875 L 5.953125 -2.6875 C 5.953125 -1.453125 5.046875 -0.5625 3.78125 -0.5625 C 3.078125 -0.5625 2.4375 -0.8125 2.03125 -1.265625 C 1.578125 -1.75 1.296875 -2.578125 1.296875 -3.4375 C 1.296875 -5.140625 2.265625 -6.265625 3.734375 -6.265625 C 4.78125 -6.265625 5.546875 -5.71875 5.734375 -4.828125 L 6.640625 -4.828125 C 6.390625 -6.234375 5.328125 -7.046875 3.75 -7.046875 C 2.890625 -7.046875 2.21875 -6.828125 1.671875 -6.375 C 0.859375 -5.703125 0.421875 -4.640625 0.421875 -3.390625 C 0.421875 -1.265625 1.71875 0.21875 3.59375 0.21875 C 4.53125 0.21875 5.265625 -0.140625 5.953125 -0.890625 L 6.171875 0.03125 L 6.734375 0.03125 Z M 6.734375 -3.65625 "/>
</g>
<g id="glyph-3-10">
<path d="M 4.453125 0 L 6.390625 -5.796875 L 6.390625 0 L 7.234375 0 L 7.234375 -6.921875 L 6 -6.921875 L 3.984375 -0.890625 L 1.9375 -6.921875 L 0.71875 -6.921875 L 0.71875 0 L 1.546875 0 L 1.546875 -5.796875 L 3.515625 0 Z M 4.453125 0 "/>
</g>
<g id="glyph-3-11">
<path d="M 2.703125 -2.96875 L 0.4375 -2.96875 L 0.4375 -2.28125 L 2.703125 -2.28125 Z M 2.703125 -2.96875 "/>
</g>
<g id="glyph-3-12">
<path d="M 4.46875 -3.3125 C 4.4375 -3.796875 4.328125 -4.109375 4.140625 -4.375 C 3.796875 -4.84375 3.203125 -5.125 2.515625 -5.125 C 1.15625 -5.125 0.296875 -4.0625 0.296875 -2.40625 C 0.296875 -0.796875 1.15625 0.21875 2.5 0.21875 C 3.6875 0.21875 4.4375 -0.5 4.53125 -1.703125 L 3.734375 -1.703125 C 3.59375 -0.90625 3.1875 -0.515625 2.515625 -0.515625 C 1.640625 -0.515625 1.125 -1.21875 1.125 -2.40625 C 1.125 -3.640625 1.640625 -4.390625 2.5 -4.390625 C 3.15625 -4.390625 3.578125 -4 3.671875 -3.3125 Z M 4.46875 -3.3125 "/>
</g>
<g id="glyph-3-13">
<path d="M 2.40625 -4.984375 L 1.59375 -4.984375 L 1.59375 -6.34375 L 0.8125 -6.34375 L 0.8125 -4.984375 L 0.140625 -4.984375 L 0.140625 -4.328125 L 0.8125 -4.328125 L 0.8125 -0.5625 C 0.8125 -0.0625 1.15625 0.21875 1.765625 0.21875 C 1.96875 0.21875 2.140625 0.203125 2.40625 0.15625 L 2.40625 -0.515625 C 2.296875 -0.484375 2.1875 -0.46875 2.03125 -0.46875 C 1.6875 -0.46875 1.59375 -0.5625 1.59375 -0.921875 L 1.59375 -4.328125 L 2.40625 -4.328125 Z M 2.40625 -4.984375 "/>
</g>
<g id="glyph-3-14">
<path d="M 0.65625 -4.984375 L 0.65625 0 L 1.453125 0 L 1.453125 -2.578125 C 1.46875 -3.78125 1.953125 -4.3125 3.046875 -4.28125 L 3.046875 -5.09375 C 2.921875 -5.109375 2.84375 -5.125 2.75 -5.125 C 2.234375 -5.125 1.84375 -4.8125 1.390625 -4.078125 L 1.390625 -4.984375 Z M 0.65625 -4.984375 "/>
</g>
<g id="glyph-3-15">
<path d="M 0.890625 2.015625 C 1.828125 0.765625 2.4375 -0.953125 2.4375 -2.453125 C 2.4375 -3.953125 1.828125 -5.6875 0.890625 -6.921875 L 0.359375 -6.921875 C 1.203125 -5.5625 1.65625 -3.96875 1.65625 -2.453125 C 1.65625 -0.9375 1.203125 0.671875 0.359375 2.015625 Z M 0.890625 2.015625 "/>
</g>
<g id="glyph-3-16">
<path d="M 7.0625 0 L 8.828125 -6.921875 L 7.84375 -6.921875 L 6.5625 -1.296875 L 4.984375 -6.921875 L 4.03125 -6.921875 L 2.5 -1.296875 L 1.203125 -6.921875 L 0.203125 -6.921875 L 1.984375 0 L 2.953125 0 L 4.5 -5.6875 L 6.09375 0 Z M 7.0625 0 "/>
</g>
<g id="glyph-3-17">
<path d="M 1.421875 -4.984375 L 0.640625 -4.984375 L 0.640625 0 L 1.421875 0 Z M 1.421875 -6.921875 L 0.625 -6.921875 L 0.625 -5.921875 L 1.421875 -5.921875 Z M 1.421875 -6.921875 "/>
</g>
<g id="glyph-3-18">
<path d="M 0.671875 -6.921875 L 0.671875 0 L 1.453125 0 L 1.453125 -2.75 C 1.453125 -3.765625 1.984375 -4.421875 2.796875 -4.421875 C 3.0625 -4.421875 3.3125 -4.34375 3.5 -4.203125 C 3.734375 -4.03125 3.828125 -3.796875 3.828125 -3.453125 L 3.828125 0 L 4.609375 0 L 4.609375 -3.765625 C 4.609375 -4.59375 4.015625 -5.125 3.046875 -5.125 C 2.34375 -5.125 1.921875 -4.90625 1.453125 -4.296875 L 1.453125 -6.921875 Z M 0.671875 -6.921875 "/>
</g>
<g id="glyph-3-19">
<path d="M 0.515625 -6.921875 L 0.515625 0 L 1.21875 0 L 1.21875 -0.640625 C 1.609375 -0.0625 2.109375 0.21875 2.796875 0.21875 C 4.109375 0.21875 4.96875 -0.859375 4.96875 -2.515625 C 4.96875 -4.125 4.15625 -5.125 2.84375 -5.125 C 2.15625 -5.125 1.671875 -4.859375 1.296875 -4.296875 L 1.296875 -6.921875 Z M 2.6875 -4.375 C 3.578125 -4.375 4.140625 -3.609375 4.140625 -2.421875 C 4.140625 -1.296875 3.546875 -0.515625 2.6875 -0.515625 C 1.84375 -0.515625 1.296875 -1.28125 1.296875 -2.453125 C 1.296875 -3.625 1.84375 -4.375 2.6875 -4.375 Z M 2.6875 -4.375 "/>
</g>
<g id="glyph-3-20">
<path d="M 2.703125 0 L 4.609375 -4.984375 L 3.71875 -4.984375 L 2.3125 -0.9375 L 0.984375 -4.984375 L 0.09375 -4.984375 L 1.84375 0 Z M 2.703125 0 "/>
</g>
<g id="glyph-3-21">
<path d="M 2.578125 -5.125 C 1.171875 -5.125 0.34375 -4.125 0.34375 -2.453125 C 0.34375 -0.765625 1.171875 0.21875 2.59375 0.21875 C 4 0.21875 4.84375 -0.78125 4.84375 -2.40625 C 4.84375 -4.140625 4.03125 -5.125 2.578125 -5.125 Z M 2.59375 -4.390625 C 3.484375 -4.390625 4.015625 -3.65625 4.015625 -2.421875 C 4.015625 -1.25 3.46875 -0.515625 2.59375 -0.515625 C 1.703125 -0.515625 1.171875 -1.25 1.171875 -2.453125 C 1.171875 -3.65625 1.703125 -4.390625 2.59375 -4.390625 Z M 2.59375 -4.390625 "/>
</g>
<g id="glyph-3-22">
<path d="M 3.703125 -7.046875 C 1.703125 -7.046875 0.359375 -5.578125 0.359375 -3.40625 C 0.359375 -1.234375 1.703125 0.21875 3.703125 0.21875 C 4.546875 0.21875 5.296875 -0.03125 5.859375 -0.515625 C 6.609375 -1.15625 7.046875 -2.21875 7.046875 -3.359375 C 7.046875 -5.59375 5.734375 -7.046875 3.703125 -7.046875 Z M 3.703125 -6.265625 C 5.203125 -6.265625 6.171875 -5.125 6.171875 -3.375 C 6.171875 -1.703125 5.171875 -0.5625 3.703125 -0.5625 C 2.21875 -0.5625 1.25 -1.703125 1.25 -3.40625 C 1.25 -5.125 2.21875 -6.265625 3.703125 -6.265625 Z M 3.703125 -6.265625 "/>
</g>
<g id="glyph-3-23">
<path d="M 4.578125 0 L 4.578125 -4.984375 L 3.796875 -4.984375 L 3.796875 -2.15625 C 3.796875 -1.140625 3.265625 -0.46875 2.4375 -0.46875 C 1.8125 -0.46875 1.40625 -0.859375 1.40625 -1.453125 L 1.40625 -4.984375 L 0.625 -4.984375 L 0.625 -1.140625 C 0.625 -0.3125 1.234375 0.21875 2.203125 0.21875 C 2.9375 0.21875 3.40625 -0.03125 3.859375 -0.6875 L 3.859375 0 Z M 4.578125 0 "/>
</g>
<g id="glyph-4-0">
<path d="M 2.890625 -4.421875 C 2.347656 -4.535156 1.929688 -4.753906 1.640625 -5.078125 C 1.335938 -5.390625 1.1875 -5.769531 1.1875 -6.21875 C 1.1875 -6.914062 1.46875 -7.457031 2.03125 -7.84375 C 2.582031 -8.21875 3.335938 -8.40625 4.296875 -8.40625 C 4.660156 -8.40625 5.050781 -8.375 5.46875 -8.3125 C 5.882812 -8.257812 6.332031 -8.175781 6.8125 -8.0625 L 6.8125 -6.828125 C 6.332031 -6.972656 5.898438 -7.078125 5.515625 -7.140625 C 5.117188 -7.203125 4.75 -7.234375 4.40625 -7.234375 C 3.820312 -7.234375 3.363281 -7.125 3.03125 -6.90625 C 2.6875 -6.675781 2.515625 -6.40625 2.515625 -6.09375 C 2.515625 -5.75 2.679688 -5.46875 3.015625 -5.25 C 3.335938 -5.03125 3.78125 -4.921875 4.34375 -4.921875 L 5.484375 -4.921875 L 5.484375 -3.8125 L 4.40625 -3.8125 C 3.738281 -3.8125 3.226562 -3.6875 2.875 -3.4375 C 2.488281 -3.164062 2.296875 -2.816406 2.296875 -2.390625 C 2.296875 -1.953125 2.503906 -1.59375 2.921875 -1.3125 C 3.328125 -1.039062 3.898438 -0.90625 4.640625 -0.90625 C 5.097656 -0.90625 5.535156 -0.953125 5.953125 -1.046875 C 6.359375 -1.128906 6.738281 -1.265625 7.09375 -1.453125 L 7.09375 -0.203125 C 6.65625 -0.0664062 6.226562 0.0351562 5.8125 0.109375 C 5.394531 0.179688 4.992188 0.21875 4.609375 0.21875 C 3.441406 0.21875 2.546875 -0.00390625 1.921875 -0.453125 C 1.285156 -0.898438 0.96875 -1.546875 0.96875 -2.390625 C 0.96875 -2.910156 1.132812 -3.347656 1.46875 -3.703125 C 1.8125 -4.066406 2.285156 -4.304688 2.890625 -4.421875 Z M 2.890625 -4.421875 "/>
</g>
<g id="glyph-5-0">
<path d="M 2.71875 -5.40625 L 2.71875 0 L 3.640625 0 L 3.640625 -7.59375 L 3.03125 -7.59375 C 2.703125 -6.421875 2.5 -6.265625 1.078125 -6.078125 L 1.078125 -5.40625 Z M 2.71875 -5.40625 "/>
</g>
<g id="glyph-5-1">
<path d="M 5.3125 -0.90625 L 1.390625 -0.90625 C 1.484375 -1.546875 1.828125 -1.9375 2.734375 -2.5 L 3.796875 -3.09375 C 4.828125 -3.671875 5.359375 -4.4375 5.359375 -5.375 C 5.359375 -6 5.109375 -6.59375 4.671875 -7 C 4.234375 -7.40625 3.6875 -7.59375 2.984375 -7.59375 C 2.03125 -7.59375 1.328125 -7.25 0.921875 -6.609375 C 0.65625 -6.203125 0.546875 -5.734375 0.53125 -4.96875 L 1.453125 -4.96875 C 1.484375 -5.484375 1.546875 -5.78125 1.671875 -6.03125 C 1.90625 -6.5 2.390625 -6.78125 2.953125 -6.78125 C 3.796875 -6.78125 4.421875 -6.171875 4.421875 -5.359375 C 4.421875 -4.75 4.078125 -4.21875 3.40625 -3.84375 L 2.453125 -3.28125 C 0.890625 -2.390625 0.4375 -1.671875 0.359375 -0.015625 L 5.3125 -0.015625 Z M 5.3125 -0.90625 "/>
</g>
<g id="glyph-5-2">
<path d="M 6.265625 -5.40625 C 6.265625 -5.9375 6.21875 -6.078125 6.0625 -6.4375 C 5.640625 -7.3125 4.75 -7.78125 3.453125 -7.78125 C 1.78125 -7.78125 0.734375 -6.921875 0.734375 -5.53125 C 0.734375 -4.59375 1.234375 -4.015625 2.234375 -3.75 L 4.140625 -3.25 C 5.109375 -3 5.546875 -2.609375 5.546875 -2 C 5.546875 -1.59375 5.328125 -1.171875 5 -0.9375 C 4.6875 -0.71875 4.203125 -0.625 3.59375 -0.625 C 2.75 -0.625 2.1875 -0.8125 1.828125 -1.265625 C 1.546875 -1.59375 1.421875 -1.96875 1.421875 -2.4375 L 0.5 -2.4375 C 0.515625 -1.734375 0.65625 -1.265625 0.953125 -0.84375 C 1.484375 -0.125 2.359375 0.234375 3.53125 0.234375 C 4.4375 0.234375 5.1875 0.03125 5.6875 -0.34375 C 6.1875 -0.75 6.515625 -1.4375 6.515625 -2.09375 C 6.515625 -3.046875 5.9375 -3.734375 4.890625 -4.015625 L 2.96875 -4.53125 C 2.046875 -4.78125 1.71875 -5.078125 1.71875 -5.671875 C 1.71875 -6.453125 2.390625 -6.96875 3.421875 -6.96875 C 4.640625 -6.96875 5.328125 -6.421875 5.328125 -5.40625 Z M 6.265625 -5.40625 "/>
</g>
<g id="glyph-5-3">
<path d="M 0.9375 0 L 3.890625 0 C 5.8125 0 7 -1.453125 7 -3.828125 C 7 -6.203125 5.828125 -7.65625 3.890625 -7.65625 L 0.9375 -7.65625 Z M 1.90625 -0.859375 L 1.90625 -6.796875 L 3.71875 -6.796875 C 5.234375 -6.796875 6.03125 -5.78125 6.03125 -3.828125 C 6.03125 -1.875 5.234375 -0.859375 3.71875 -0.859375 Z M 1.90625 -0.859375 "/>
</g>
<g id="glyph-6-0">
<path d="M 0.75 -10.203125 L 0.75 0 L 1.8125 0 L 1.8125 -0.9375 C 2.359375 -0.078125 3.109375 0.328125 4.125 0.328125 C 6.0625 0.328125 7.328125 -1.265625 7.328125 -3.703125 C 7.328125 -6.078125 6.125 -7.546875 4.1875 -7.546875 C 3.171875 -7.546875 2.46875 -7.171875 1.921875 -6.34375 L 1.921875 -10.203125 Z M 3.96875 -6.453125 C 5.265625 -6.453125 6.109375 -5.3125 6.109375 -3.5625 C 6.109375 -1.90625 5.234375 -0.765625 3.96875 -0.765625 C 2.71875 -0.765625 1.921875 -1.890625 1.921875 -3.609375 C 1.921875 -5.328125 2.71875 -6.453125 3.96875 -6.453125 Z M 3.96875 -6.453125 "/>
</g>
<g id="glyph-7-0">
<path d="M 0.6875 -5.140625 L 0.6875 0 L 1.515625 0 L 1.515625 -3.21875 C 1.515625 -3.96875 2.046875 -4.5625 2.71875 -4.5625 C 3.328125 -4.5625 3.65625 -4.1875 3.65625 -3.53125 L 3.65625 0 L 4.484375 0 L 4.484375 -3.21875 C 4.484375 -3.96875 5.03125 -4.5625 5.6875 -4.5625 C 6.296875 -4.5625 6.640625 -4.1875 6.640625 -3.53125 L 6.640625 0 L 7.46875 0 L 7.46875 -3.84375 C 7.46875 -4.765625 6.9375 -5.28125 5.96875 -5.28125 C 5.296875 -5.28125 4.875 -5.078125 4.40625 -4.5 C 4.09375 -5.046875 3.6875 -5.28125 3.015625 -5.28125 C 2.328125 -5.28125 1.875 -5.03125 1.4375 -4.40625 L 1.4375 -5.140625 Z M 0.6875 -5.140625 "/>
</g>
<g id="glyph-7-1">
<path d="M 5.03125 -2.296875 C 5.03125 -3.078125 4.96875 -3.546875 4.8125 -3.921875 C 4.484375 -4.765625 3.703125 -5.28125 2.75 -5.28125 C 1.3125 -5.28125 0.390625 -4.1875 0.390625 -2.5 C 0.390625 -0.796875 1.28125 0.21875 2.71875 0.21875 C 3.90625 0.21875 4.71875 -0.4375 4.921875 -1.5625 L 4.09375 -1.5625 C 3.875 -0.875 3.40625 -0.53125 2.75 -0.53125 C 2.234375 -0.53125 1.796875 -0.765625 1.515625 -1.1875 C 1.328125 -1.484375 1.25 -1.78125 1.25 -2.296875 Z M 1.265625 -2.953125 C 1.328125 -3.90625 1.90625 -4.53125 2.734375 -4.53125 C 3.5625 -4.53125 4.140625 -3.875 4.140625 -2.953125 Z M 1.265625 -2.953125 "/>
</g>
<g id="glyph-7-2">
<path d="M 5.234375 -0.484375 C 5.15625 -0.453125 5.109375 -0.453125 5.0625 -0.453125 C 4.78125 -0.453125 4.625 -0.609375 4.625 -0.859375 L 4.625 -3.875 C 4.625 -4.796875 3.953125 -5.28125 2.6875 -5.28125 C 1.9375 -5.28125 1.34375 -5.0625 0.984375 -4.6875 C 0.75 -4.421875 0.65625 -4.125 0.640625 -3.609375 L 1.453125 -3.609375 C 1.53125 -4.234375 1.90625 -4.53125 2.671875 -4.53125 C 3.40625 -4.53125 3.8125 -4.25 3.8125 -3.765625 L 3.8125 -3.546875 C 3.796875 -3.1875 3.625 -3.0625 2.953125 -2.984375 C 1.796875 -2.828125 1.625 -2.796875 1.3125 -2.671875 C 0.71875 -2.40625 0.40625 -1.953125 0.40625 -1.296875 C 0.40625 -0.359375 1.0625 0.21875 2.09375 0.21875 C 2.75 0.21875 3.265625 0 3.84375 -0.53125 C 3.90625 0 4.15625 0.21875 4.6875 0.21875 C 4.859375 0.21875 4.96875 0.203125 5.234375 0.140625 Z M 3.8125 -1.609375 C 3.8125 -1.34375 3.734375 -1.171875 3.484375 -0.953125 C 3.15625 -0.640625 2.75 -0.484375 2.265625 -0.484375 C 1.640625 -0.484375 1.265625 -0.796875 1.265625 -1.3125 C 1.265625 -1.859375 1.609375 -2.125 2.5 -2.25 C 3.375 -2.375 3.53125 -2.40625 3.8125 -2.53125 Z M 3.8125 -1.609375 "/>
</g>
<g id="glyph-7-3">
<path d="M 0.6875 -5.140625 L 0.6875 0 L 1.515625 0 L 1.515625 -2.828125 C 1.515625 -3.875 2.0625 -4.5625 2.90625 -4.5625 C 3.546875 -4.5625 3.953125 -4.171875 3.953125 -3.5625 L 3.953125 0 L 4.765625 0 L 4.765625 -3.875 C 4.765625 -4.734375 4.140625 -5.28125 3.140625 -5.28125 C 2.375 -5.28125 1.890625 -4.984375 1.4375 -4.265625 L 1.4375 -5.140625 Z M 0.6875 -5.140625 "/>
</g>
<g id="glyph-7-4">
<path d="M 4.84375 -7.140625 L 4.03125 -7.140625 L 4.03125 -4.484375 C 3.6875 -5 3.140625 -5.28125 2.453125 -5.28125 C 1.125 -5.28125 0.25 -4.21875 0.25 -2.578125 C 0.25 -0.84375 1.09375 0.21875 2.484375 0.21875 C 3.1875 0.21875 3.6875 -0.046875 4.125 -0.671875 L 4.125 0 L 4.84375 0 Z M 2.59375 -4.515625 C 3.484375 -4.515625 4.03125 -3.75 4.03125 -2.515625 C 4.03125 -1.328125 3.46875 -0.53125 2.609375 -0.53125 C 1.703125 -0.53125 1.109375 -1.328125 1.109375 -2.53125 C 1.109375 -3.71875 1.703125 -4.515625 2.59375 -4.515625 Z M 2.59375 -4.515625 "/>
</g>
<g id="glyph-7-5">
<path d="M 2.796875 0 L 4.765625 -5.140625 L 3.84375 -5.140625 L 2.390625 -0.96875 L 1.015625 -5.140625 L 0.09375 -5.140625 L 1.90625 0 Z M 2.796875 0 "/>
</g>
<g id="glyph-8-0">
<path d="M 1.109375 -4.765625 L 7.6875 -4.765625 L 7.6875 -3.90625 L 1.109375 -3.90625 Z M 1.109375 -2.671875 L 7.6875 -2.671875 L 7.6875 -1.8125 L 1.109375 -1.8125 Z M 1.109375 -2.671875 "/>
</g>
<g id="glyph-8-1">
<path d="M 3.21875 -5 C 2.695312 -5 2.296875 -4.8125 2.015625 -4.4375 C 1.722656 -4.039062 1.578125 -3.515625 1.578125 -2.859375 C 1.578125 -2.171875 1.722656 -1.628906 2.015625 -1.234375 C 2.304688 -0.847656 2.707031 -0.65625 3.21875 -0.65625 C 3.71875 -0.65625 4.113281 -0.851562 4.40625 -1.25 C 4.695312 -1.644531 4.84375 -2.179688 4.84375 -2.859375 C 4.84375 -3.484375 4.695312 -4.007812 4.40625 -4.4375 C 4.132812 -4.8125 3.738281 -5 3.21875 -5 Z M 3.21875 -5.75 L 6.34375 -5.75 L 6.34375 -4.796875 L 5.296875 -4.796875 C 5.660156 -4.265625 5.84375 -3.617188 5.84375 -2.859375 C 5.84375 -1.921875 5.609375 -1.1875 5.140625 -0.65625 C 4.671875 -0.113281 4.03125 0.15625 3.21875 0.15625 C 2.394531 0.15625 1.75 -0.113281 1.28125 -0.65625 C 0.8125 -1.1875 0.578125 -1.921875 0.578125 -2.859375 C 0.578125 -3.804688 0.8125 -4.546875 1.28125 -5.078125 C 1.664062 -5.523438 2.3125 -5.75 3.21875 -5.75 Z M 3.21875 -5.75 "/>
</g>
<g id="glyph-9-0">
<path d="M 1.421875 -2.171875 C 1.148438 -2.222656 0.941406 -2.328125 0.796875 -2.484375 C 0.648438 -2.640625 0.578125 -2.828125 0.578125 -3.046875 C 0.578125 -3.378906 0.71875 -3.644531 1 -3.84375 C 1.269531 -4.019531 1.632812 -4.109375 2.09375 -4.109375 C 2.28125 -4.109375 2.472656 -4.09375 2.671875 -4.0625 C 2.878906 -4.039062 3.097656 -4 3.328125 -3.9375 L 3.328125 -3.34375 C 3.097656 -3.414062 2.890625 -3.46875 2.703125 -3.5 C 2.503906 -3.53125 2.320312 -3.546875 2.15625 -3.546875 C 1.875 -3.546875 1.648438 -3.488281 1.484375 -3.375 C 1.316406 -3.269531 1.234375 -3.140625 1.234375 -2.984375 C 1.234375 -2.816406 1.3125 -2.679688 1.46875 -2.578125 C 1.632812 -2.460938 1.851562 -2.40625 2.125 -2.40625 L 2.6875 -2.40625 L 2.6875 -1.875 L 2.15625 -1.875 C 1.820312 -1.875 1.570312 -1.8125 1.40625 -1.6875 C 1.21875 -1.550781 1.125 -1.378906 1.125 -1.171875 C 1.125 -0.953125 1.222656 -0.773438 1.421875 -0.640625 C 1.628906 -0.503906 1.910156 -0.4375 2.265625 -0.4375 C 2.492188 -0.4375 2.707031 -0.460938 2.90625 -0.515625 C 3.113281 -0.554688 3.300781 -0.617188 3.46875 -0.703125 L 3.46875 -0.09375 C 3.25 -0.03125 3.039062 0.015625 2.84375 0.046875 C 2.644531 0.0859375 2.445312 0.109375 2.25 0.109375 C 1.6875 0.109375 1.25 0 0.9375 -0.21875 C 0.632812 -0.4375 0.484375 -0.753906 0.484375 -1.171875 C 0.484375 -1.429688 0.5625 -1.644531 0.71875 -1.8125 C 0.882812 -1.988281 1.117188 -2.109375 1.421875 -2.171875 Z M 1.421875 -2.171875 "/>
</g>
<g id="glyph-10-0">
<path d="M 1.484375 -4.9375 C 1.703125 -5.300781 2.082031 -5.644531 2.625 -5.96875 C 2.832031 -6.09375 3.265625 -6.15625 3.921875 -6.15625 C 4.648438 -6.15625 5.238281 -5.863281 5.6875 -5.28125 C 6.144531 -4.707031 6.375 -3.945312 6.375 -3 C 6.375 -2.050781 6.144531 -1.285156 5.6875 -0.703125 C 5.238281 -0.128906 4.648438 0.15625 3.921875 0.15625 C 3.472656 0.15625 3.085938 0.0703125 2.765625 -0.09375 C 2.453125 -0.269531 2.195312 -0.539062 2 -0.90625 L 2 2.28125 L 1 2.28125 L 1 -2.953125 C 1 -3.773438 1.160156 -4.4375 1.484375 -4.9375 Z M 5.359375 -3 C 5.359375 -3.726562 5.207031 -4.296875 4.90625 -4.703125 C 4.601562 -5.117188 4.191406 -5.328125 3.671875 -5.328125 C 3.148438 -5.328125 2.738281 -5.117188 2.4375 -4.703125 C 2.144531 -4.296875 2 -3.726562 2 -3 C 2 -2.269531 2.144531 -1.695312 2.4375 -1.28125 C 2.738281 -0.875 3.148438 -0.671875 3.671875 -0.671875 C 4.191406 -0.671875 4.601562 -0.875 4.90625 -1.28125 C 5.207031 -1.695312 5.359375 -2.269531 5.359375 -3 Z M 5.359375 -3 "/>
</g>
<g id="glyph-11-0">
<path d="M 1.484375 -2.265625 C 1.203125 -2.328125 0.988281 -2.441406 0.84375 -2.609375 C 0.6875 -2.765625 0.609375 -2.960938 0.609375 -3.203125 C 0.609375 -3.554688 0.753906 -3.832031 1.046875 -4.03125 C 1.328125 -4.21875 1.710938 -4.3125 2.203125 -4.3125 C 2.390625 -4.3125 2.585938 -4.296875 2.796875 -4.265625 C 3.015625 -4.242188 3.25 -4.203125 3.5 -4.140625 L 3.5 -3.515625 C 3.257812 -3.585938 3.035156 -3.640625 2.828125 -3.671875 C 2.628906 -3.703125 2.441406 -3.71875 2.265625 -3.71875 C 1.960938 -3.71875 1.722656 -3.660156 1.546875 -3.546875 C 1.378906 -3.429688 1.296875 -3.289062 1.296875 -3.125 C 1.296875 -2.945312 1.378906 -2.804688 1.546875 -2.703125 C 1.710938 -2.585938 1.941406 -2.53125 2.234375 -2.53125 L 2.8125 -2.53125 L 2.8125 -1.953125 L 2.265625 -1.953125 C 1.921875 -1.953125 1.65625 -1.890625 1.46875 -1.765625 C 1.28125 -1.628906 1.1875 -1.445312 1.1875 -1.21875 C 1.1875 -1 1.289062 -0.816406 1.5 -0.671875 C 1.707031 -0.535156 2.003906 -0.46875 2.390625 -0.46875 C 2.617188 -0.46875 2.835938 -0.488281 3.046875 -0.53125 C 3.265625 -0.582031 3.460938 -0.65625 3.640625 -0.75 L 3.640625 -0.09375 C 3.410156 -0.03125 3.191406 0.0195312 2.984375 0.0625 C 2.773438 0.09375 2.566406 0.109375 2.359375 0.109375 C 1.765625 0.109375 1.304688 -0.00390625 0.984375 -0.234375 C 0.660156 -0.460938 0.5 -0.789062 0.5 -1.21875 C 0.5 -1.488281 0.582031 -1.71875 0.75 -1.90625 C 0.925781 -2.09375 1.171875 -2.210938 1.484375 -2.265625 Z M 1.484375 -2.265625 "/>
</g>
<g id="glyph-12-0">
<path d="M 5.515625 -1.609375 L 6.03125 0 L 7.734375 0 L 4.96875 -8.015625 L 3.140625 -8.015625 L 0.28125 0 L 1.96875 0 L 2.515625 -1.609375 Z M 5.0625 -2.984375 L 2.96875 -2.984375 L 4.015625 -6.125 Z M 5.0625 -2.984375 "/>
</g>
<g id="glyph-12-1">
<path d="M 0.6875 -5.9375 L 0.6875 0 L 2.234375 0 L 2.234375 -3.15625 C 2.234375 -4.0625 2.6875 -4.515625 3.59375 -4.515625 C 3.75 -4.515625 3.859375 -4.5 4.0625 -4.46875 L 4.0625 -6.03125 C 3.984375 -6.03125 3.953125 -6.03125 3.890625 -6.03125 C 3.171875 -6.03125 2.578125 -5.578125 2.234375 -4.78125 L 2.234375 -5.9375 Z M 0.6875 -5.9375 "/>
</g>
<g id="glyph-12-2">
<path d="M 0.65625 -8.015625 L 0.65625 0 L 2.1875 0 L 2.1875 -0.609375 C 2.5625 -0.015625 3.078125 0.25 3.828125 0.25 C 5.25 0.25 6.328125 -1.09375 6.328125 -2.890625 C 6.328125 -3.703125 6.078125 -4.515625 5.6875 -5.078125 C 5.28125 -5.671875 4.546875 -6.03125 3.828125 -6.03125 C 3.078125 -6.03125 2.5625 -5.765625 2.1875 -5.171875 L 2.1875 -8.015625 Z M 3.484375 -4.75 C 4.25 -4.75 4.78125 -3.984375 4.78125 -2.875 C 4.78125 -1.796875 4.25 -1.03125 3.484375 -1.03125 C 2.703125 -1.03125 2.1875 -1.765625 2.1875 -2.921875 C 2.1875 -4 2.71875 -4.75 3.484375 -4.75 Z M 3.484375 -4.75 "/>
</g>
<g id="glyph-12-3">
<path d="M 2.28125 -5.9375 L 0.734375 -5.9375 L 0.734375 0 L 2.28125 0 Z M 2.28125 -8.015625 L 0.734375 -8.015625 L 0.734375 -6.640625 L 2.28125 -6.640625 Z M 2.28125 -8.015625 "/>
</g>
<g id="glyph-12-4">
<path d="M 3.3125 -5.8125 L 2.453125 -5.8125 L 2.453125 -7.40625 L 0.90625 -7.40625 L 0.90625 -5.8125 L 0.15625 -5.8125 L 0.15625 -4.796875 L 0.90625 -4.796875 L 0.90625 -1.140625 C 0.90625 -0.203125 1.40625 0.25 2.421875 0.25 C 2.765625 0.25 3.03125 0.21875 3.3125 0.125 L 3.3125 -0.953125 C 3.15625 -0.921875 3.078125 -0.90625 2.953125 -0.90625 C 2.546875 -0.90625 2.453125 -1.03125 2.453125 -1.5625 L 2.453125 -4.796875 L 3.3125 -4.796875 Z M 3.3125 -5.8125 "/>
</g>
<g id="glyph-12-5">
<path d="M 5.765625 -0.1875 C 5.5 -0.4375 5.40625 -0.609375 5.40625 -0.90625 L 5.40625 -4.21875 C 5.40625 -5.421875 4.59375 -6.03125 2.984375 -6.03125 C 1.375 -6.03125 0.53125 -5.359375 0.4375 -3.984375 L 1.921875 -3.984375 C 2 -4.59375 2.25 -4.796875 3.015625 -4.796875 C 3.609375 -4.796875 3.90625 -4.59375 3.90625 -4.203125 C 3.90625 -4 3.8125 -3.84375 3.640625 -3.734375 C 3.4375 -3.625 3.4375 -3.625 2.671875 -3.515625 L 2.0625 -3.40625 C 0.875 -3.203125 0.3125 -2.59375 0.3125 -1.53125 C 0.3125 -0.46875 1.015625 0.25 2.109375 0.25 C 2.765625 0.25 3.359375 -0.015625 3.921875 -0.59375 C 3.921875 -0.28125 3.953125 -0.171875 4.09375 0 L 5.765625 0 Z M 3.90625 -2.390625 C 3.90625 -1.5 3.46875 -0.984375 2.6875 -0.984375 C 2.171875 -0.984375 1.84375 -1.265625 1.84375 -1.703125 C 1.84375 -2.171875 2.09375 -2.390625 2.734375 -2.515625 L 3.25 -2.625 C 3.65625 -2.6875 3.734375 -2.71875 3.90625 -2.8125 Z M 3.90625 -2.390625 "/>
</g>
<g id="glyph-12-6">
<path d="M 4.328125 -5.9375 L 3.109375 -1.609375 L 1.796875 -5.9375 L 0.09375 -5.9375 L 2.3125 0.234375 C 2.3125 0.859375 1.921875 1.28125 1.359375 1.28125 C 1.234375 1.28125 1.140625 1.25 0.953125 1.203125 L 0.953125 2.359375 C 1.171875 2.390625 1.3125 2.40625 1.5 2.40625 C 1.890625 2.40625 2.328125 2.328125 2.609375 2.21875 C 3.03125 2.046875 3.21875 1.796875 3.46875 1.09375 L 5.921875 -5.9375 Z M 4.328125 -5.9375 "/>
</g>
<g id="glyph-12-7">
</g>
<g id="glyph-12-8">
<path d="M 0.65625 -5.9375 L 0.65625 0 L 2.203125 0 L 2.203125 -3.5625 C 2.203125 -4.296875 2.59375 -4.734375 3.25 -4.734375 C 3.765625 -4.734375 4.09375 -4.4375 4.09375 -3.953125 L 4.09375 0 L 5.625 0 L 5.625 -3.5625 C 5.625 -4.296875 6.03125 -4.734375 6.6875 -4.734375 C 7.203125 -4.734375 7.53125 -4.4375 7.53125 -3.953125 L 7.53125 0 L 9.0625 0 L 9.0625 -4.203125 C 9.0625 -5.359375 8.359375 -6.03125 7.171875 -6.03125 C 6.40625 -6.03125 5.890625 -5.78125 5.4375 -5.15625 C 5.140625 -5.71875 4.546875 -6.03125 3.8125 -6.03125 C 3.140625 -6.03125 2.6875 -5.8125 2.1875 -5.203125 L 2.1875 -5.9375 Z M 0.65625 -5.9375 "/>
</g>
<g id="glyph-12-9">
<path d="M 5.765625 -2.484375 C 5.78125 -2.625 5.78125 -2.671875 5.78125 -2.75 C 5.78125 -3.34375 5.6875 -3.890625 5.546875 -4.3125 C 5.140625 -5.390625 4.1875 -6.03125 2.984375 -6.03125 C 1.28125 -6.03125 0.234375 -4.8125 0.234375 -2.8125 C 0.234375 -0.90625 1.28125 0.25 2.953125 0.25 C 4.296875 0.25 5.375 -0.5 5.703125 -1.671875 L 4.1875 -1.671875 C 4 -1.203125 3.578125 -0.921875 3.015625 -0.921875 C 2.578125 -0.921875 2.21875 -1.109375 2 -1.4375 C 1.859375 -1.65625 1.796875 -1.921875 1.78125 -2.484375 Z M 1.796875 -3.515625 C 1.90625 -4.421875 2.28125 -4.859375 2.96875 -4.859375 C 3.671875 -4.859375 4.09375 -4.390625 4.171875 -3.515625 Z M 1.796875 -3.515625 "/>
</g>
<g id="glyph-12-10">
<path d="M 2.625 -5.375 L 2.625 0 L 4.15625 0 L 4.15625 -7.796875 L 3.140625 -7.796875 C 2.890625 -6.875 2.09375 -6.40625 0.75 -6.40625 L 0.75 -5.375 Z M 2.625 -5.375 "/>
</g>
<g id="glyph-12-11">
<path d="M 5.625 -1.375 L 2.328125 -1.375 C 2.53125 -1.796875 2.765625 -2.03125 3.921875 -2.84375 C 5.265625 -3.84375 5.671875 -4.421875 5.671875 -5.484375 C 5.671875 -7 4.625 -7.96875 2.984375 -7.96875 C 1.375 -7.96875 0.421875 -7 0.421875 -5.359375 L 0.421875 -5.078125 L 1.90625 -5.078125 L 1.90625 -5.328125 C 1.90625 -6.203125 2.328125 -6.703125 3.03125 -6.703125 C 3.703125 -6.703125 4.125 -6.234375 4.125 -5.453125 C 4.125 -4.59375 3.859375 -4.265625 2.125 -3.03125 C 0.796875 -2.140625 0.390625 -1.453125 0.328125 0 L 5.625 0 Z M 5.625 -1.375 "/>
</g>
<g id="glyph-13-0">
<path d="M 0.875 0 L 4.484375 0 C 5.25 0 5.8125 -0.203125 6.234375 -0.671875 C 6.640625 -1.09375 6.859375 -1.65625 6.859375 -2.28125 C 6.859375 -3.25 6.40625 -3.84375 5.390625 -4.234375 C 6.125 -4.578125 6.5 -5.15625 6.5 -5.984375 C 6.5 -6.578125 6.28125 -7.078125 5.859375 -7.453125 C 5.4375 -7.84375 4.890625 -8.015625 4.125 -8.015625 L 0.875 -8.015625 Z M 1.890625 -4.5625 L 1.890625 -7.109375 L 3.875 -7.109375 C 4.4375 -7.109375 4.765625 -7.046875 5.03125 -6.828125 C 5.328125 -6.609375 5.484375 -6.28125 5.484375 -5.84375 C 5.484375 -5.40625 5.328125 -5.078125 5.03125 -4.84375 C 4.765625 -4.640625 4.4375 -4.5625 3.875 -4.5625 Z M 1.890625 -0.90625 L 1.890625 -3.65625 L 4.390625 -3.65625 C 5.296875 -3.65625 5.828125 -3.140625 5.828125 -2.28125 C 5.828125 -1.421875 5.296875 -0.90625 4.390625 -0.90625 Z M 1.890625 -0.90625 "/>
</g>
<g id="glyph-13-1">
<path d="M 5.640625 -2.578125 C 5.640625 -3.453125 5.578125 -3.984375 5.40625 -4.40625 C 5.03125 -5.359375 4.15625 -5.921875 3.078125 -5.921875 C 1.46875 -5.921875 0.4375 -4.703125 0.4375 -2.8125 C 0.4375 -0.90625 1.4375 0.25 3.0625 0.25 C 4.375 0.25 5.296875 -0.5 5.515625 -1.75 L 4.59375 -1.75 C 4.34375 -0.984375 3.828125 -0.59375 3.09375 -0.59375 C 2.515625 -0.59375 2.015625 -0.859375 1.703125 -1.34375 C 1.484375 -1.671875 1.40625 -2 1.390625 -2.578125 Z M 1.421875 -3.328125 C 1.5 -4.390625 2.140625 -5.078125 3.0625 -5.078125 C 4 -5.078125 4.65625 -4.359375 4.65625 -3.328125 Z M 1.421875 -3.328125 "/>
</g>
<g id="glyph-13-2">
<path d="M 2.796875 -5.765625 L 1.84375 -5.765625 L 1.84375 -7.34375 L 0.9375 -7.34375 L 0.9375 -5.765625 L 0.15625 -5.765625 L 0.15625 -5.015625 L 0.9375 -5.015625 L 0.9375 -0.65625 C 0.9375 -0.0625 1.328125 0.25 2.046875 0.25 C 2.28125 0.25 2.484375 0.234375 2.796875 0.171875 L 2.796875 -0.59375 C 2.65625 -0.5625 2.546875 -0.546875 2.359375 -0.546875 C 1.953125 -0.546875 1.84375 -0.65625 1.84375 -1.0625 L 1.84375 -5.015625 L 2.796875 -5.015625 Z M 2.796875 -5.765625 "/>
</g>
<g id="glyph-13-3">
<path d="M 6.09375 0 L 7.78125 -5.765625 L 6.75 -5.765625 L 5.609375 -1.28125 L 4.484375 -5.765625 L 3.359375 -5.765625 L 2.25 -1.28125 L 1.078125 -5.765625 L 0.0625 -5.765625 L 1.734375 0 L 2.765625 0 L 3.890625 -4.515625 L 5.046875 0 Z M 6.09375 0 "/>
</g>
<g id="glyph-13-4">
<path d="M 0.765625 -5.765625 L 0.765625 0 L 1.6875 0 L 1.6875 -3.171875 C 1.6875 -4.359375 2.3125 -5.125 3.25 -5.125 C 3.984375 -5.125 4.4375 -4.6875 4.4375 -4 L 4.4375 0 L 5.359375 0 L 5.359375 -4.359375 C 5.359375 -5.3125 4.640625 -5.921875 3.53125 -5.921875 C 2.671875 -5.921875 2.125 -5.59375 1.609375 -4.796875 L 1.609375 -5.765625 Z M 0.765625 -5.765625 "/>
</g>
<g id="glyph-13-5">
<path d="M 3.125 -3.4375 L 0.5 -3.4375 L 0.5 -2.640625 L 3.125 -2.640625 Z M 3.125 -3.4375 "/>
</g>
<g id="glyph-13-6">
<path d="M 5.4375 -8.015625 L 4.53125 -8.015625 L 4.53125 -5.03125 C 4.140625 -5.625 3.53125 -5.921875 2.765625 -5.921875 C 1.265625 -5.921875 0.28125 -4.734375 0.28125 -2.890625 C 0.28125 -0.953125 1.234375 0.25 2.796875 0.25 C 3.59375 0.25 4.140625 -0.046875 4.625 -0.765625 L 4.625 0 L 5.4375 0 Z M 2.921875 -5.078125 C 3.90625 -5.078125 4.53125 -4.203125 4.53125 -2.8125 C 4.53125 -1.484375 3.890625 -0.609375 2.921875 -0.609375 C 1.90625 -0.609375 1.25 -1.5 1.25 -2.84375 C 1.25 -4.1875 1.90625 -5.078125 2.921875 -5.078125 Z M 2.921875 -5.078125 "/>
</g>
<g id="glyph-13-7">
<path d="M 4.265625 -5.765625 L 2.671875 -1.28125 L 1.203125 -5.765625 L 0.21875 -5.765625 L 2.171875 0.015625 L 1.8125 0.9375 C 1.65625 1.34375 1.46875 1.5 1.078125 1.5 C 0.921875 1.5 0.796875 1.46875 0.59375 1.4375 L 0.59375 2.25 C 0.78125 2.359375 0.96875 2.390625 1.203125 2.390625 C 1.5 2.390625 1.828125 2.296875 2.0625 2.125 C 2.359375 1.90625 2.515625 1.671875 2.6875 1.203125 L 5.265625 -5.765625 Z M 4.265625 -5.765625 "/>
</g>
<g id="glyph-13-8">
<path d="M 5.890625 -0.53125 C 5.78125 -0.515625 5.734375 -0.515625 5.6875 -0.515625 C 5.375 -0.515625 5.1875 -0.6875 5.1875 -0.96875 L 5.1875 -4.359375 C 5.1875 -5.375 4.4375 -5.921875 3.03125 -5.921875 C 2.171875 -5.921875 1.5 -5.6875 1.109375 -5.265625 C 0.84375 -4.96875 0.734375 -4.625 0.71875 -4.0625 L 1.640625 -4.0625 C 1.71875 -4.765625 2.140625 -5.078125 2.984375 -5.078125 C 3.828125 -5.078125 4.28125 -4.78125 4.28125 -4.21875 L 4.28125 -3.984375 C 4.265625 -3.59375 4.0625 -3.4375 3.328125 -3.34375 C 2.03125 -3.171875 1.828125 -3.140625 1.46875 -2.984375 C 0.796875 -2.703125 0.46875 -2.203125 0.46875 -1.453125 C 0.46875 -0.40625 1.1875 0.25 2.359375 0.25 C 3.078125 0.25 3.65625 0 4.3125 -0.59375 C 4.375 0 4.65625 0.25 5.265625 0.25 C 5.453125 0.25 5.578125 0.234375 5.890625 0.15625 Z M 4.28125 -1.8125 C 4.28125 -1.5 4.1875 -1.3125 3.921875 -1.0625 C 3.546875 -0.71875 3.09375 -0.546875 2.546875 -0.546875 C 1.84375 -0.546875 1.421875 -0.890625 1.421875 -1.46875 C 1.421875 -2.078125 1.8125 -2.390625 2.8125 -2.53125 C 3.78125 -2.65625 3.96875 -2.703125 4.28125 -2.84375 Z M 4.28125 -1.8125 "/>
</g>
<g id="glyph-13-9">
</g>
<g id="glyph-13-10">
<path d="M 2.859375 -5.765625 L 1.90625 -5.765625 L 1.90625 -6.671875 C 1.90625 -7.046875 2.109375 -7.25 2.546875 -7.25 C 2.625 -7.25 2.65625 -7.25 2.859375 -7.234375 L 2.859375 -8 C 2.65625 -8.046875 2.53125 -8.046875 2.34375 -8.046875 C 1.5 -8.046875 0.984375 -7.5625 0.984375 -6.75 L 0.984375 -5.765625 L 0.21875 -5.765625 L 0.21875 -5.015625 L 0.984375 -5.015625 L 0.984375 0 L 1.90625 0 L 1.90625 -5.015625 L 2.859375 -5.015625 Z M 5.8125 -5.765625 L 4.859375 -5.765625 L 4.859375 -6.671875 C 4.859375 -7.046875 5.078125 -7.25 5.5 -7.25 C 5.578125 -7.25 5.609375 -7.25 5.8125 -7.234375 L 5.8125 -8 C 5.609375 -8.046875 5.484375 -8.046875 5.296875 -8.046875 C 4.453125 -8.046875 3.953125 -7.5625 3.953125 -6.75 L 3.953125 -5.765625 L 3.171875 -5.765625 L 3.171875 -5.015625 L 3.953125 -5.015625 L 3.953125 0 L 4.859375 0 L 4.859375 -5.015625 L 5.8125 -5.015625 Z M 5.8125 -5.765625 "/>
</g>
<g id="glyph-13-11">
<path d="M 5.1875 -3.828125 C 5.140625 -4.390625 5.015625 -4.75 4.796875 -5.078125 C 4.40625 -5.609375 3.703125 -5.921875 2.90625 -5.921875 C 1.34375 -5.921875 0.34375 -4.703125 0.34375 -2.78125 C 0.34375 -0.921875 1.328125 0.25 2.890625 0.25 C 4.265625 0.25 5.140625 -0.578125 5.25 -1.984375 L 4.328125 -1.984375 C 4.171875 -1.0625 3.703125 -0.59375 2.921875 -0.59375 C 1.90625 -0.59375 1.296875 -1.421875 1.296875 -2.78125 C 1.296875 -4.21875 1.890625 -5.078125 2.890625 -5.078125 C 3.65625 -5.078125 4.140625 -4.625 4.25 -3.828125 Z M 5.1875 -3.828125 "/>
</g>
<g id="glyph-13-12">
<path d="M 8.1875 0 L 10.21875 -8.015625 L 9.078125 -8.015625 L 7.59375 -1.5 L 5.78125 -8.015625 L 4.671875 -8.015625 L 2.890625 -1.5 L 1.390625 -8.015625 L 0.234375 -8.015625 L 2.296875 0 L 3.421875 0 L 5.21875 -6.59375 L 7.0625 0 Z M 8.1875 0 "/>
</g>
<g id="glyph-13-13">
<path d="M 1.65625 -5.765625 L 0.734375 -5.765625 L 0.734375 0 L 1.65625 0 Z M 1.65625 -8.015625 L 0.71875 -8.015625 L 0.71875 -6.859375 L 1.65625 -6.859375 Z M 1.65625 -8.015625 "/>
</g>
<g id="glyph-13-14">
<path d="M 0.765625 -8.015625 L 0.765625 0 L 1.6875 0 L 1.6875 -3.171875 C 1.6875 -4.359375 2.296875 -5.125 3.25 -5.125 C 3.546875 -5.125 3.84375 -5.03125 4.0625 -4.875 C 4.328125 -4.671875 4.4375 -4.40625 4.4375 -4 L 4.4375 0 L 5.34375 0 L 5.34375 -4.359375 C 5.34375 -5.328125 4.65625 -5.921875 3.53125 -5.921875 C 2.71875 -5.921875 2.21875 -5.671875 1.6875 -4.96875 L 1.6875 -8.015625 Z M 0.765625 -8.015625 "/>
</g>
</g>
</defs>
<rect x="-64.8" y="-37.4" width="777.6" height="448.8" fill="rgb(100%, 100%, 100%)" fill-opacity="1"/>
<path fill-rule="nonzero" fill="rgb(97.254902%, 98.039216%, 98.823529%)" fill-opacity="1" stroke-width="1.35" stroke-linecap="round" stroke-linejoin="round" stroke="rgb(14.901961%, 19.607843%, 21.960784%)" stroke-opacity="1" stroke-miterlimit="10" d="M 17.148438 108.460938 L 177.25 108.460938 L 177.082031 108.457031 L 177.757812 108.429688 L 178.417969 108.292969 L 179.046875 108.054688 L 179.628906 107.71875 L 180.152344 107.292969 L 180.601562 106.789062 L 180.960938 106.21875 L 181.222656 105.597656 L 181.386719 104.941406 L 181.441406 104.269531 L 181.441406 52.808594 L 181.386719 52.136719 L 181.222656 51.480469 L 180.960938 50.863281 L 180.601562 50.292969 L 180.152344 49.789062 L 179.628906 49.363281 L 179.046875 49.023438 L 178.417969 48.785156 L 177.757812 48.652344 L 177.25 48.621094 L 17.148438 48.621094 L 17.652344 48.652344 L 16.980469 48.625 L 16.3125 48.703125 L 15.664062 48.890625 L 15.054688 49.179688 L 14.5 49.5625 L 14.011719 50.03125 L 13.609375 50.570312 L 13.296875 51.167969 L 13.082031 51.804688 L 12.972656 52.472656 L 12.960938 52.808594 L 12.960938 104.269531 L 12.972656 103.933594 L 12.972656 104.609375 L 13.082031 105.273438 L 13.296875 105.914062 L 13.609375 106.511719 L 14.011719 107.050781 L 14.5 107.515625 L 15.054688 107.898438 L 15.664062 108.1875 L 16.3125 108.375 L 16.980469 108.457031 Z M 17.148438 108.460938 "/>
<g fill="rgb(14.901961%, 19.607843%, 21.960784%)" fill-opacity="1">
<use xlink:href="#glyph-0-0" x="73.8125" y="73.953125"/>
</g>
<path fill="none" stroke-width="0.75" stroke-linecap="round" stroke-linejoin="round" stroke="rgb(14.901961%, 19.607843%, 21.960784%)" stroke-opacity="1" stroke-miterlimit="10" d="M 73.8125 59.890625 L 84.8125 59.890625 "/>
<g fill="rgb(14.901961%, 19.607843%, 21.960784%)" fill-opacity="1">
<use xlink:href="#glyph-1-0" x="87.699219" y="74.140625"/>
</g>
<g fill="rgb(14.901961%, 19.607843%, 21.960784%)" fill-opacity="1">
<use xlink:href="#glyph-1-1" x="103.589844" y="74.140625"/>
</g>
<g fill="rgb(14.901961%, 19.607843%, 21.960784%)" fill-opacity="1">
<use xlink:href="#glyph-2-0" x="113.589844" y="77.652344"/>
</g>
<g fill="rgb(39.215686%, 45.490196%, 54.509804%)" fill-opacity="1">
<use xlink:href="#glyph-3-0" x="41.699219" y="95.054688"/>
<use xlink:href="#glyph-3-1" x="48.699219" y="95.054688"/>
<use xlink:href="#glyph-3-2" x="53.699219" y="95.054688"/>
<use xlink:href="#glyph-3-3" x="58.699219" y="95.054688"/>
<use xlink:href="#glyph-3-4" x="63.699219" y="95.054688"/>
<use xlink:href="#glyph-3-5" x="66.699219" y="95.054688"/>
<use xlink:href="#glyph-3-6" x="74.699219" y="95.054688"/>
<use xlink:href="#glyph-3-2" x="79.699219" y="95.054688"/>
<use xlink:href="#glyph-3-7" x="84.699219" y="95.054688"/>
<use xlink:href="#glyph-3-4" x="89.699219" y="95.054688"/>
<use xlink:href="#glyph-3-8" x="92.699219" y="95.054688"/>
<use xlink:href="#glyph-3-9" x="95.699219" y="95.054688"/>
<use xlink:href="#glyph-3-10" x="102.699219" y="95.054688"/>
<use xlink:href="#glyph-3-11" x="110.699219" y="95.054688"/>
<use xlink:href="#glyph-3-12" x="113.699219" y="95.054688"/>
<use xlink:href="#glyph-3-6" x="118.699219" y="95.054688"/>
<use xlink:href="#glyph-3-7" x="123.699219" y="95.054688"/>
<use xlink:href="#glyph-3-13" x="128.699219" y="95.054688"/>
<use xlink:href="#glyph-3-6" x="131.699219" y="95.054688"/>
<use xlink:href="#glyph-3-14" x="136.699219" y="95.054688"/>
<use xlink:href="#glyph-3-6" x="139.699219" y="95.054688"/>
<use xlink:href="#glyph-3-3" x="144.699219" y="95.054688"/>
<use xlink:href="#glyph-3-15" x="149.699219" y="95.054688"/>
</g>
<path fill-rule="nonzero" fill="rgb(97.254902%, 98.039216%, 98.823529%)" fill-opacity="1" stroke-width="1.35" stroke-linecap="round" stroke-linejoin="round" stroke="rgb(14.901961%, 19.607843%, 21.960784%)" stroke-opacity="1" stroke-miterlimit="10" d="M 17.148438 179.519531 L 177.25 179.519531 L 177.082031 179.515625 L 177.757812 179.488281 L 178.417969 179.355469 L 179.046875 179.117188 L 179.628906 178.777344 L 180.152344 178.351562 L 180.601562 177.847656 L 180.960938 177.277344 L 181.222656 176.65625 L 181.386719 176.003906 L 181.441406 175.332031 L 181.441406 123.867188 L 181.386719 123.195312 L 181.222656 122.542969 L 180.960938 121.921875 L 180.601562 121.351562 L 180.152344 120.847656 L 179.628906 120.421875 L 179.046875 120.085938 L 178.417969 119.84375 L 177.757812 119.710938 L 177.25 119.679688 L 17.148438 119.679688 L 17.652344 119.710938 L 16.980469 119.683594 L 16.3125 119.765625 L 15.664062 119.953125 L 15.054688 120.242188 L 14.5 120.625 L 14.011719 121.089844 L 13.609375 121.628906 L 13.296875 122.226562 L 13.082031 122.867188 L 12.972656 123.53125 L 12.960938 123.867188 L 12.960938 175.332031 L 12.972656 174.996094 L 12.972656 175.667969 L 13.082031 176.332031 L 13.296875 176.972656 L 13.609375 177.570312 L 14.011719 178.109375 L 14.5 178.574219 L 15.054688 178.957031 L 15.664062 179.246094 L 16.3125 179.433594 L 16.980469 179.515625 Z M 17.148438 179.519531 "/>
<g fill="rgb(14.901961%, 19.607843%, 21.960784%)" fill-opacity="1">
<use xlink:href="#glyph-0-0" x="73.8125" y="145.015625"/>
</g>
<g fill="rgb(14.901961%, 19.607843%, 21.960784%)" fill-opacity="1">
<use xlink:href="#glyph-2-1" x="84.8125" y="148.714844"/>
</g>
<g fill="rgb(14.901961%, 19.607843%, 21.960784%)" fill-opacity="1">
<use xlink:href="#glyph-1-0" x="93.699219" y="145.203125"/>
</g>
<g fill="rgb(14.901961%, 19.607843%, 21.960784%)" fill-opacity="1">
<use xlink:href="#glyph-0-0" x="109.589844" y="145.015625"/>
</g>
<path fill="none" stroke-width="0.75" stroke-linecap="round" stroke-linejoin="round" stroke="rgb(14.901961%, 19.607843%, 21.960784%)" stroke-opacity="1" stroke-miterlimit="10" d="M 109.589844 130.949219 L 120.589844 130.949219 "/>
<g fill="rgb(39.215686%, 45.490196%, 54.509804%)" fill-opacity="1">
<use xlink:href="#glyph-3-16" x="34.199219" y="166.117188"/>
<use xlink:href="#glyph-3-17" x="43.199219" y="166.117188"/>
<use xlink:href="#glyph-3-13" x="45.199219" y="166.117188"/>
<use xlink:href="#glyph-3-18" x="48.199219" y="166.117188"/>
<use xlink:href="#glyph-3-17" x="53.199219" y="166.117188"/>
<use xlink:href="#glyph-3-7" x="55.199219" y="166.117188"/>
<use xlink:href="#glyph-3-11" x="60.199219" y="166.117188"/>
<use xlink:href="#glyph-3-3" x="63.199219" y="166.117188"/>
<use xlink:href="#glyph-3-1" x="68.199219" y="166.117188"/>
<use xlink:href="#glyph-3-2" x="73.199219" y="166.117188"/>
<use xlink:href="#glyph-3-3" x="78.199219" y="166.117188"/>
<use xlink:href="#glyph-3-4" x="83.199219" y="166.117188"/>
<use xlink:href="#glyph-3-5" x="86.199219" y="166.117188"/>
<use xlink:href="#glyph-3-6" x="94.199219" y="166.117188"/>
<use xlink:href="#glyph-3-5" x="99.199219" y="166.117188"/>
<use xlink:href="#glyph-3-19" x="107.199219" y="166.117188"/>
<use xlink:href="#glyph-3-6" x="112.199219" y="166.117188"/>
<use xlink:href="#glyph-3-14" x="117.199219" y="166.117188"/>
<use xlink:href="#glyph-3-4" x="120.199219" y="166.117188"/>
<use xlink:href="#glyph-3-3" x="123.199219" y="166.117188"/>
<use xlink:href="#glyph-3-6" x="128.199219" y="166.117188"/>
<use xlink:href="#glyph-3-20" x="133.199219" y="166.117188"/>
<use xlink:href="#glyph-3-17" x="138.199219" y="166.117188"/>
<use xlink:href="#glyph-3-2" x="140.199219" y="166.117188"/>
<use xlink:href="#glyph-3-13" x="145.199219" y="166.117188"/>
<use xlink:href="#glyph-3-17" x="148.199219" y="166.117188"/>
<use xlink:href="#glyph-3-21" x="150.199219" y="166.117188"/>
<use xlink:href="#glyph-3-7" x="155.199219" y="166.117188"/>
</g>
<path fill-rule="nonzero" fill="rgb(97.254902%, 98.039216%, 98.823529%)" fill-opacity="1" stroke-width="1.35" stroke-linecap="round" stroke-linejoin="round" stroke="rgb(14.901961%, 19.607843%, 21.960784%)" stroke-opacity="1" stroke-miterlimit="10" d="M 17.148438 254.320312 L 177.25 254.320312 L 177.082031 254.316406 L 177.757812 254.289062 L 178.417969 254.15625 L 179.046875 253.914062 L 179.628906 253.578125 L 180.152344 253.152344 L 180.601562 252.648438 L 180.960938 252.078125 L 181.222656 251.457031 L 181.386719 250.804688 L 181.441406 250.132812 L 181.441406 198.667969 L 181.386719 197.996094 L 181.222656 197.34375 L 180.960938 196.722656 L 180.601562 196.152344 L 180.152344 195.648438 L 179.628906 195.222656 L 179.046875 194.882812 L 178.417969 194.644531 L 177.757812 194.511719 L 177.25 194.480469 L 17.148438 194.480469 L 17.652344 194.511719 L 16.980469 194.484375 L 16.3125 194.566406 L 15.664062 194.753906 L 15.054688 195.042969 L 14.5 195.425781 L 14.011719 195.890625 L 13.609375 196.429688 L 13.296875 197.027344 L 13.082031 197.667969 L 12.972656 198.332031 L 12.960938 198.667969 L 12.960938 250.132812 L 12.972656 249.792969 L 12.972656 250.46875 L 13.082031 251.132812 L 13.296875 251.773438 L 13.609375 252.371094 L 14.011719 252.910156 L 14.5 253.375 L 15.054688 253.757812 L 15.664062 254.046875 L 16.3125 254.234375 L 16.980469 254.316406 Z M 17.148438 254.320312 "/>
<g fill="rgb(14.901961%, 19.607843%, 21.960784%)" fill-opacity="1">
<use xlink:href="#glyph-0-0" x="73.8125" y="219.8125"/>
</g>
<path fill="none" stroke-width="0.75" stroke-linecap="round" stroke-linejoin="round" stroke="rgb(14.901961%, 19.607843%, 21.960784%)" stroke-opacity="1" stroke-miterlimit="10" d="M 73.8125 205.75 L 84.8125 205.75 "/>
<g fill="rgb(14.901961%, 19.607843%, 21.960784%)" fill-opacity="1">
<use xlink:href="#glyph-1-0" x="87.699219" y="220"/>
</g>
<g fill="rgb(14.901961%, 19.607843%, 21.960784%)" fill-opacity="1">
<use xlink:href="#glyph-1-1" x="103.589844" y="220"/>
</g>
<g fill="rgb(14.901961%, 19.607843%, 21.960784%)" fill-opacity="1">
<use xlink:href="#glyph-2-0" x="113.589844" y="223.515625"/>
</g>
<g fill="rgb(39.215686%, 45.490196%, 54.509804%)" fill-opacity="1">
<use xlink:href="#glyph-3-0" x="41.699219" y="240.914062"/>
<use xlink:href="#glyph-3-1" x="48.699219" y="240.914062"/>
<use xlink:href="#glyph-3-2" x="53.699219" y="240.914062"/>
<use xlink:href="#glyph-3-3" x="58.699219" y="240.914062"/>
<use xlink:href="#glyph-3-4" x="63.699219" y="240.914062"/>
<use xlink:href="#glyph-3-5" x="66.699219" y="240.914062"/>
<use xlink:href="#glyph-3-6" x="74.699219" y="240.914062"/>
<use xlink:href="#glyph-3-2" x="79.699219" y="240.914062"/>
<use xlink:href="#glyph-3-7" x="84.699219" y="240.914062"/>
<use xlink:href="#glyph-3-4" x="89.699219" y="240.914062"/>
<use xlink:href="#glyph-3-8" x="92.699219" y="240.914062"/>
<use xlink:href="#glyph-3-9" x="95.699219" y="240.914062"/>
<use xlink:href="#glyph-3-10" x="102.699219" y="240.914062"/>
<use xlink:href="#glyph-3-11" x="110.699219" y="240.914062"/>
<use xlink:href="#glyph-3-12" x="113.699219" y="240.914062"/>
<use xlink:href="#glyph-3-6" x="118.699219" y="240.914062"/>
<use xlink:href="#glyph-3-7" x="123.699219" y="240.914062"/>
<use xlink:href="#glyph-3-13" x="128.699219" y="240.914062"/>
<use xlink:href="#glyph-3-6" x="131.699219" y="240.914062"/>
<use xlink:href="#glyph-3-14" x="136.699219" y="240.914062"/>
<use xlink:href="#glyph-3-6" x="139.699219" y="240.914062"/>
<use xlink:href="#glyph-3-3" x="144.699219" y="240.914062"/>
<use xlink:href="#glyph-3-15" x="149.699219" y="240.914062"/>
</g>
<path fill-rule="nonzero" fill="rgb(97.254902%, 98.039216%, 98.823529%)" fill-opacity="1" stroke-width="1.35" stroke-linecap="round" stroke-linejoin="round" stroke="rgb(14.901961%, 19.607843%, 21.960784%)" stroke-opacity="1" stroke-miterlimit="10" d="M 17.148438 325.378906 L 177.25 325.378906 L 177.082031 325.375 L 177.757812 325.347656 L 178.417969 325.214844 L 179.046875 324.976562 L 179.628906 324.636719 L 180.152344 324.210938 L 180.601562 323.707031 L 180.960938 323.136719 L 181.222656 322.519531 L 181.386719 321.863281 L 181.441406 321.191406 L 181.441406 269.730469 L 181.386719 269.058594 L 181.222656 268.402344 L 180.960938 267.78125 L 180.601562 267.210938 L 180.152344 266.707031 L 179.628906 266.28125 L 179.046875 265.945312 L 178.417969 265.707031 L 177.757812 265.570312 L 177.25 265.539062 L 17.148438 265.539062 L 17.652344 265.570312 L 16.980469 265.542969 L 16.3125 265.625 L 15.664062 265.8125 L 15.054688 266.101562 L 14.5 266.484375 L 14.011719 266.949219 L 13.609375 267.488281 L 13.296875 268.085938 L 13.082031 268.726562 L 12.972656 269.390625 L 12.960938 269.730469 L 12.960938 321.191406 L 12.972656 320.855469 L 12.972656 321.527344 L 13.082031 322.195312 L 13.296875 322.832031 L 13.609375 323.429688 L 14.011719 323.96875 L 14.5 324.4375 L 15.054688 324.820312 L 15.664062 325.109375 L 16.3125 325.296875 L 16.980469 325.375 Z M 17.148438 325.378906 "/>
<g fill="rgb(14.901961%, 19.607843%, 21.960784%)" fill-opacity="1">
<use xlink:href="#glyph-0-0" x="73.8125" y="290.875"/>
</g>
<g fill="rgb(14.901961%, 19.607843%, 21.960784%)" fill-opacity="1">
<use xlink:href="#glyph-2-2" x="84.8125" y="294.574219"/>
</g>
<g fill="rgb(14.901961%, 19.607843%, 21.960784%)" fill-opacity="1">
<use xlink:href="#glyph-1-0" x="93.699219" y="291.0625"/>
</g>
<g fill="rgb(14.901961%, 19.607843%, 21.960784%)" fill-opacity="1">
<use xlink:href="#glyph-0-0" x="109.589844" y="290.875"/>
</g>
<path fill="none" stroke-width="0.75" stroke-linecap="round" stroke-linejoin="round" stroke="rgb(14.901961%, 19.607843%, 21.960784%)" stroke-opacity="1" stroke-miterlimit="10" d="M 109.589844 276.808594 L 120.589844 276.808594 "/>
<g fill="rgb(39.215686%, 45.490196%, 54.509804%)" fill-opacity="1">
<use xlink:href="#glyph-3-16" x="34.199219" y="311.976562"/>
<use xlink:href="#glyph-3-17" x="43.199219" y="311.976562"/>
<use xlink:href="#glyph-3-13" x="45.199219" y="311.976562"/>
<use xlink:href="#glyph-3-18" x="48.199219" y="311.976562"/>
<use xlink:href="#glyph-3-17" x="53.199219" y="311.976562"/>
<use xlink:href="#glyph-3-7" x="55.199219" y="311.976562"/>
<use xlink:href="#glyph-3-11" x="60.199219" y="311.976562"/>
<use xlink:href="#glyph-3-3" x="63.199219" y="311.976562"/>
<use xlink:href="#glyph-3-1" x="68.199219" y="311.976562"/>
<use xlink:href="#glyph-3-2" x="73.199219" y="311.976562"/>
<use xlink:href="#glyph-3-3" x="78.199219" y="311.976562"/>
<use xlink:href="#glyph-3-4" x="83.199219" y="311.976562"/>
<use xlink:href="#glyph-3-5" x="86.199219" y="311.976562"/>
<use xlink:href="#glyph-3-6" x="94.199219" y="311.976562"/>
<use xlink:href="#glyph-3-5" x="99.199219" y="311.976562"/>
<use xlink:href="#glyph-3-19" x="107.199219" y="311.976562"/>
<use xlink:href="#glyph-3-6" x="112.199219" y="311.976562"/>
<use xlink:href="#glyph-3-14" x="117.199219" y="311.976562"/>
<use xlink:href="#glyph-3-4" x="120.199219" y="311.976562"/>
<use xlink:href="#glyph-3-3" x="123.199219" y="311.976562"/>
<use xlink:href="#glyph-3-6" x="128.199219" y="311.976562"/>
<use xlink:href="#glyph-3-20" x="133.199219" y="311.976562"/>
<use xlink:href="#glyph-3-17" x="138.199219" y="311.976562"/>
<use xlink:href="#glyph-3-2" x="140.199219" y="311.976562"/>
<use xlink:href="#glyph-3-13" x="145.199219" y="311.976562"/>
<use xlink:href="#glyph-3-17" x="148.199219" y="311.976562"/>
<use xlink:href="#glyph-3-21" x="150.199219" y="311.976562"/>
<use xlink:href="#glyph-3-7" x="155.199219" y="311.976562"/>
</g>
<path fill-rule="nonzero" fill="rgb(97.254902%, 98.039216%, 98.823529%)" fill-opacity="1" stroke-width="1.35" stroke-linecap="round" stroke-linejoin="round" stroke="rgb(14.901961%, 19.607843%, 21.960784%)" stroke-opacity="1" stroke-miterlimit="10" d="M 354.109375 143.988281 L 501.25 143.988281 L 501.082031 143.988281 L 501.757812 143.960938 L 502.417969 143.824219 L 503.046875 143.585938 L 503.628906 143.25 L 504.152344 142.820312 L 504.601562 142.316406 L 504.960938 141.746094 L 505.222656 141.128906 L 505.386719 140.472656 L 505.441406 139.800781 L 505.441406 88.339844 L 505.386719 87.667969 L 505.222656 87.011719 L 504.960938 86.390625 L 504.601562 85.824219 L 504.152344 85.316406 L 503.628906 84.890625 L 503.046875 84.554688 L 502.417969 84.316406 L 501.757812 84.179688 L 501.25 84.148438 L 354.109375 84.148438 L 354.613281 84.179688 L 353.941406 84.152344 L 353.269531 84.234375 L 352.625 84.421875 L 352.015625 84.710938 L 351.460938 85.09375 L 350.972656 85.5625 L 350.570312 86.101562 L 350.253906 86.695312 L 350.042969 87.335938 L 349.933594 88 L 349.921875 88.339844 L 349.921875 139.800781 L 349.933594 139.464844 L 349.933594 140.136719 L 350.042969 140.804688 L 350.253906 141.441406 L 350.570312 142.039062 L 350.972656 142.578125 L 351.460938 143.046875 L 352.015625 143.429688 L 352.625 143.71875 L 353.269531 143.90625 L 353.941406 143.988281 Z M 354.109375 143.988281 "/>
<g fill="rgb(14.901961%, 19.607843%, 21.960784%)" fill-opacity="1">
<use xlink:href="#glyph-0-1" x="419.179688" y="108.285156"/>
</g>
<g fill="rgb(14.901961%, 19.607843%, 21.960784%)" fill-opacity="1">
<use xlink:href="#glyph-2-1" x="430.179688" y="111.984375"/>
</g>
<g fill="rgb(39.215686%, 45.490196%, 54.509804%)" fill-opacity="1">
<use xlink:href="#glyph-3-22" x="408.679688" y="130.585938"/>
<use xlink:href="#glyph-3-23" x="415.679688" y="130.585938"/>
<use xlink:href="#glyph-3-13" x="420.679688" y="130.585938"/>
<use xlink:href="#glyph-3-12" x="423.679688" y="130.585938"/>
<use xlink:href="#glyph-3-21" x="428.679688" y="130.585938"/>
<use xlink:href="#glyph-3-5" x="433.679688" y="130.585938"/>
<use xlink:href="#glyph-3-6" x="441.679688" y="130.585938"/>
</g>
<path fill-rule="nonzero" fill="rgb(97.254902%, 98.039216%, 98.823529%)" fill-opacity="1" stroke-width="1.35" stroke-linecap="round" stroke-linejoin="round" stroke="rgb(14.901961%, 19.607843%, 21.960784%)" stroke-opacity="1" stroke-miterlimit="10" d="M 354.109375 289.851562 L 501.25 289.851562 L 501.082031 289.847656 L 501.757812 289.820312 L 502.417969 289.683594 L 503.046875 289.445312 L 503.628906 289.109375 L 504.152344 288.683594 L 504.601562 288.175781 L 504.960938 287.609375 L 505.222656 286.988281 L 505.386719 286.332031 L 505.441406 285.660156 L 505.441406 234.199219 L 505.386719 233.527344 L 505.222656 232.871094 L 504.960938 232.253906 L 504.601562 231.683594 L 504.152344 231.179688 L 503.628906 230.75 L 503.046875 230.414062 L 502.417969 230.175781 L 501.757812 230.039062 L 501.25 230.011719 L 354.109375 230.011719 L 354.613281 230.039062 L 353.941406 230.011719 L 353.269531 230.09375 L 352.625 230.28125 L 352.015625 230.570312 L 351.460938 230.953125 L 350.972656 231.421875 L 350.570312 231.960938 L 350.253906 232.558594 L 350.042969 233.195312 L 349.933594 233.863281 L 349.921875 234.199219 L 349.921875 285.660156 L 349.933594 285.324219 L 349.933594 286 L 350.042969 286.664062 L 350.253906 287.304688 L 350.570312 287.898438 L 350.972656 288.4375 L 351.460938 288.90625 L 352.015625 289.289062 L 352.625 289.578125 L 353.269531 289.765625 L 353.941406 289.847656 Z M 354.109375 289.851562 "/>
<g fill="rgb(14.901961%, 19.607843%, 21.960784%)" fill-opacity="1">
<use xlink:href="#glyph-0-1" x="419.179688" y="254.144531"/>
</g>
<g fill="rgb(14.901961%, 19.607843%, 21.960784%)" fill-opacity="1">
<use xlink:href="#glyph-2-2" x="430.179688" y="257.84375"/>
</g>
<g fill="rgb(39.215686%, 45.490196%, 54.509804%)" fill-opacity="1">
<use xlink:href="#glyph-3-22" x="408.679688" y="276.445312"/>
<use xlink:href="#glyph-3-23" x="415.679688" y="276.445312"/>
<use xlink:href="#glyph-3-13" x="420.679688" y="276.445312"/>
<use xlink:href="#glyph-3-12" x="423.679688" y="276.445312"/>
<use xlink:href="#glyph-3-21" x="428.679688" y="276.445312"/>
<use xlink:href="#glyph-3-5" x="433.679688" y="276.445312"/>
<use xlink:href="#glyph-3-6" x="441.679688" y="276.445312"/>
</g>
<path fill-rule="nonzero" fill="rgb(100%, 100%, 100%)" fill-opacity="1" stroke-width="1.35" stroke-linecap="round" stroke-linejoin="round" stroke="rgb(14.901961%, 19.607843%, 21.960784%)" stroke-opacity="1" stroke-miterlimit="10" d="M 607.257812 114.070312 C 607.257812 123.777344 599.386719 131.648438 589.679688 131.648438 C 579.972656 131.648438 572.101562 123.777344 572.101562 114.070312 C 572.101562 104.363281 579.972656 96.492188 589.679688 96.492188 C 599.386719 96.492188 607.257812 104.363281 607.257812 114.070312 "/>
<g fill="rgb(14.901961%, 19.607843%, 21.960784%)" fill-opacity="1">
<use xlink:href="#glyph-4-0" x="582.679688" y="116.892578"/>
</g>
<g fill="rgb(14.901961%, 19.607843%, 21.960784%)" fill-opacity="1">
<use xlink:href="#glyph-5-0" x="590.679688" y="119.826172"/>
</g>
<path fill-rule="nonzero" fill="rgb(100%, 100%, 100%)" fill-opacity="1" stroke-width="1.35" stroke-linecap="round" stroke-linejoin="round" stroke="rgb(14.901961%, 19.607843%, 21.960784%)" stroke-opacity="1" stroke-miterlimit="10" d="M 607.257812 259.929688 C 607.257812 269.636719 599.386719 277.507812 589.679688 277.507812 C 579.972656 277.507812 572.101562 269.636719 572.101562 259.929688 C 572.101562 250.222656 579.972656 242.351562 589.679688 242.351562 C 599.386719 242.351562 607.257812 250.222656 607.257812 259.929688 "/>
<g fill="rgb(14.901961%, 19.607843%, 21.960784%)" fill-opacity="1">
<use xlink:href="#glyph-4-0" x="582.679688" y="262.751953"/>
</g>
<g fill="rgb(14.901961%, 19.607843%, 21.960784%)" fill-opacity="1">
<use xlink:href="#glyph-5-1" x="590.679688" y="265.685547"/>
</g>
<path fill="none" stroke-width="1.65" stroke-linecap="round" stroke-linejoin="round" stroke="rgb(76.862745%, 23.529412%, 20.784314%)" stroke-opacity="1" stroke-miterlimit="10" d="M 181.441406 78.539062 L 349.921875 106.589844 "/>
<path fill-rule="nonzero" fill="rgb(76.862745%, 23.529412%, 20.784314%)" fill-opacity="1" stroke-width="1.65" stroke-linecap="round" stroke-linejoin="round" stroke="rgb(76.862745%, 23.529412%, 20.784314%)" stroke-opacity="1" stroke-miterlimit="10" d="M 339.679688 110.027344 L 349.921875 106.589844 L 341.347656 100.023438 Z M 339.679688 110.027344 "/>
<path fill="none" stroke-width="1.65" stroke-linecap="round" stroke-linejoin="round" stroke="rgb(54.117647%, 39.607843%, 0%)" stroke-opacity="1" stroke-miterlimit="10" d="M 181.441406 149.601562 L 349.921875 121.550781 "/>
<path fill-rule="nonzero" fill="rgb(54.117647%, 39.607843%, 0%)" fill-opacity="1" stroke-width="1.65" stroke-linecap="round" stroke-linejoin="round" stroke="rgb(54.117647%, 39.607843%, 0%)" stroke-opacity="1" stroke-miterlimit="10" d="M 341.347656 128.117188 L 349.921875 121.550781 L 339.679688 118.113281 Z M 341.347656 128.117188 "/>
<path fill="none" stroke-width="1.65" stroke-linecap="round" stroke-linejoin="round" stroke="rgb(76.862745%, 23.529412%, 20.784314%)" stroke-opacity="1" stroke-miterlimit="10" d="M 181.441406 224.398438 L 349.921875 252.449219 "/>
<path fill-rule="nonzero" fill="rgb(76.862745%, 23.529412%, 20.784314%)" fill-opacity="1" stroke-width="1.65" stroke-linecap="round" stroke-linejoin="round" stroke="rgb(76.862745%, 23.529412%, 20.784314%)" stroke-opacity="1" stroke-miterlimit="10" d="M 339.679688 255.886719 L 349.921875 252.449219 L 341.347656 245.882812 Z M 339.679688 255.886719 "/>
<path fill="none" stroke-width="1.65" stroke-linecap="round" stroke-linejoin="round" stroke="rgb(54.117647%, 39.607843%, 0%)" stroke-opacity="1" stroke-miterlimit="10" d="M 181.441406 295.460938 L 349.921875 267.410156 "/>
<path fill-rule="nonzero" fill="rgb(54.117647%, 39.607843%, 0%)" fill-opacity="1" stroke-width="1.65" stroke-linecap="round" stroke-linejoin="round" stroke="rgb(54.117647%, 39.607843%, 0%)" stroke-opacity="1" stroke-miterlimit="10" d="M 341.347656 273.976562 L 349.921875 267.410156 L 339.679688 263.972656 Z M 341.347656 273.976562 "/>
<path fill-rule="nonzero" fill="rgb(100%, 100%, 100%)" fill-opacity="1" d="M 240.539062 102.277344 L 277.863281 102.277344 L 277.847656 102.277344 L 277.90625 102.273438 L 277.96875 102.261719 L 278.027344 102.242188 L 278.078125 102.210938 L 278.125 102.171875 L 278.167969 102.125 L 278.199219 102.074219 L 278.222656 102.019531 L 278.238281 101.957031 L 278.242188 101.898438 L 278.242188 83.605469 L 278.238281 83.546875 L 278.222656 83.488281 L 278.199219 83.429688 L 278.167969 83.378906 L 278.125 83.332031 L 278.078125 83.292969 L 278.027344 83.261719 L 277.96875 83.242188 L 277.90625 83.230469 L 277.863281 83.226562 L 240.539062 83.226562 L 240.582031 83.230469 L 240.523438 83.226562 L 240.460938 83.234375 L 240.402344 83.25 L 240.347656 83.277344 L 240.296875 83.3125 L 240.253906 83.355469 L 240.214844 83.402344 L 240.1875 83.457031 L 240.167969 83.515625 L 240.15625 83.578125 L 240.15625 101.898438 L 240.15625 101.867188 L 240.15625 101.925781 L 240.167969 101.988281 L 240.1875 102.046875 L 240.214844 102.101562 L 240.253906 102.148438 L 240.296875 102.191406 L 240.347656 102.226562 L 240.402344 102.253906 L 240.460938 102.269531 L 240.523438 102.277344 Z M 240.539062 102.277344 "/>
<g fill="rgb(76.862745%, 23.529412%, 20.784314%)" fill-opacity="1">
<use xlink:href="#glyph-6-0" x="243.699219" y="95.557617"/>
</g>
<g fill="rgb(76.862745%, 23.529412%, 20.784314%)" fill-opacity="1">
<use xlink:href="#glyph-7-0" x="251.699219" y="98.296875"/>
</g>
<g fill="rgb(76.862745%, 23.529412%, 20.784314%)" fill-opacity="1">
<use xlink:href="#glyph-7-1" x="259.699219" y="98.296875"/>
</g>
<g fill="rgb(76.862745%, 23.529412%, 20.784314%)" fill-opacity="1">
<use xlink:href="#glyph-7-2" x="264.699219" y="98.296875"/>
</g>
<g fill="rgb(76.862745%, 23.529412%, 20.784314%)" fill-opacity="1">
<use xlink:href="#glyph-7-3" x="269.699219" y="98.296875"/>
</g>
<path fill-rule="nonzero" fill="rgb(100%, 100%, 100%)" fill-opacity="1" d="M 244.546875 145.113281 L 273.855469 145.113281 L 273.839844 145.113281 L 273.902344 145.109375 L 273.960938 145.097656 L 274.019531 145.078125 L 274.074219 145.046875 L 274.125 145.003906 L 274.164062 144.957031 L 274.199219 144.90625 L 274.222656 144.847656 L 274.238281 144.789062 L 274.242188 144.726562 L 274.242188 126.050781 L 274.238281 125.988281 L 274.222656 125.929688 L 274.199219 125.871094 L 274.164062 125.816406 L 274.125 125.769531 L 274.074219 125.730469 L 274.019531 125.699219 L 273.960938 125.675781 L 273.902344 125.664062 L 273.855469 125.660156 L 244.546875 125.660156 L 244.59375 125.664062 L 244.53125 125.664062 L 244.46875 125.667969 L 244.40625 125.6875 L 244.351562 125.714844 L 244.300781 125.75 L 244.253906 125.792969 L 244.21875 125.84375 L 244.1875 125.898438 L 244.167969 125.957031 L 244.15625 126.019531 L 244.15625 144.726562 L 244.15625 144.695312 L 244.15625 144.757812 L 244.167969 144.816406 L 244.1875 144.878906 L 244.21875 144.933594 L 244.253906 144.984375 L 244.300781 145.027344 L 244.351562 145.0625 L 244.40625 145.089844 L 244.46875 145.105469 L 244.53125 145.113281 Z M 244.546875 145.113281 "/>
<g fill="rgb(54.117647%, 39.607843%, 0%)" fill-opacity="1">
<use xlink:href="#glyph-6-0" x="247.699219" y="137.995117"/>
</g>
<g fill="rgb(54.117647%, 39.607843%, 0%)" fill-opacity="1">
<use xlink:href="#glyph-7-4" x="255.699219" y="141.132812"/>
</g>
<g fill="rgb(54.117647%, 39.607843%, 0%)" fill-opacity="1">
<use xlink:href="#glyph-7-1" x="260.699219" y="141.132812"/>
</g>
<g fill="rgb(54.117647%, 39.607843%, 0%)" fill-opacity="1">
<use xlink:href="#glyph-7-5" x="265.699219" y="141.132812"/>
</g>
<path fill-rule="nonzero" fill="rgb(100%, 100%, 100%)" fill-opacity="1" d="M 240.539062 248.136719 L 277.863281 248.136719 L 277.847656 248.136719 L 277.90625 248.136719 L 277.96875 248.121094 L 278.027344 248.101562 L 278.078125 248.070312 L 278.125 248.03125 L 278.167969 247.984375 L 278.199219 247.933594 L 278.222656 247.878906 L 278.238281 247.816406 L 278.242188 247.757812 L 278.242188 229.46875 L 278.238281 229.40625 L 278.222656 229.347656 L 278.199219 229.289062 L 278.167969 229.238281 L 278.125 229.191406 L 278.078125 229.152344 L 278.027344 229.121094 L 277.96875 229.101562 L 277.90625 229.089844 L 277.863281 229.085938 L 240.539062 229.085938 L 240.582031 229.089844 L 240.523438 229.085938 L 240.460938 229.09375 L 240.402344 229.109375 L 240.347656 229.136719 L 240.296875 229.171875 L 240.253906 229.214844 L 240.214844 229.261719 L 240.1875 229.316406 L 240.167969 229.375 L 240.15625 229.4375 L 240.15625 247.757812 L 240.15625 247.726562 L 240.15625 247.789062 L 240.167969 247.847656 L 240.1875 247.90625 L 240.214844 247.960938 L 240.253906 248.007812 L 240.296875 248.050781 L 240.347656 248.085938 L 240.402344 248.113281 L 240.460938 248.128906 L 240.523438 248.136719 Z M 240.539062 248.136719 "/>
<g fill="rgb(76.862745%, 23.529412%, 20.784314%)" fill-opacity="1">
<use xlink:href="#glyph-6-0" x="243.699219" y="241.416992"/>
</g>
<g fill="rgb(76.862745%, 23.529412%, 20.784314%)" fill-opacity="1">
<use xlink:href="#glyph-7-0" x="251.699219" y="244.15625"/>
</g>
<g fill="rgb(76.862745%, 23.529412%, 20.784314%)" fill-opacity="1">
<use xlink:href="#glyph-7-1" x="259.699219" y="244.15625"/>
</g>
<g fill="rgb(76.862745%, 23.529412%, 20.784314%)" fill-opacity="1">
<use xlink:href="#glyph-7-2" x="264.699219" y="244.15625"/>
</g>
<g fill="rgb(76.862745%, 23.529412%, 20.784314%)" fill-opacity="1">
<use xlink:href="#glyph-7-3" x="269.699219" y="244.15625"/>
</g>
<path fill-rule="nonzero" fill="rgb(100%, 100%, 100%)" fill-opacity="1" d="M 244.546875 290.972656 L 273.855469 290.972656 L 273.839844 290.972656 L 273.902344 290.972656 L 273.960938 290.957031 L 274.019531 290.9375 L 274.074219 290.90625 L 274.125 290.867188 L 274.164062 290.820312 L 274.199219 290.765625 L 274.222656 290.707031 L 274.238281 290.648438 L 274.242188 290.585938 L 274.242188 271.910156 L 274.238281 271.847656 L 274.222656 271.789062 L 274.199219 271.730469 L 274.164062 271.675781 L 274.125 271.628906 L 274.074219 271.589844 L 274.019531 271.558594 L 273.960938 271.539062 L 273.902344 271.523438 L 244.546875 271.523438 L 244.59375 271.523438 L 244.53125 271.523438 L 244.46875 271.53125 L 244.40625 271.546875 L 244.351562 271.574219 L 244.300781 271.609375 L 244.253906 271.652344 L 244.21875 271.703125 L 244.1875 271.757812 L 244.167969 271.816406 L 244.15625 271.878906 L 244.15625 290.585938 L 244.15625 290.554688 L 244.15625 290.617188 L 244.167969 290.679688 L 244.1875 290.738281 L 244.21875 290.792969 L 244.253906 290.84375 L 244.300781 290.886719 L 244.351562 290.921875 L 244.40625 290.949219 L 244.46875 290.964844 L 244.53125 290.972656 Z M 244.546875 290.972656 "/>
<g fill="rgb(54.117647%, 39.607843%, 0%)" fill-opacity="1">
<use xlink:href="#glyph-6-0" x="247.699219" y="283.854492"/>
</g>
<g fill="rgb(54.117647%, 39.607843%, 0%)" fill-opacity="1">
<use xlink:href="#glyph-7-4" x="255.699219" y="286.992188"/>
</g>
<g fill="rgb(54.117647%, 39.607843%, 0%)" fill-opacity="1">
<use xlink:href="#glyph-7-1" x="260.699219" y="286.992188"/>
</g>
<g fill="rgb(54.117647%, 39.607843%, 0%)" fill-opacity="1">
<use xlink:href="#glyph-7-5" x="265.699219" y="286.992188"/>
</g>
<path fill="none" stroke-width="1.65" stroke-linecap="round" stroke-linejoin="round" stroke="rgb(39.215686%, 45.490196%, 54.509804%)" stroke-opacity="1" stroke-miterlimit="10" d="M 557.28125 114.070312 L 505.441406 114.070312 "/>
<path fill-rule="nonzero" fill="rgb(39.215686%, 45.490196%, 54.509804%)" fill-opacity="1" stroke-width="1.65" stroke-linecap="round" stroke-linejoin="round" stroke="rgb(39.215686%, 45.490196%, 54.509804%)" stroke-opacity="1" stroke-miterlimit="10" d="M 514.976562 109 L 505.441406 114.070312 L 514.976562 119.140625 Z M 514.976562 109 "/>
<path fill="none" stroke-width="1.65" stroke-linecap="round" stroke-linejoin="round" stroke="rgb(39.215686%, 45.490196%, 54.509804%)" stroke-opacity="1" stroke-miterlimit="10" d="M 557.28125 259.929688 L 505.441406 259.929688 "/>
<path fill-rule="nonzero" fill="rgb(39.215686%, 45.490196%, 54.509804%)" fill-opacity="1" stroke-width="1.65" stroke-linecap="round" stroke-linejoin="round" stroke="rgb(39.215686%, 45.490196%, 54.509804%)" stroke-opacity="1" stroke-miterlimit="10" d="M 514.976562 254.859375 L 505.441406 259.929688 L 514.976562 265 Z M 514.976562 254.859375 "/>
<path fill="none" stroke-width="1.35" stroke-linecap="round" stroke-linejoin="round" stroke="rgb(39.215686%, 45.490196%, 54.509804%)" stroke-opacity="1" stroke-miterlimit="10" d="M 616.246094 129.03125 L 616.351562 129.257812 L 616.886719 130.40625 L 617.738281 132.234375 L 618.570312 134.035156 L 619.296875 135.640625 L 619.949219 137.140625 L 620.082031 137.453125 L 620.691406 138.9375 L 621.25 140.34375 L 621.738281 141.621094 L 622.214844 142.882812 L 622.722656 144.277344 L 623.25 145.78125 L 623.359375 146.101562 L 623.863281 147.625 L 624.316406 149.070312 L 624.710938 150.378906 L 625.09375 151.671875 L 625.503906 153.097656 L 625.917969 154.636719 L 626.003906 154.964844 L 626.394531 156.523438 L 626.742188 157.996094 L 627.042969 159.332031 L 627.332031 160.648438 L 627.632812 162.097656 L 627.9375 163.664062 L 628 163.996094 L 628.277344 165.578125 L 628.515625 167.074219 L 628.71875 168.425781 L 628.910156 169.761719 L 629.109375 171.230469 L 629.296875 172.8125 L 629.335938 173.148438 L 629.496094 174.746094 L 629.628906 176.253906 L 629.730469 177.621094 L 629.828125 178.964844 L 629.917969 180.445312 L 629.992188 182.039062 L 630.003906 182.375 L 630.050781 183.980469 L 630.074219 185.492188 L 630.078125 186.863281 L 630.074219 188.210938 L 630.058594 189.691406 L 630.015625 191.289062 L 630.003906 191.625 L 629.933594 193.230469 L 629.847656 194.742188 L 629.75 196.105469 L 629.652344 197.449219 L 629.527344 198.925781 L 629.371094 200.515625 L 629.335938 200.851562 L 629.148438 202.445312 L 628.953125 203.945312 L 628.757812 205.300781 L 628.5625 206.632812 L 628.332031 208.097656 L 628.058594 209.671875 L 628 210.003906 L 627.699219 211.582031 L 627.390625 213.0625 L 627.101562 214.402344 L 626.808594 215.714844 L 626.472656 217.160156 L 626.089844 218.710938 L 626.003906 219.035156 L 625.589844 220.585938 L 625.175781 222.042969 L 624.789062 223.355469 L 624.402344 224.648438 L 623.960938 226.0625 L 623.46875 227.578125 L 623.359375 227.898438 L 622.832031 229.417969 L 622.316406 230.839844 L 621.835938 232.121094 L 621.355469 233.378906 L 620.816406 234.761719 L 620.210938 236.238281 L 620.082031 236.546875 L 619.4375 238.042969 L 618.730469 239.613281 L 617.917969 241.371094 L 617.050781 243.242188 L 616.425781 244.589844 L 616.25 244.96875 L 616.246094 244.96875 "/>
<path fill-rule="nonzero" fill="rgb(39.215686%, 45.490196%, 54.509804%)" fill-opacity="1" stroke-width="1.35" stroke-linecap="round" stroke-linejoin="round" stroke="rgb(39.215686%, 45.490196%, 54.509804%)" stroke-opacity="1" stroke-miterlimit="10" d="M 621.835938 133.570312 L 616.246094 129.03125 L 616.113281 136.230469 Z M 621.835938 133.570312 "/>
<path fill-rule="nonzero" fill="rgb(39.215686%, 45.490196%, 54.509804%)" fill-opacity="1" stroke-width="1.35" stroke-linecap="round" stroke-linejoin="round" stroke="rgb(39.215686%, 45.490196%, 54.509804%)" stroke-opacity="1" stroke-miterlimit="10" d="M 616.113281 237.769531 L 616.246094 244.96875 L 621.835938 240.429688 Z M 616.113281 237.769531 "/>
<path fill-rule="nonzero" fill="rgb(100%, 100%, 100%)" fill-opacity="1" d="M 567.054688 85.507812 L 612.304688 85.507812 L 612.296875 85.507812 L 612.332031 85.503906 L 612.363281 85.5 L 612.394531 85.488281 L 612.425781 85.46875 L 612.449219 85.449219 L 612.472656 85.425781 L 612.492188 85.394531 L 612.503906 85.363281 L 612.511719 85.332031 L 612.515625 85.296875 L 612.515625 71.78125 L 612.511719 71.75 L 612.503906 71.714844 L 612.492188 71.683594 L 612.472656 71.65625 L 612.425781 71.609375 L 612.394531 71.59375 L 612.363281 71.582031 L 612.332031 71.574219 L 567.054688 71.574219 L 567.078125 71.574219 L 567.046875 71.574219 L 567.011719 71.578125 L 566.980469 71.585938 L 566.949219 71.601562 L 566.921875 71.621094 L 566.898438 71.644531 L 566.878906 71.671875 L 566.863281 71.699219 L 566.851562 71.730469 L 566.847656 71.765625 L 566.84375 71.78125 L 566.84375 85.296875 L 566.847656 85.28125 L 566.847656 85.316406 L 566.851562 85.347656 L 566.863281 85.378906 L 566.878906 85.410156 L 566.898438 85.4375 L 566.921875 85.460938 L 566.949219 85.480469 L 567.011719 85.503906 L 567.046875 85.507812 Z M 567.054688 85.507812 "/>
<g fill="rgb(39.215686%, 45.490196%, 54.509804%)" fill-opacity="1">
<use xlink:href="#glyph-5-2" x="569.679688" y="80.642578"/>
</g>
<g fill="rgb(39.215686%, 45.490196%, 54.509804%)" fill-opacity="1">
<use xlink:href="#glyph-5-3" x="576.679688" y="80.642578"/>
</g>
<g fill="rgb(39.215686%, 45.490196%, 54.509804%)" fill-opacity="1">
<use xlink:href="#glyph-8-0" x="587.179688" y="80.734375"/>
</g>
<g fill="rgb(39.215686%, 45.490196%, 54.509804%)" fill-opacity="1">
<use xlink:href="#glyph-8-1" x="598.679688" y="80.734375"/>
</g>
<g fill="rgb(39.215686%, 45.490196%, 54.509804%)" fill-opacity="1">
<use xlink:href="#glyph-9-0" x="605.679688" y="82.911133"/>
</g>
<path fill-rule="nonzero" fill="rgb(100%, 100%, 100%)" fill-opacity="1" d="M 567.054688 302.425781 L 612.304688 302.425781 L 612.296875 302.425781 L 612.332031 302.425781 L 612.363281 302.417969 L 612.394531 302.40625 L 612.425781 302.390625 L 612.472656 302.34375 L 612.492188 302.316406 L 612.503906 302.285156 L 612.511719 302.25 L 612.515625 302.21875 L 612.515625 288.703125 L 612.511719 288.667969 L 612.503906 288.636719 L 612.492188 288.605469 L 612.472656 288.574219 L 612.449219 288.550781 L 612.425781 288.53125 L 612.394531 288.511719 L 612.363281 288.5 L 612.332031 288.496094 L 612.304688 288.492188 L 567.054688 288.492188 L 567.078125 288.496094 L 567.046875 288.492188 L 567.011719 288.496094 L 566.949219 288.519531 L 566.921875 288.539062 L 566.898438 288.5625 L 566.878906 288.589844 L 566.863281 288.621094 L 566.851562 288.652344 L 566.847656 288.683594 L 566.84375 288.703125 L 566.84375 302.21875 L 566.847656 302.203125 L 566.847656 302.234375 L 566.851562 302.269531 L 566.863281 302.300781 L 566.878906 302.328125 L 566.898438 302.355469 L 566.921875 302.378906 L 566.949219 302.398438 L 566.980469 302.414062 L 567.011719 302.421875 L 567.046875 302.425781 Z M 567.054688 302.425781 "/>
<g fill="rgb(39.215686%, 45.490196%, 54.509804%)" fill-opacity="1">
<use xlink:href="#glyph-5-2" x="569.679688" y="297.564453"/>
</g>
<g fill="rgb(39.215686%, 45.490196%, 54.509804%)" fill-opacity="1">
<use xlink:href="#glyph-5-3" x="576.679688" y="297.564453"/>
</g>
<g fill="rgb(39.215686%, 45.490196%, 54.509804%)" fill-opacity="1">
<use xlink:href="#glyph-8-0" x="587.179688" y="297.65625"/>
</g>
<g fill="rgb(39.215686%, 45.490196%, 54.509804%)" fill-opacity="1">
<use xlink:href="#glyph-8-1" x="598.679688" y="297.65625"/>
</g>
<g fill="rgb(39.215686%, 45.490196%, 54.509804%)" fill-opacity="1">
<use xlink:href="#glyph-9-0" x="605.679688" y="299.833008"/>
</g>
<path fill-rule="nonzero" fill="rgb(100%, 100%, 100%)" fill-opacity="1" d="M 610.699219 193.46875 L 626.980469 193.46875 L 626.972656 193.46875 L 627.035156 193.460938 L 627.0625 193.449219 L 627.089844 193.433594 L 627.113281 193.414062 L 627.136719 193.390625 L 627.152344 193.363281 L 627.164062 193.335938 L 627.171875 193.304688 L 627.175781 193.273438 L 627.175781 180.726562 L 627.171875 180.695312 L 627.164062 180.664062 L 627.152344 180.636719 L 627.136719 180.609375 L 627.113281 180.585938 L 627.089844 180.566406 L 627.0625 180.550781 L 627.035156 180.539062 L 627.003906 180.535156 L 626.980469 180.53125 L 610.699219 180.53125 L 610.722656 180.535156 L 610.691406 180.53125 L 610.660156 180.535156 L 610.628906 180.546875 L 610.601562 180.558594 L 610.554688 180.597656 L 610.535156 180.621094 L 610.519531 180.652344 L 610.511719 180.679688 L 610.507812 180.710938 L 610.503906 180.726562 L 610.503906 193.273438 L 610.507812 193.257812 L 610.507812 193.289062 L 610.511719 193.320312 L 610.519531 193.347656 L 610.535156 193.378906 L 610.554688 193.402344 L 610.601562 193.441406 L 610.628906 193.453125 L 610.660156 193.464844 L 610.691406 193.46875 Z M 610.699219 193.46875 "/>
<g fill="rgb(39.215686%, 45.490196%, 54.509804%)" fill-opacity="1">
<use xlink:href="#glyph-10-0" x="613.339844" y="188.160156"/>
</g>
<g fill="rgb(39.215686%, 45.490196%, 54.509804%)" fill-opacity="1">
<use xlink:href="#glyph-11-0" x="620.339844" y="190.197266"/>
</g>
<g fill="rgb(39.215686%, 45.490196%, 54.509804%)" fill-opacity="1">
<use xlink:href="#glyph-12-0" x="273" y="33.44043"/>
<use xlink:href="#glyph-12-1" x="281" y="33.44043"/>
<use xlink:href="#glyph-12-2" x="285" y="33.44043"/>
<use xlink:href="#glyph-12-3" x="292" y="33.44043"/>
<use xlink:href="#glyph-12-4" x="295" y="33.44043"/>
<use xlink:href="#glyph-12-1" x="299" y="33.44043"/>
<use xlink:href="#glyph-12-5" x="303" y="33.44043"/>
<use xlink:href="#glyph-12-1" x="309" y="33.44043"/>
<use xlink:href="#glyph-12-6" x="314" y="33.44043"/>
<use xlink:href="#glyph-12-7" x="320" y="33.44043"/>
<use xlink:href="#glyph-12-8" x="323" y="33.44043"/>
<use xlink:href="#glyph-12-9" x="333" y="33.44043"/>
<use xlink:href="#glyph-12-8" x="339" y="33.44043"/>
<use xlink:href="#glyph-12-2" x="349" y="33.44043"/>
<use xlink:href="#glyph-12-9" x="356" y="33.44043"/>
<use xlink:href="#glyph-12-1" x="362" y="33.44043"/>
<use xlink:href="#glyph-12-7" x="366" y="33.44043"/>
<use xlink:href="#glyph-12-10" x="369" y="33.44043"/>
</g>
<g fill="rgb(39.215686%, 45.490196%, 54.509804%)" fill-opacity="1">
<use xlink:href="#glyph-12-0" x="273" y="341.987305"/>
<use xlink:href="#glyph-12-1" x="281" y="341.987305"/>
<use xlink:href="#glyph-12-2" x="285" y="341.987305"/>
<use xlink:href="#glyph-12-3" x="292" y="341.987305"/>
<use xlink:href="#glyph-12-4" x="295" y="341.987305"/>
<use xlink:href="#glyph-12-1" x="299" y="341.987305"/>
<use xlink:href="#glyph-12-5" x="303" y="341.987305"/>
<use xlink:href="#glyph-12-1" x="309" y="341.987305"/>
<use xlink:href="#glyph-12-6" x="314" y="341.987305"/>
<use xlink:href="#glyph-12-7" x="320" y="341.987305"/>
<use xlink:href="#glyph-12-8" x="323" y="341.987305"/>
<use xlink:href="#glyph-12-9" x="333" y="341.987305"/>
<use xlink:href="#glyph-12-8" x="339" y="341.987305"/>
<use xlink:href="#glyph-12-2" x="349" y="341.987305"/>
<use xlink:href="#glyph-12-9" x="356" y="341.987305"/>
<use xlink:href="#glyph-12-1" x="362" y="341.987305"/>
<use xlink:href="#glyph-12-7" x="366" y="341.987305"/>
<use xlink:href="#glyph-12-11" x="369" y="341.987305"/>
</g>
<path fill="none" stroke-width="0.9" stroke-linecap="round" stroke-linejoin="round" stroke="rgb(39.215686%, 45.490196%, 54.509804%)" stroke-opacity="1" stroke-dasharray="3.6 3.6" stroke-miterlimit="10" d="M 25.921875 187 L 557.28125 187 "/>
<path fill="none" stroke-width="1.875" stroke-linecap="round" stroke-linejoin="round" stroke="rgb(76.862745%, 23.529412%, 20.784314%)" stroke-opacity="1" stroke-miterlimit="10" d="M 68.039062 368.390625 L 106.921875 368.390625 "/>
<g fill="rgb(14.901961%, 19.607843%, 21.960784%)" fill-opacity="1">
<use xlink:href="#glyph-13-0" x="138.421875" y="371.90918"/>
<use xlink:href="#glyph-13-1" x="145.421875" y="371.90918"/>
<use xlink:href="#glyph-13-2" x="151.421875" y="371.90918"/>
<use xlink:href="#glyph-13-3" x="154.421875" y="371.90918"/>
<use xlink:href="#glyph-13-1" x="162.421875" y="371.90918"/>
<use xlink:href="#glyph-13-1" x="168.421875" y="371.90918"/>
<use xlink:href="#glyph-13-4" x="174.421875" y="371.90918"/>
<use xlink:href="#glyph-13-5" x="180.421875" y="371.90918"/>
<use xlink:href="#glyph-13-6" x="184.421875" y="371.90918"/>
<use xlink:href="#glyph-13-7" x="190.421875" y="371.90918"/>
<use xlink:href="#glyph-13-8" x="195.421875" y="371.90918"/>
<use xlink:href="#glyph-13-6" x="201.421875" y="371.90918"/>
<use xlink:href="#glyph-13-9" x="207.421875" y="371.90918"/>
<use xlink:href="#glyph-13-1" x="210.421875" y="371.90918"/>
<use xlink:href="#glyph-13-10" x="216.421875" y="371.90918"/>
<use xlink:href="#glyph-13-1" x="222.421875" y="371.90918"/>
<use xlink:href="#glyph-13-11" x="228.421875" y="371.90918"/>
<use xlink:href="#glyph-13-2" x="234.421875" y="371.90918"/>
</g>
<path fill="none" stroke-width="1.875" stroke-linecap="round" stroke-linejoin="round" stroke="rgb(54.117647%, 39.607843%, 0%)" stroke-opacity="1" stroke-miterlimit="10" d="M 288.359375 368.390625 L 327.238281 368.390625 "/>
<g fill="rgb(14.901961%, 19.607843%, 21.960784%)" fill-opacity="1">
<use xlink:href="#glyph-13-12" x="365.238281" y="371.90918"/>
<use xlink:href="#glyph-13-13" x="375.238281" y="371.90918"/>
<use xlink:href="#glyph-13-2" x="377.238281" y="371.90918"/>
<use xlink:href="#glyph-13-14" x="380.238281" y="371.90918"/>
<use xlink:href="#glyph-13-13" x="386.238281" y="371.90918"/>
<use xlink:href="#glyph-13-4" x="388.238281" y="371.90918"/>
<use xlink:href="#glyph-13-5" x="394.238281" y="371.90918"/>
<use xlink:href="#glyph-13-6" x="398.238281" y="371.90918"/>
<use xlink:href="#glyph-13-7" x="404.238281" y="371.90918"/>
<use xlink:href="#glyph-13-8" x="409.238281" y="371.90918"/>
<use xlink:href="#glyph-13-6" x="415.238281" y="371.90918"/>
<use xlink:href="#glyph-13-9" x="421.238281" y="371.90918"/>
<use xlink:href="#glyph-13-1" x="424.238281" y="371.90918"/>
<use xlink:href="#glyph-13-10" x="430.238281" y="371.90918"/>
<use xlink:href="#glyph-13-1" x="436.238281" y="371.90918"/>
<use xlink:href="#glyph-13-11" x="442.238281" y="371.90918"/>
<use xlink:href="#glyph-13-2" x="448.238281" y="371.90918"/>
</g>
</svg>
